<svg width="826" height="619" viewBox="0 0 826 619" fill="none" xmlns="http://www.w3.org/2000/svg">
<path d="M55.5863 298.296L335.395 135.561C337.406 134.4 339.686 133.789 342.008 133.789C344.33 133.789 346.61 134.4 348.621 135.561L767.044 375.011C769.063 376.169 770.741 377.84 771.908 379.854C773.074 381.869 773.689 384.155 773.689 386.483C773.689 388.811 773.074 391.097 771.908 393.112C770.741 395.126 769.063 396.797 767.044 397.955L499.513 552.458C492.948 556.248 485.5 558.243 477.92 558.243C470.339 558.243 462.892 556.248 456.327 552.458L55.7101 321.199C53.6943 320.049 52.0168 318.388 50.8459 316.385C49.6749 314.381 49.0519 312.104 49.0394 309.783C49.0268 307.463 49.6252 305.179 50.7744 303.163C51.9236 301.147 53.5831 299.468 55.5863 298.296Z" fill="#FFB3A6"/>
<path d="M349.941 170.762V49.5205H341.894V170.205C343.126 170.844 344.476 171.223 345.86 171.319C347.244 171.415 348.633 171.225 349.941 170.762Z" fill="#772E29"/>
<path d="M168.946 352.19L412.13 491.527L471.905 456.389L230.454 316.66L168.946 352.19Z" fill="#A04D42"/>
<path d="M230.454 316.66V387.432L168.946 352.19L230.454 316.66Z" fill="#772E29"/>
<path d="M353.587 88.3939C370.142 85.1759 380.554 67.0878 376.842 47.9931C373.131 28.8985 356.701 16.0279 340.146 19.246C323.59 22.464 313.178 40.5521 316.89 59.6467C320.601 78.7414 337.031 91.612 353.587 88.3939Z" fill="#F84A4B"/>
<path d="M352.272 81.6289C365.583 79.0414 373.954 64.4933 370.969 49.1348C367.983 33.7762 354.772 23.4233 341.461 26.0107C328.149 28.5982 319.778 43.1463 322.764 58.5049C325.749 73.8634 338.96 84.2164 352.272 81.6289Z" stroke="#F2F2F2" stroke-width="0.774" stroke-miterlimit="10"/>
<path d="M348.951 36.1494C348.123 35.4239 347.06 35.0239 345.959 35.0239C344.858 35.0239 343.795 35.4239 342.967 36.1494C341.172 38.027 341.791 40.6268 341.791 42.9997V50.5927C341.791 53.4814 341.791 56.3701 341.791 59.2587C341.74 59.9951 341.876 60.7325 342.187 61.4022C342.497 62.0718 342.972 62.652 343.568 63.0886C344.163 63.5252 344.859 63.8041 345.591 63.8993C346.323 63.9945 347.067 63.9029 347.754 63.633C350.21 62.7045 350.003 60.2698 350.003 58.0826C350.003 52.883 350.003 47.766 350.003 42.4632C350.003 40.6475 350.56 38.3365 349.384 36.6446C349.257 36.4657 349.111 36.2998 348.951 36.1494Z" fill="white"/>
<path d="M345.01 67.8837C344.66 68.0045 344.34 68.2 344.073 68.4565C343.806 68.7129 343.598 69.0244 343.462 69.3693C342.245 72.3817 345.526 75.9513 348.332 73.4959C348.687 73.1021 348.946 72.6317 349.09 72.1213C349.233 71.6108 349.257 71.0742 349.159 70.5531C349.061 70.032 348.844 69.5405 348.526 69.1169C348.207 68.6932 347.795 68.3489 347.321 68.1106C346.61 67.7358 345.78 67.6543 345.01 67.8837Z" fill="white"/>
<path style="mix-blend-mode:multiply" opacity="0.63" d="M406.662 243.989L258.948 330.629L173.361 278.612L294.252 208.025" fill="url(#paint0_linear_155:700)"/>
<path style="mix-blend-mode:multiply" opacity="0.63" d="M489.258 328.359C480 332.923 470.063 335.954 459.835 337.334C444.36 339.604 423.293 343.359 409.056 334.941C395.727 327.059 394.984 313.193 400.184 300.442L301.247 357.679L405.961 415.762L521.363 348.084L489.258 328.359Z" fill="url(#paint1_linear_155:700)"/>
<path style="mix-blend-mode:multiply" opacity="0.63" d="M630.101 421.787L531.019 479.911L441.141 430.04L545.236 369.77" fill="url(#paint2_linear_155:700)"/>
<path d="M669.387 367.913L664.29 364.962L644.668 366.84L646.463 361.352L621.559 354.46H544.72L500.193 368.491V394.097L540.8 417.536H538.736V443.225L566.798 459.422L590.113 446.051L605.114 454.717L629.275 440.666V423.293L696.912 383.986H697.097V358.38L669.387 367.913ZM586.131 415.803L550.559 395.17L636.353 386.524L586.131 415.803Z" fill="#A11741"/>
<path opacity="0.95" d="M669.387 367.913L664.29 364.962L644.668 366.84L646.463 361.352L621.559 354.46H544.72L500.193 368.491V394.097L540.8 417.536H538.736V443.225L566.798 459.422L590.113 446.051L605.114 454.717L629.275 440.666V423.293L696.912 383.986H697.097V358.38L669.387 367.913ZM586.131 415.803L550.559 395.17L636.353 386.524L586.131 415.803Z" fill="#606060"/>
<path d="M614.193 406.332L629.193 414.998L605.031 429.049L590.031 420.383L566.777 433.898L538.716 417.701L561.97 404.186L500.07 368.511L527.966 352.293L664.146 339.315L696.87 358.215L614.193 406.332ZM586.131 390.135L636.353 360.959L550.559 369.605L586.131 390.238" fill="#A11741"/>
<path d="M544.39 310.016V280.841L523.757 283.358L523.344 283.111C519.66 281.006 515.817 279.191 511.851 277.684C509.417 271.205 503.598 258.804 494.726 256.452C482.469 253.233 461.857 256.886 461.857 256.886L416.34 276.776C416.546 276.776 419.703 277.663 424.221 278.695C415.623 281.716 407.332 285.551 399.461 290.146C394.266 293.123 389.312 296.504 384.647 300.257L366.407 302.465V332.073C366.503 343.903 373.58 353.89 387.639 362.033C403.251 371.043 422.75 375.073 446.134 374.124C469.195 373.204 491.671 366.598 511.562 354.894C531.907 343.064 542.849 330.388 544.39 316.867C544.649 314.591 544.649 312.292 544.39 310.016ZM427.358 306.344C439.498 298.924 453.135 294.293 467.283 292.788C480.268 291.66 490.585 293.29 498.233 297.678C500.205 298.778 501.999 300.169 503.557 301.804C491.466 317.589 472.359 328.215 452.757 332.321C437.674 335.478 424.18 334.488 411.491 325.388C410.273 324.522 408.932 323.531 407.529 322.479C411.326 317.197 417.942 311.812 427.378 306.323L427.358 306.344Z" fill="#A11741"/>
<path opacity="0.95" d="M544.39 310.016V280.841L523.757 283.358L523.344 283.111C519.66 281.006 515.817 279.191 511.851 277.684C509.417 271.205 503.598 258.804 494.726 256.452C482.469 253.233 461.857 256.886 461.857 256.886L416.34 276.776C416.546 276.776 419.703 277.663 424.221 278.695C415.623 281.716 407.332 285.551 399.461 290.146C394.266 293.123 389.312 296.504 384.647 300.257L366.407 302.465V332.073C366.503 343.903 373.58 353.89 387.639 362.033C403.251 371.043 422.75 375.073 446.134 374.124C469.195 373.204 491.671 366.598 511.562 354.894C531.907 343.064 542.849 330.388 544.39 316.867C544.649 314.591 544.649 312.292 544.39 310.016ZM427.358 306.344C439.498 298.924 453.135 294.293 467.283 292.788C480.268 291.66 490.585 293.29 498.233 297.678C500.205 298.778 501.999 300.169 503.557 301.804C491.466 317.589 472.359 328.215 452.757 332.321C437.674 335.478 424.18 334.488 411.491 325.388C410.273 324.522 408.932 323.531 407.529 322.479C411.326 317.197 417.942 311.812 427.378 306.323L427.358 306.344Z" fill="#606060"/>
<path d="M544.39 287.835C542.849 301.357 531.907 314.033 511.562 325.862C491.622 337.567 469.094 344.152 445.989 345.031C422.605 345.98 403.107 341.949 387.494 332.94C371.881 323.93 364.866 312.678 366.448 299.183C368.03 285.634 378.986 272.952 399.317 261.136C419.25 249.439 441.773 242.867 464.869 242.008C488.253 241.073 507.731 245.11 523.303 254.12C538.874 263.13 545.903 274.368 544.39 287.835ZM443.617 323.221C457.766 321.709 471.403 317.071 483.542 309.645C497.174 301.721 504.939 293.998 506.837 286.473C508.735 278.949 505.874 272.986 498.254 268.584C490.633 264.182 480.316 262.552 467.304 263.694C453.155 265.2 439.518 269.83 427.378 277.25C413.76 285.16 406.002 292.883 404.104 300.421C402.206 307.959 405.06 313.922 412.667 318.311C420.301 322.712 430.618 324.349 443.617 323.221Z" fill="#A11741"/>
<path d="M401.587 219.373L396.49 216.423L376.868 218.3L378.663 212.812L353.759 205.92H276.879L232.352 219.951V245.536L272.958 268.976H270.895V294.664L298.956 310.862L322.21 297.347L337.211 306.013L361.372 291.961V274.588L429.008 235.282H429.194V209.841L401.587 219.373ZM318.331 267.263L282.759 246.63L368.553 237.985L318.331 267.263Z" fill="#A11741"/>
<path opacity="0.95" d="M401.587 219.373L396.49 216.423L376.868 218.3L378.663 212.812L353.759 205.92H276.879L232.352 219.951V245.536L272.958 268.976H270.895V294.664L298.956 310.862L322.21 297.347L337.211 306.013L361.372 291.961V274.588L429.008 235.282H429.194V209.841L401.587 219.373ZM318.331 267.263L282.759 246.63L368.553 237.985L318.331 267.263Z" fill="#606060"/>
<path d="M346.393 257.793L361.393 266.459L337.231 280.51L322.231 271.844L298.977 285.359L270.916 269.162L294.17 255.647L232.27 219.972L260.166 203.754L396.346 190.776L429.173 209.655L346.393 257.793ZM318.331 241.596L368.553 212.42L282.677 221.045L318.249 241.678" fill="#A11741"/>
<path style="mix-blend-mode:multiply" opacity="0.63" d="M135.479 298.626L78.2623 332.031L128.587 362.61L184.648 329.741C167.646 320.25 150.623 310.696 135.479 298.626Z" fill="url(#paint3_linear_155:700)"/>
<path style="mix-blend-mode:multiply" opacity="0.63" d="M463.879 486.947L406.662 520.352L456.987 550.91L513.048 518.041C496.046 508.632 479.085 499.079 463.879 486.947Z" fill="url(#paint4_linear_155:700)"/>
<path d="M160.527 343.978L206.54 316.68C207.573 316.071 208.433 315.208 209.038 314.173C209.644 313.137 209.975 311.965 209.999 310.766C210.024 309.567 209.742 308.381 209.18 307.322C208.618 306.263 207.794 305.365 206.787 304.713L168.76 279.953C166.83 278.674 164.566 277.991 162.25 277.991C159.935 277.991 157.67 278.674 155.74 279.953L110.553 310.367C109.573 311.028 108.774 311.926 108.232 312.978C107.691 314.03 107.423 315.201 107.454 316.384C107.485 317.566 107.813 318.722 108.409 319.744C109.005 320.766 109.849 321.621 110.863 322.231L146.847 343.958C148.914 345.195 151.276 345.85 153.685 345.853C156.093 345.857 158.457 345.209 160.527 343.978Z" fill="#B24800"/>
<path d="M160.527 339.852L206.54 312.554C207.573 311.945 208.433 311.081 209.038 310.046C209.644 309.011 209.975 307.838 209.999 306.639C210.024 305.44 209.742 304.255 209.18 303.195C208.618 302.136 207.794 301.238 206.787 300.587L168.76 275.827C166.83 274.547 164.566 273.865 162.25 273.865C159.935 273.865 157.67 274.547 155.74 275.827L110.553 306.24C109.573 306.902 108.774 307.8 108.232 308.851C107.691 309.903 107.423 311.074 107.454 312.257C107.485 313.44 107.813 314.596 108.409 315.618C109.005 316.64 109.849 317.495 110.863 318.104L146.827 339.687C148.882 340.95 151.242 341.632 153.654 341.661C156.067 341.69 158.442 341.065 160.527 339.852Z" fill="#DF5D00"/>
<path d="M152.872 230.475L128.443 307.746C128.443 307.746 122.48 327.348 159.124 325.367C195.769 323.387 190.941 305.188 190.941 305.188L166.491 230.475" fill="#FF8522"/>
<path d="M143.814 259.093C143.814 259.093 148.663 264.107 159.826 264.107C173.774 264.107 175.26 257.236 175.26 257.236L180.377 272.855C180.377 272.855 176.704 281.666 159.743 281.377C144.475 281.129 138.491 275.641 138.491 275.641" fill="white"/>
<path d="M134.736 288.537C141.367 294.954 150.269 298.485 159.496 298.358C177.632 298.152 184.441 285.256 184.441 285.256L189.827 301.763C189.827 301.763 182.048 313.833 159.681 315.442C138.594 316.949 129.536 305.126 129.536 305.126" fill="white"/>
<g style="mix-blend-mode:multiply" opacity="0.15">
<path d="M158.134 231.093H152.914L128.484 308.324C128.484 308.324 122.933 326.605 155.534 326.068C156.236 294.376 157.824 262.724 158.134 231.093Z" fill="#FF8522"/>
</g>
<path d="M159.826 235.034C163.666 235.034 166.779 233.251 166.779 231.052C166.779 228.853 163.666 227.07 159.826 227.07C155.986 227.07 152.872 228.853 152.872 231.052C152.872 233.251 155.986 235.034 159.826 235.034Z" fill="#FF9F57"/>
<path d="M482.077 537.499L528.09 510.201C529.123 509.592 529.983 508.728 530.588 507.693C531.194 506.658 531.524 505.485 531.549 504.286C531.574 503.087 531.292 501.902 530.73 500.842C530.168 499.783 529.344 498.885 528.337 498.234L490.31 473.474C488.38 472.194 486.116 471.512 483.8 471.512C481.485 471.512 479.22 472.194 477.29 473.474L432.103 503.887C431.122 504.549 430.324 505.447 429.782 506.498C429.241 507.55 428.973 508.721 429.004 509.904C429.034 511.087 429.363 512.242 429.959 513.264C430.555 514.287 431.399 515.142 432.413 515.751L468.377 537.458C470.444 538.702 472.809 539.362 475.221 539.37C477.634 539.377 480.003 538.73 482.077 537.499Z" fill="#B24800"/>
<path d="M482.077 533.351L528.09 506.053C529.123 505.444 529.983 504.581 530.588 503.546C531.194 502.51 531.524 501.338 531.549 500.139C531.574 498.94 531.292 497.754 530.73 496.695C530.168 495.636 529.344 494.738 528.337 494.086L490.31 469.326C488.38 468.047 486.116 467.364 483.8 467.364C481.485 467.364 479.22 468.047 477.29 469.326L432.103 499.74C431.122 500.401 430.324 501.299 429.782 502.351C429.241 503.403 428.973 504.574 429.004 505.757C429.034 506.939 429.363 508.095 429.959 509.117C430.555 510.139 431.399 510.994 432.413 511.604L468.377 533.331C470.445 534.572 472.812 535.229 475.224 535.232C477.637 535.236 480.005 534.586 482.077 533.351Z" fill="#DF5D00"/>
<path d="M474.422 423.995L449.992 501.266C449.992 501.266 444.029 520.868 480.674 518.887C517.319 516.906 512.491 498.708 512.491 498.708L488.061 423.995" fill="#FF8522"/>
<path d="M465.364 452.612C465.364 452.612 470.213 457.626 481.376 457.626C495.324 457.626 496.809 450.755 496.809 450.755L501.926 466.375C501.926 466.375 498.254 475.185 481.293 474.896C466.024 474.649 460.041 469.16 460.041 469.16" fill="white"/>
<path d="M456.306 482.057C462.937 488.475 471.839 492.006 481.066 491.879C499.203 491.672 506.012 478.776 506.012 478.776L511.397 495.283C511.397 495.283 503.619 507.354 481.252 508.963C460.165 510.469 451.107 498.646 451.107 498.646" fill="white"/>
<g style="mix-blend-mode:multiply" opacity="0.15">
<path d="M479.705 424.572H474.464L450.034 501.844C450.034 501.844 444.483 520.125 477.084 519.589C477.786 487.896 479.374 456.244 479.705 424.572Z" fill="#FF8522"/>
</g>
<path d="M481.376 428.555C485.216 428.555 488.329 426.772 488.329 424.573C488.329 422.373 485.216 420.59 481.376 420.59C477.535 420.59 474.422 422.373 474.422 424.573C474.422 426.772 477.535 428.555 481.376 428.555Z" fill="#FF9F57"/>
<defs>
<linearGradient id="paint0_linear_155:700" x1="268.068" y1="313.276" x2="291.446" y2="257.896" gradientUnits="userSpaceOnUse">
<stop stop-color="white" stop-opacity="0"/>
<stop offset="0.98" stop-color="#84210B"/>
</linearGradient>
<linearGradient id="paint1_linear_155:700" x1="42431.5" y1="22199.7" x2="43129.9" y2="19042.7" gradientUnits="userSpaceOnUse">
<stop stop-color="white" stop-opacity="0"/>
<stop offset="0.98" stop-color="#84210B"/>
</linearGradient>
<linearGradient id="paint2_linear_155:700" x1="48200.8" y1="24890.4" x2="48830.5" y2="22330.7" gradientUnits="userSpaceOnUse">
<stop stop-color="white" stop-opacity="0"/>
<stop offset="0.98" stop-color="#84210B"/>
</linearGradient>
<linearGradient id="paint3_linear_155:700" x1="6186.92" y1="11119.6" x2="6537.39" y2="10308" gradientUnits="userSpaceOnUse">
<stop stop-color="white" stop-opacity="0"/>
<stop offset="0.98" stop-color="#84210B"/>
</linearGradient>
<linearGradient id="paint4_linear_155:700" x1="23362.5" y1="17230.6" x2="23623.1" y2="16612.5" gradientUnits="userSpaceOnUse">
<stop stop-color="white" stop-opacity="0"/>
<stop offset="0.98" stop-color="#84210B"/>
</linearGradient>
</defs>
</svg>
