<svg width="406" height="308" viewBox="0 0 406 308" fill="none" xmlns="http://www.w3.org/2000/svg">
<g filter="url(#filter0_d_128:449)">
<path d="M197.194 296.257L14.7782 188.454C8.97238 185.186 3.98873 179.837 9.65243 176.345L192.728 70.785C195.479 69.0798 199.65 67.9633 202.442 69.5873L393.931 180.75C399.737 184.12 400.783 193.539 394.946 196.919L221.27 296.115C217.616 298.232 213.473 299.359 209.251 299.384C205.028 299.409 200.872 298.331 197.194 296.257Z" fill="#DB3B3B"/>
<path style="mix-blend-mode:multiply" d="M368.465 174.741L347.84 186.85L307.758 159.618L328.545 149.245" fill="url(#paint0_linear_128:449)"/>
<path style="mix-blend-mode:multiply" d="M178.437 130.67C171.576 134.974 162.197 144.454 154.919 148.321L268.011 217.747L295.923 197.244C291.985 195.386 181.543 133.766 178.437 130.67Z" fill="url(#paint1_linear_128:449)"/>
<path style="mix-blend-mode:multiply" d="M169.17 217.777C162.308 222.081 130.031 236.941 122.784 240.808L152.94 259.626L184.892 229.379C180.954 227.501 172.276 220.843 169.17 217.777Z" fill="url(#paint2_linear_128:449)"/>
<path d="M167.13 124.651C167.13 124.651 197.702 25.9829 197.509 25.9829C197.316 25.9829 198.463 21.5981 203.924 24.0747L321.237 93.115C321.237 93.115 326.921 95.419 325.815 100.717C324.709 106.016 295.933 197.264 295.933 197.264C295.333 198.131 294.472 198.783 293.475 199.126C292.478 199.469 291.398 199.485 290.391 199.172C286.819 198.066 169.87 130.152 169.87 130.152C168.799 129.756 167.919 128.967 167.41 127.945C166.901 126.922 166.801 125.745 167.13 124.651Z" fill="#053855"/>
<path d="M199.447 33.1589L319.593 103.194L294.675 186.85L172.986 118.896L199.447 33.1589Z" fill="#A11741"/>
<path style="mix-blend-mode:multiply" d="M57.2659 170.955C50.4045 175.259 32.104 182.983 24.8569 186.85L46.7606 199.426L67.6189 178.72C63.7572 176.73 60.2574 174.105 57.2659 170.955Z" fill="url(#paint3_linear_128:449)"/>
<path d="M76.5105 148.351C76.5105 148.351 75.5767 180.984 61.6407 181.755C47.7048 182.526 46.771 148.351 46.771 148.351" fill="#A11741"/>
<path d="M76.5105 148.351C76.5105 148.351 75.5767 180.984 61.6407 181.755C47.7048 182.526 46.771 148.351 46.771 148.351" fill="#A11741"/>
<path d="M61.6407 154.533C69.8531 154.533 76.5105 151.765 76.5105 148.351C76.5105 144.937 69.8531 142.17 61.6407 142.17C53.4284 142.17 46.771 144.937 46.771 148.351C46.771 151.765 53.4284 154.533 61.6407 154.533Z" fill="#311E69"/>
<path d="M65.6907 152.564C68.4107 139.387 73.1093 126.698 79.6266 114.927C80.1646 113.912 81.951 114.795 81.4232 115.77C74.995 127.417 70.365 139.969 67.6902 153C67.4771 154.015 65.4775 153.609 65.6907 152.564Z" fill="#311E69"/>
<path d="M57.1851 154.624C58.2068 138.831 59.9763 123.085 62.4935 107.386C62.6661 106.371 64.7367 106.371 64.5235 107.386C62.0131 123.044 60.247 138.76 59.2252 154.533C58.5756 154.563 57.855 154.583 57.1851 154.624Z" fill="#311E69"/>
<path d="M84.2449 111.852C86.6843 111.333 89.2195 111.494 91.5732 112.319C93.248 112.907 96.7091 114.592 96.0291 116.379C95.349 118.165 91.1571 117.911 89.4823 117.505C88.2811 117.226 87.1502 116.703 86.1601 115.968C85.17 115.233 84.3418 114.301 83.7273 113.232C83.6954 113.171 83.6715 113.106 83.6562 113.039C83.5805 112.928 83.5358 112.798 83.5267 112.664C83.5175 112.529 83.5442 112.395 83.6041 112.274C83.664 112.153 83.7549 112.05 83.8675 111.976C83.98 111.902 84.1103 111.859 84.2449 111.852Z" fill="#C3EA75"/>
<path d="M80.9562 110.867C81.0952 111.097 81.3196 111.262 81.5802 111.327C81.8408 111.392 82.1165 111.351 82.3468 111.212C84.6204 109.873 87.4218 109.03 89.0661 107.071C90.1826 105.701 90.6596 103.448 88.6195 102.443C87.6433 102.051 86.5754 101.945 85.5414 102.14C84.5075 102.334 83.5505 102.819 82.7832 103.539C80.9258 105.254 80.7532 107.761 80.3066 109.903C80.2752 110.116 80.3244 110.333 80.4446 110.511C80.5648 110.689 80.7472 110.817 80.9562 110.867ZM85.2598 103.975V104.189C84.5943 104.637 84.0107 105.197 83.5343 105.843C83.9282 105.075 84.525 104.429 85.2598 103.975Z" fill="#C3EA75"/>
<path d="M74.9069 106.493C78.2666 105.285 78.8349 109.893 78.9669 111.436C78.9677 111.626 78.8973 111.81 78.7696 111.95C78.6419 112.091 78.466 112.179 78.2767 112.197C78.0671 112.349 77.8149 112.431 77.5561 112.431C77.2972 112.431 77.045 112.349 76.8354 112.197C75.7087 111.385 74.2776 110.614 73.9223 109.365C73.6077 108.431 73.6077 106.96 74.9069 106.493Z" fill="#C3EA75"/>
<path d="M62.1988 104.341C62.363 104.604 62.6207 104.795 62.92 104.876C63.2193 104.957 63.5382 104.922 63.8126 104.777C63.9869 104.812 64.1662 104.812 64.3405 104.777C66.9388 104.463 68.2482 101.164 68.7151 99.4384C69.182 97.7129 69.7301 94.8811 67.0911 93.9676C65.9981 93.6197 64.8138 93.6998 63.7776 94.1915C62.7413 94.6833 61.9304 95.5501 61.5086 96.6167C60.5748 99.1035 61.1432 101.996 62.1988 104.341ZM63.5995 101.996C63.5482 101.553 63.5653 101.105 63.6502 100.667C63.6522 100.972 63.6759 101.278 63.7213 101.58C63.701 101.753 63.6502 101.885 63.6096 101.996H63.5995Z" fill="#C3EA75"/>
<path d="M48.5775 104.798C48.4862 106.919 51.1252 107.792 53.3074 108.127C54.6675 108.34 59.5192 109.304 59.6004 107.396C59.7332 107.287 59.824 107.135 59.8573 106.967C59.8906 106.798 59.8644 106.624 59.7831 106.472C58.7072 104.442 56.1494 103.559 53.6931 103.021C51.5819 102.575 48.7196 102.483 48.5775 104.798ZM50.6075 104.706C50.6892 104.829 50.7808 104.944 50.8816 105.051C50.8023 105.166 50.7534 105.299 50.7395 105.437C50.6249 105.355 50.547 105.232 50.5223 105.094C50.4977 104.955 50.5282 104.812 50.6075 104.696V104.706Z" fill="#C3EA75"/>
<path d="M67.2232 106.442C67.3354 106.658 67.5152 106.831 67.735 106.936C67.9549 107.04 68.2029 107.07 68.4412 107.02C69.8471 106.889 71.1993 106.415 72.3794 105.64C72.5974 105.505 72.7862 105.327 72.9347 105.118C73.0832 104.908 73.1884 104.672 73.2442 104.421C73.2999 104.171 73.3051 103.911 73.2595 103.659C73.2138 103.406 73.1182 103.165 72.9783 102.95C71.3746 101.022 67.6901 104.27 66.736 105.315C66.2793 105.792 66.665 106.31 67.2232 106.442ZM70.1363 104.869L69.9637 104.93L70.9787 104.361C70.7313 104.586 70.4414 104.758 70.1261 104.869H70.1363Z" fill="#C3EA75"/>
<path d="M307.796 114.603C308.069 109.16 304.945 104.58 300.819 104.374C296.693 104.168 293.128 108.413 292.856 113.856C292.583 119.299 295.707 123.879 299.833 124.085C303.959 124.291 307.524 120.046 307.796 114.603Z" fill="white"/>
<path d="M298.41 114.054L301.018 104.544C299.834 104.072 298.524 104.016 297.304 104.384C296.083 104.753 295.024 105.525 294.299 106.574L298.41 114.054Z" fill="#FD7382"/>
<path d="M298.41 114.054C298.41 114.054 292.32 118.805 292.167 118.409C291.396 116.424 291.188 114.265 291.566 112.169C291.944 110.074 292.893 108.124 294.309 106.533L298.41 114.054Z" fill="#8787D1"/>
<path d="M298.903 137.987C299.153 132.549 296.014 127.988 291.893 127.799C287.771 127.61 284.228 131.864 283.978 137.301C283.728 142.739 286.867 147.3 290.988 147.489C295.11 147.679 298.653 143.424 298.903 137.987Z" fill="white"/>
<path d="M290.899 137.623L293.507 128.112C292.323 127.64 291.013 127.584 289.793 127.953C288.572 128.321 287.513 129.093 286.788 130.142L290.899 137.623Z" fill="#FD7382"/>
<path d="M290.899 137.623C290.899 137.623 284.809 142.373 284.657 141.977C283.885 139.992 283.677 137.833 284.055 135.738C284.433 133.642 285.382 131.692 286.798 130.102L290.899 137.623Z" fill="#8787D1"/>
<path d="M293.94 161.934C294.212 156.491 291.088 151.912 286.962 151.705C282.837 151.499 279.271 155.744 278.999 161.187C278.727 166.631 281.851 171.21 285.977 171.417C290.103 171.623 293.668 167.378 293.94 161.934Z" fill="white"/>
<path d="M284.585 161.181L287.245 151.68C286.06 151.208 284.751 151.152 283.53 151.521C282.31 151.89 281.25 152.662 280.525 153.71L284.585 161.181Z" fill="#FD7382"/>
<path d="M284.585 161.181C284.585 161.181 278.495 165.931 278.343 165.535C277.572 163.55 277.364 161.391 277.742 159.296C278.12 157.2 279.069 155.25 280.485 153.66L284.585 161.181Z" fill="#8787D1"/>
<path opacity="0.71" d="M206.136 49.3888L243.671 71.2722L235.886 97.4084L197.864 76.1746L206.136 49.3888Z" fill="white"/>
<path opacity="0.71" d="M195.164 80.123L232.699 102.006L224.913 128.143L186.892 106.909L195.164 80.123Z" fill="white"/>
<path d="M166.581 223.827L162.278 222.639L162.948 217.402C162.948 217.402 167.617 218.183 166.581 223.827Z" fill="#42210B"/>
<path d="M160.725 208.592C160.725 208.592 159.213 226.293 159.619 226.496C160.025 226.699 164.156 227.054 164.156 226.75C164.156 226.445 164.399 218.691 164.399 218.691C164.399 218.691 166.429 222.111 166.571 223.817C166.571 223.817 171.514 221.005 172.428 218.742C173.341 216.478 170.317 207.039 169.16 206.562" fill="#FDF2D6"/>
<path d="M177.219 233.104L172.357 227.937L175.534 223.877C175.534 223.877 178.498 230.444 177.219 233.104Z" fill="#42210B"/>
<path d="M169.992 212.631L167.718 233.875C169.129 234.386 170.583 234.77 172.062 235.022C172.98 234.7 173.862 234.281 174.691 233.774L175.503 226.669C175.503 226.669 177.615 228.78 177.229 233.083C177.229 232.789 180.588 231.673 181.015 231.48C182.37 230.888 183.671 230.179 184.902 229.358C186.191 228.475 190.992 224.507 188.414 222.923C186.222 221.584 179.107 222.223 179.107 222.223L179.005 213.453" fill="#FDF2D6"/>
<path d="M161.486 136.527C161.503 136.451 161.503 136.373 161.485 136.298C161.468 136.223 161.433 136.153 161.384 136.093C161.335 136.033 161.273 135.986 161.203 135.953C161.133 135.921 161.056 135.905 160.979 135.907C161.474 134.031 162.298 132.257 163.415 130.67L183.979 128.244C183.979 128.244 188.11 142.941 189.703 168.266C190.942 187.896 181.299 217.097 181.299 217.097C181.299 217.097 171.332 219.625 166.531 214.702L166.724 210.469C164.242 210.449 161.766 210.246 159.314 209.86C156.797 185.48 158.675 160.785 161.486 136.527Z" fill="#79CC37"/>
<path d="M165.922 213.596L168.49 195.397C169.312 189.601 170.581 183.643 170.601 177.756C170.621 171.869 168.571 166.591 167.637 161.008C166.711 155.582 166.473 150.061 166.927 144.576C167.028 143.297 168.865 143.286 168.764 144.576C168.248 150.711 168.624 156.889 169.88 162.917C171.027 168.306 172.631 173.412 172.397 179.014C172.164 184.617 171.047 190.342 170.256 195.924L167.678 214.123C167.475 215.402 165.739 214.864 165.922 213.596Z" fill="#42210B"/>
<path d="M201.437 104.859C200.757 106.026 198.493 107.599 197.915 108.817C199.518 110.208 199.863 111.659 201.447 113.07C201.69 112.461 202.685 112.055 203.213 111.75C204.025 111.284 204.674 110.654 205.436 110.167C206.197 109.68 207.324 109.314 208.217 108.858C208.483 108.723 208.729 108.552 208.948 108.35C209.185 108.263 209.416 108.157 209.638 108.036C209.777 107.958 209.898 107.851 209.992 107.722C210.086 107.594 210.151 107.446 210.183 107.29C210.215 107.134 210.212 106.973 210.176 106.818C210.14 106.663 210.07 106.517 209.973 106.391C210.202 106.287 210.388 106.107 210.499 105.881C210.61 105.655 210.639 105.398 210.582 105.153C210.539 104.999 210.461 104.857 210.354 104.739C210.246 104.621 210.112 104.529 209.963 104.473L209.871 104.361C209.97 104.302 210.052 104.217 210.107 104.115C210.163 104.013 210.19 103.898 210.186 103.783C210.206 103.682 210.206 103.579 210.186 103.478C210.125 102.291 209.262 102.108 208.328 102.534L208.186 102.595C208.725 102.165 209.182 101.643 209.536 101.052C210.45 100.159 211.038 99.2456 210.257 98.7584C209.475 98.2712 208.146 99.4588 207.587 99.8749C206.349 100.799 205.212 101.854 203.974 102.778C203.974 102.646 203.974 102.514 203.974 102.463V102.25C203.974 101.59 203.873 99.4385 203.182 99.134C203.076 99.0687 202.954 99.0322 202.829 99.0282C202.704 99.0242 202.58 99.0528 202.47 99.1112C202.359 99.1695 202.266 99.2557 202.198 99.3611C202.131 99.4665 202.092 99.5877 202.086 99.7125L201.437 104.859Z" fill="#FE6162"/>
<path d="M200.066 106.371L190.556 112.887C189.033 109.147 187.078 105.597 184.73 102.311C180.761 96.6674 169.9 98.3523 169.9 98.3523C169.9 98.3523 163.506 102.93 161.111 107.985C158.715 113.039 158.857 126.143 160.908 130.508C162.958 134.872 175.757 134.354 183.014 132.598C183.158 132.63 183.307 132.629 183.451 132.597C183.595 132.564 183.73 132.501 183.847 132.411C183.964 132.321 184.06 132.207 184.128 132.076C184.196 131.946 184.235 131.802 184.242 131.654C184.242 127.865 184.212 124.072 184.151 120.276C188.769 125.981 196.108 122.103 200.696 117.698C202.962 115.733 205.004 113.524 206.786 111.111C205.974 108.604 200.066 106.371 200.066 106.371Z" fill="#FAB965"/>
<path d="M180.447 87.2787C180.447 87.2787 181.046 95.9874 178.417 97.9971C175.788 100.007 171.373 96.6878 171.373 96.6878" fill="#FE6162"/>
<path d="M178.274 82.965C179.443 83.8711 180.353 85.0681 180.913 86.4363C183.106 91.9173 177.209 98.7178 171.941 99.7734L169.211 98.9106C169.211 98.9106 165.597 93.592 165.597 90.6079C165.56 87.7275 166.653 84.9474 168.642 82.8635C171.474 80.2245 175.493 80.7421 178.274 82.965Z" fill="#1A1A1A"/>
<path d="M171.941 99.7327C171.941 99.7327 181.796 128.153 174.377 132.842C166.957 137.531 152.453 133.258 155.284 126.214C158.116 119.17 169.21 98.87 169.21 98.87" fill="#1A1A1A"/>
<path opacity="0.71" d="M251.913 75.7787L272.771 87.9385L264.986 114.075L243.671 102.169L251.913 75.7787Z" fill="white"/>
<path opacity="0.71" d="M259.84 122.195L240.93 111.507C239.712 110.817 238.708 112.735 239.915 113.415L258.825 124.113C260.063 124.793 261.078 122.885 259.84 122.195Z" fill="white"/>
<path opacity="0.71" d="M258.48 126.468L239.54 115.78C238.322 115.09 237.317 117.008 238.525 117.688L257.434 128.376C258.673 129.066 259.688 127.158 258.48 126.468Z" fill="white"/>
<path opacity="0.71" d="M257.272 131.005L238.363 120.317C237.145 119.627 236.14 121.545 237.348 122.225L256.257 132.913C257.475 133.603 258.48 131.685 257.272 131.005Z" fill="white"/>
<path opacity="0.71" d="M256.084 135.095L237.175 124.407C235.957 123.717 234.952 125.636 236.16 126.316L255.069 137.004C256.277 137.684 257.292 135.745 256.084 135.095Z" fill="white"/>
<path opacity="0.71" d="M280.759 98.3828L265.118 148.788C263.951 152.533 269.898 153.863 271.055 150.138L286.697 99.7328C287.854 95.9773 281.906 94.6578 280.759 98.3828Z" fill="white"/>
<path d="M345.455 92.8815L384.238 115.719C384.962 116.145 385.522 116.802 385.827 117.584C386.133 118.367 386.167 119.229 385.923 120.033L369.988 172.701C369.826 173.239 369.545 173.734 369.166 174.149C368.787 174.564 368.319 174.889 367.797 175.098C367.276 175.308 366.714 175.397 366.153 175.36C365.592 175.323 365.047 175.16 364.557 174.883L325.49 152.848C324.747 152.429 324.168 151.77 323.851 150.978C323.534 150.186 323.496 149.31 323.744 148.493L339.984 95.0333C340.148 94.4919 340.432 93.9945 340.816 93.5786C341.199 93.1627 341.672 92.8391 342.198 92.632C342.725 92.425 343.291 92.3399 343.855 92.3831C344.419 92.4263 344.966 92.5967 345.455 92.8815Z" fill="#053855"/>
<path d="M344.745 97.8246L381.132 119.251C381.372 119.393 381.556 119.612 381.658 119.871C381.759 120.13 381.77 120.416 381.691 120.682L367.004 169.24C366.949 169.418 366.855 169.582 366.728 169.719C366.602 169.857 366.446 169.964 366.273 170.033C366.099 170.102 365.913 170.131 365.727 170.119C365.54 170.106 365.359 170.052 365.197 169.961L328.555 149.245C328.31 149.105 328.12 148.886 328.015 148.625C327.91 148.363 327.896 148.073 327.977 147.803L342.928 98.5351C342.983 98.3562 343.079 98.192 343.206 98.0549C343.334 97.9177 343.491 97.8111 343.665 97.7428C343.84 97.6746 344.027 97.6465 344.214 97.6607C344.401 97.6748 344.582 97.7309 344.745 97.8246Z" fill="#A11741"/>
<g opacity="0.71">
<path opacity="0.71" d="M338.096 143.601L359.939 156.654C360.112 156.753 360.246 156.906 360.321 157.09C360.397 157.274 360.409 157.478 360.355 157.669C360.241 158.005 360.021 158.294 359.728 158.494C359.435 158.693 359.085 158.792 358.731 158.775C358.513 158.768 358.3 158.705 358.112 158.593L337.213 146.098L338.096 143.601Z" fill="white"/>
</g>
<path d="M362.547 127.909L367.673 131.015L361.614 154.776L356.549 151.67L362.547 127.909Z" fill="#8787D1"/>
<path d="M354.935 118.744L360.173 121.85L353.149 149.793L347.84 146.545L354.935 118.744Z" fill="#F8997C"/>
<path d="M347.658 110.948L352.286 113.912L344.511 144.728L339.781 141.845L347.658 110.948Z" fill="white"/>
</g>
<defs>
<filter id="filter0_d_128:449" x="-4" y="0" width="414" height="314" filterUnits="userSpaceOnUse" color-interpolation-filters="sRGB">
<feFlood flood-opacity="0" result="BackgroundImageFix"/>
<feColorMatrix in="SourceAlpha" type="matrix" values="0 0 0 0 0 0 0 0 0 0 0 0 0 0 0 0 0 0 127 0" result="hardAlpha"/>
<feOffset dy="4"/>
<feGaussianBlur stdDeviation="2"/>
<feComposite in2="hardAlpha" operator="out"/>
<feColorMatrix type="matrix" values="0 0 0 0 0 0 0 0 0 0 0 0 0 0 0 0 0 0 0.25 0"/>
<feBlend mode="normal" in2="BackgroundImageFix" result="effect1_dropShadow_128:449"/>
<feBlend mode="normal" in="SourceGraphic" in2="effect1_dropShadow_128:449" result="shape"/>
</filter>
<linearGradient id="paint0_linear_128:449" x1="346.541" y1="154.614" x2="337.183" y2="168.57" gradientUnits="userSpaceOnUse">
<stop stop-color="#1B1464"/>
<stop offset="1" stop-color="white"/>
</linearGradient>
<linearGradient id="paint1_linear_128:449" x1="33087.8" y1="12789.9" x2="32286.2" y2="15523.5" gradientUnits="userSpaceOnUse">
<stop stop-color="#1B1464"/>
<stop offset="1" stop-color="white"/>
</linearGradient>
<linearGradient id="paint2_linear_128:449" x1="11031.4" y1="8657.35" x2="9888.85" y2="10716.6" gradientUnits="userSpaceOnUse">
<stop stop-color="#1B1464"/>
<stop offset="1" stop-color="white"/>
</linearGradient>
<linearGradient id="paint3_linear_128:449" x1="2685.93" y1="4700.94" x2="2151.05" y2="5676.59" gradientUnits="userSpaceOnUse">
<stop stop-color="#1B1464"/>
<stop offset="1" stop-color="white"/>
</linearGradient>
</defs>
</svg>
