<svg width="392" height="277" viewBox="0 0 392 277" fill="none" xmlns="http://www.w3.org/2000/svg">
<path d="M190.194 273.257L7.77818 165.454C1.97238 162.186 -3.01127 156.837 2.65243 153.345L185.728 47.785C188.479 46.0798 192.65 44.9633 195.442 46.5873L386.931 157.75C392.737 161.12 393.783 170.539 387.946 173.919L214.27 273.115C210.616 275.232 206.473 276.359 202.251 276.384C198.028 276.409 193.872 275.331 190.194 273.257V273.257Z" fill="#DB3B3B"/>
<path style="mix-blend-mode:multiply" d="M361.465 151.741L340.84 163.85L300.758 136.618L321.545 126.245" fill="url(#paint0_linear_128:450)"/>
<path style="mix-blend-mode:multiply" d="M171.437 107.67C164.576 111.974 155.197 121.454 147.919 125.321L261.011 194.747L288.923 174.244C284.985 172.386 174.543 110.766 171.437 107.67Z" fill="url(#paint1_linear_128:450)"/>
<path style="mix-blend-mode:multiply" d="M162.17 194.777C155.308 199.081 123.031 213.941 115.784 217.808L145.94 236.626L177.892 206.379C173.954 204.501 165.276 197.843 162.17 194.777Z" fill="url(#paint2_linear_128:450)"/>
<path d="M160.13 101.651C160.13 101.651 190.702 2.98288 190.509 2.98288C190.316 2.98288 191.463 -1.40192 196.924 1.07468L314.237 70.115C314.237 70.115 319.921 72.419 318.815 77.7173C317.709 83.0156 288.933 174.264 288.933 174.264C288.333 175.131 287.472 175.783 286.475 176.126C285.478 176.469 284.398 176.485 283.391 176.172C279.819 175.066 162.87 107.152 162.87 107.152C161.799 106.756 160.919 105.967 160.41 104.945C159.901 103.922 159.801 102.745 160.13 101.651V101.651Z" fill="#053855"/>
<path d="M192.447 10.1589L312.593 80.1939L287.675 163.85L165.986 95.896L192.447 10.1589Z" fill="#A11741"/>
<path style="mix-blend-mode:multiply" d="M50.2659 147.955C43.4045 152.259 25.104 159.983 17.8569 163.85L39.7606 176.426L60.6189 155.72C56.7572 153.73 53.2574 151.105 50.2659 147.955V147.955Z" fill="url(#paint3_linear_128:450)"/>
<path d="M69.5105 125.351C69.5105 125.351 68.5767 157.984 54.6407 158.755C40.7048 159.526 39.771 125.351 39.771 125.351" fill="#A11741"/>
<path d="M69.5105 125.351C69.5105 125.351 68.5767 157.984 54.6407 158.755C40.7048 159.526 39.771 125.351 39.771 125.351" fill="#A11741"/>
<path d="M54.6407 131.533C62.8531 131.533 69.5105 128.765 69.5105 125.351C69.5105 121.937 62.8531 119.17 54.6407 119.17C46.4284 119.17 39.771 121.937 39.771 125.351C39.771 128.765 46.4284 131.533 54.6407 131.533Z" fill="#311E69"/>
<path d="M58.6907 129.564C61.4107 116.387 66.1093 103.698 72.6266 91.9273C73.1646 90.9123 74.951 91.7954 74.4232 92.7698C67.995 104.417 63.365 116.969 60.6902 130C60.4771 131.015 58.4775 130.609 58.6907 129.564Z" fill="#311E69"/>
<path d="M50.1851 131.624C51.2068 115.831 52.9763 100.085 55.4935 84.3859C55.6661 83.3709 57.7367 83.3709 57.5235 84.3859C55.0131 100.044 53.247 115.76 52.2252 131.533C51.5756 131.563 50.855 131.583 50.1851 131.624Z" fill="#311E69"/>
<path d="M77.2449 88.8518C79.6843 88.3326 82.2195 88.4941 84.5732 89.3187C86.248 89.9074 89.7091 91.5923 89.0291 93.3787C88.349 95.1651 84.1571 94.9114 82.4823 94.5054C81.2811 94.2263 80.1502 93.7029 79.1601 92.9677C78.17 92.2326 77.3418 91.3014 76.7273 90.2322C76.6954 90.1713 76.6715 90.1064 76.6562 90.0394C76.5805 89.9278 76.5358 89.7982 76.5267 89.6637C76.5175 89.5292 76.5442 89.3946 76.6041 89.2739C76.664 89.1531 76.7549 89.0504 76.8675 88.9762C76.98 88.9021 77.1103 88.8591 77.2449 88.8518V88.8518Z" fill="#C3EA75"/>
<path d="M73.9562 87.8673C74.0952 88.0971 74.3196 88.2624 74.5802 88.3271C74.8408 88.3918 75.1165 88.3506 75.3468 88.2124C77.6204 86.8726 80.4218 86.0302 82.0661 84.0712C83.1826 82.701 83.6596 80.4477 81.6195 79.4428C80.6433 79.0506 79.5754 78.9454 78.5414 79.1396C77.5075 79.3338 76.5505 79.8193 75.7832 80.539C73.9258 82.2544 73.7532 84.7614 73.3066 86.9031C73.2752 87.1159 73.3244 87.3327 73.4446 87.5111C73.5648 87.6894 73.7472 87.8165 73.9562 87.8673V87.8673ZM78.2598 80.9755V81.1886C77.5943 81.6375 77.0107 82.1971 76.5343 82.8431C76.9282 82.0747 77.525 81.4289 78.2598 80.9755V80.9755Z" fill="#C3EA75"/>
<path d="M67.9069 83.4927C71.2665 82.2849 71.835 86.893 71.9669 88.4358C71.9677 88.6259 71.8973 88.8095 71.7696 88.9504C71.6419 89.0913 71.466 89.1793 71.2767 89.197C71.0671 89.3489 70.8149 89.4307 70.5561 89.4307C70.2972 89.4307 70.045 89.3489 69.8354 89.197C68.7087 88.385 67.2776 87.6136 66.9223 86.3652C66.6077 85.4314 66.6077 83.9596 67.9069 83.4927Z" fill="#C3EA75"/>
<path d="M55.1988 81.3409C55.363 81.6039 55.6207 81.7951 55.92 81.8761C56.2193 81.957 56.5382 81.9217 56.8126 81.7773C56.9869 81.812 57.1662 81.812 57.3405 81.7773C59.9388 81.4627 61.2482 78.1639 61.7151 76.4384C62.182 74.7129 62.7301 71.8811 60.0911 70.9676C58.9981 70.6197 57.8138 70.6998 56.7776 71.1915C55.7413 71.6833 54.9304 72.5501 54.5086 73.6167C53.5748 76.1035 54.1432 78.9962 55.1988 81.3409ZM56.5995 78.9962C56.5482 78.553 56.5653 78.1046 56.6502 77.6666C56.6522 77.9724 56.6759 78.2776 56.7213 78.5801V78.5801C56.701 78.7526 56.6502 78.8846 56.6096 78.9962H56.5995Z" fill="#C3EA75"/>
<path d="M41.5775 81.7977C41.4862 83.919 44.1252 84.7919 46.3074 85.1269C47.6675 85.34 52.5192 86.3043 52.6004 84.3961C52.7332 84.2871 52.824 84.1355 52.8573 83.967C52.8906 83.7985 52.8644 83.6237 52.7831 83.4724C51.7072 81.4424 49.1494 80.5594 46.6931 80.0214C44.5819 79.5748 41.7196 79.4835 41.5775 81.7977ZM43.6075 81.7063C43.6892 81.8287 43.7808 81.9441 43.8816 82.0514C43.8023 82.1659 43.7534 82.2986 43.7395 82.4371C43.6249 82.3554 43.547 82.232 43.5223 82.0935C43.4977 81.955 43.5282 81.8124 43.6075 81.6962V81.7063Z" fill="#C3EA75"/>
<path d="M60.2232 83.4419C60.3354 83.658 60.5152 83.8314 60.735 83.9359C60.9549 84.0403 61.2029 84.07 61.4412 84.0205C62.8471 83.8892 64.1993 83.4152 65.3794 82.6401C65.5974 82.5047 65.7862 82.3271 65.9347 82.1178C66.0832 81.9084 66.1884 81.6716 66.2442 81.4211C66.2999 81.1706 66.3051 80.9115 66.2595 80.6589C66.2138 80.4064 66.1182 80.1655 65.9783 79.9504C64.3746 78.0219 60.6901 81.2698 59.736 82.3153C59.2793 82.7923 59.665 83.31 60.2232 83.4419ZM63.1363 81.8687L62.9637 81.9296L63.9787 81.3612C63.7313 81.5857 63.4414 81.7583 63.1261 81.8687H63.1363Z" fill="#C3EA75"/>
<path d="M300.796 91.6031C301.069 86.1599 297.945 81.5802 293.819 81.3739C289.693 81.1676 286.128 85.4129 285.856 90.856C285.583 96.2992 288.707 100.879 292.833 101.085C296.959 101.291 300.524 97.0462 300.796 91.6031Z" fill="white"/>
<path d="M291.41 91.0544L294.018 81.5439C292.834 81.0719 291.524 81.0157 290.304 81.3844C289.083 81.7531 288.024 82.525 287.299 83.5739L291.41 91.0544Z" fill="#FD7382"/>
<path d="M291.41 91.0545C291.41 91.0545 285.32 95.8047 285.167 95.4088C284.396 93.4241 284.188 91.265 284.566 89.1695C284.944 87.074 285.893 85.1236 287.309 83.5333L291.41 91.0545Z" fill="#8787D1"/>
<path d="M291.903 114.987C292.153 109.549 289.014 104.988 284.893 104.799C280.771 104.61 277.228 108.864 276.978 114.301C276.728 119.739 279.867 124.3 283.988 124.489C288.11 124.679 291.653 120.424 291.903 114.987Z" fill="white"/>
<path d="M283.899 114.623L286.507 105.112C285.323 104.64 284.013 104.584 282.793 104.953C281.572 105.321 280.513 106.093 279.788 107.142L283.899 114.623Z" fill="#FD7382"/>
<path d="M283.899 114.623C283.899 114.623 277.809 119.373 277.657 118.977C276.885 116.992 276.677 114.833 277.055 112.738C277.433 110.642 278.382 108.692 279.798 107.102L283.899 114.623Z" fill="#8787D1"/>
<path d="M286.94 138.934C287.212 133.491 284.088 128.912 279.962 128.705C275.837 128.499 272.271 132.744 271.999 138.187C271.727 143.631 274.851 148.21 278.977 148.417C283.103 148.623 286.668 144.378 286.94 138.934Z" fill="white"/>
<path d="M277.585 138.181L280.245 128.68C279.06 128.208 277.751 128.152 276.53 128.521C275.31 128.89 274.25 129.662 273.525 130.71L277.585 138.181Z" fill="#FD7382"/>
<path d="M277.585 138.181C277.585 138.181 271.495 142.931 271.343 142.535C270.572 140.55 270.364 138.391 270.742 136.296C271.12 134.2 272.069 132.25 273.485 130.66L277.585 138.181Z" fill="#8787D1"/>
<path opacity="0.71" d="M199.136 26.3888L236.671 48.2722L228.886 74.4084L190.864 53.1746L199.136 26.3888Z" fill="white"/>
<path opacity="0.71" d="M188.164 57.123L225.699 79.0064L217.913 105.143L179.892 83.9088L188.164 57.123Z" fill="white"/>
<path d="M159.581 200.827L155.278 199.639L155.948 194.402C155.948 194.402 160.617 195.183 159.581 200.827Z" fill="#42210B"/>
<path d="M153.725 185.592C153.725 185.592 152.213 203.293 152.619 203.496C153.025 203.699 157.156 204.054 157.156 203.75C157.156 203.445 157.399 195.691 157.399 195.691C157.399 195.691 159.429 199.111 159.571 200.817C159.571 200.817 164.514 198.005 165.428 195.742C166.341 193.478 163.317 184.039 162.16 183.562" fill="#FDF2D6"/>
<path d="M170.219 210.104L165.357 204.937L168.534 200.877C168.534 200.877 171.498 207.444 170.219 210.104Z" fill="#42210B"/>
<path d="M162.992 189.631L160.718 210.875C162.129 211.386 163.583 211.77 165.062 212.022C165.98 211.7 166.862 211.281 167.691 210.774L168.503 203.669C168.503 203.669 170.615 205.78 170.229 210.083C170.229 209.789 173.588 208.673 174.015 208.48C175.37 207.888 176.671 207.179 177.902 206.358C179.191 205.475 183.992 201.507 181.414 199.923C179.222 198.584 172.107 199.223 172.107 199.223L172.005 190.453" fill="#FDF2D6"/>
<path d="M154.486 113.527C154.503 113.451 154.503 113.373 154.485 113.298C154.468 113.223 154.433 113.153 154.384 113.093C154.335 113.033 154.273 112.986 154.203 112.953C154.133 112.921 154.056 112.905 153.979 112.907C154.474 111.031 155.298 109.257 156.415 107.67L176.979 105.244C176.979 105.244 181.11 119.941 182.703 145.266C183.942 164.896 174.299 194.097 174.299 194.097C174.299 194.097 164.332 196.625 159.531 191.702L159.724 187.469C157.242 187.449 154.766 187.246 152.314 186.86C149.797 162.48 151.675 137.785 154.486 113.527Z" fill="#79CC37"/>
<path d="M158.922 190.596L161.49 172.397C162.312 166.601 163.581 160.643 163.601 154.756C163.621 148.869 161.571 143.591 160.637 138.008C159.711 132.582 159.473 127.061 159.927 121.576C160.028 120.297 161.865 120.286 161.764 121.576C161.248 127.711 161.624 133.889 162.88 139.917C164.027 145.306 165.631 150.412 165.397 156.014C165.164 161.617 164.047 167.342 163.256 172.924L160.678 191.123C160.475 192.402 158.739 191.864 158.922 190.596Z" fill="#42210B"/>
<path d="M194.437 81.8586C193.757 83.0258 191.493 84.5991 190.915 85.8171C192.518 87.2076 192.863 88.6591 194.447 90.0699C194.69 89.4609 195.685 89.0549 196.213 88.7504C197.025 88.2835 197.674 87.6542 198.436 87.167C199.197 86.6798 200.324 86.3144 201.217 85.8577C201.483 85.723 201.729 85.5522 201.948 85.3502C202.185 85.2627 202.416 85.1575 202.638 85.0355C202.777 84.9579 202.898 84.8511 202.992 84.7225C203.086 84.5938 203.151 84.4464 203.183 84.2903C203.215 84.1341 203.212 83.973 203.176 83.8178C203.14 83.6626 203.07 83.5171 202.973 83.3912C203.202 83.2874 203.388 83.1071 203.499 82.8812C203.61 82.6554 203.639 82.3979 203.582 82.1529C203.539 81.9988 203.461 81.8569 203.354 81.7388C203.246 81.6206 203.112 81.5295 202.963 81.4729L202.871 81.3612C202.97 81.3016 203.052 81.2165 203.107 81.1148C203.163 81.0131 203.19 80.8984 203.186 80.7827C203.206 80.6822 203.206 80.5786 203.186 80.4782C203.125 79.2906 202.262 79.1079 201.328 79.5342L201.186 79.5951C201.725 79.1653 202.182 78.6429 202.536 78.0523C203.45 77.1591 204.038 76.2456 203.257 75.7584C202.475 75.2712 201.146 76.4588 200.587 76.8749C199.349 77.7986 198.212 78.8542 196.974 79.7778C196.974 79.6459 196.974 79.5139 196.974 79.4632V79.25C196.974 78.5903 196.873 76.4385 196.182 76.134C196.076 76.0687 195.954 76.0322 195.829 76.0282C195.704 76.0242 195.58 76.0528 195.47 76.1112C195.359 76.1695 195.266 76.2557 195.198 76.3611C195.131 76.4665 195.092 76.5877 195.086 76.7125L194.437 81.8586Z" fill="#FE6162"/>
<path d="M193.066 83.3708L183.556 89.8871C182.033 86.1465 180.078 82.5969 177.73 79.3108C173.761 73.6674 162.9 75.3523 162.9 75.3523C162.9 75.3523 156.506 79.93 154.111 84.9847C151.715 90.0394 151.857 103.143 153.908 107.508C155.958 111.872 168.757 111.354 176.014 109.598C176.158 109.63 176.307 109.629 176.451 109.597C176.595 109.564 176.73 109.501 176.847 109.411C176.964 109.321 177.06 109.207 177.128 109.076C177.196 108.946 177.235 108.802 177.242 108.654C177.242 104.865 177.212 101.072 177.151 97.2763C181.769 102.981 189.108 99.1033 193.696 94.6982C195.962 92.7333 198.004 90.5241 199.786 88.1109C198.974 85.6038 193.066 83.3708 193.066 83.3708Z" fill="#FAB965"/>
<path d="M173.447 64.2787C173.447 64.2787 174.046 72.9874 171.417 74.9971C168.788 77.0068 164.373 73.6878 164.373 73.6878" fill="#FE6162"/>
<path d="M171.274 59.965C172.443 60.8711 173.353 62.0681 173.913 63.4363C176.106 68.9173 170.209 75.7178 164.941 76.7734L162.211 75.9106C162.211 75.9106 158.597 70.592 158.597 67.6079C158.56 64.7275 159.653 61.9474 161.642 59.8635C164.474 57.2245 168.493 57.7421 171.274 59.965Z" fill="#1A1A1A"/>
<path d="M164.941 76.7327C164.941 76.7327 174.796 105.153 167.377 109.842C159.957 114.531 145.453 110.258 148.284 103.214C151.116 96.17 162.21 75.87 162.21 75.87" fill="#1A1A1A"/>
<path opacity="0.71" d="M244.913 52.7787L265.771 64.9385L257.986 91.0747L236.671 79.1687L244.913 52.7787Z" fill="white"/>
<path opacity="0.71" d="M252.84 99.1947L233.93 88.5068C232.712 87.8166 231.708 89.7349 232.915 90.415L251.825 101.113C253.063 101.793 254.078 99.8849 252.84 99.1947Z" fill="white"/>
<path opacity="0.71" d="M251.48 103.468L232.54 92.78C231.322 92.0898 230.317 94.0081 231.525 94.6882L250.434 105.376C251.673 106.066 252.688 104.158 251.48 103.468Z" fill="white"/>
<path opacity="0.71" d="M250.272 108.005L231.363 97.3169C230.145 96.6267 229.14 98.5451 230.348 99.2251L249.257 109.913C250.475 110.603 251.48 108.685 250.272 108.005Z" fill="white"/>
<path opacity="0.71" d="M249.084 112.095L230.175 101.407C228.957 100.717 227.952 102.636 229.16 103.316L248.069 114.004C249.277 114.684 250.292 112.745 249.084 112.095Z" fill="white"/>
<path opacity="0.71" d="M273.759 75.3828L258.118 125.788C256.951 129.533 262.898 130.863 264.055 127.138L279.697 76.7328C280.854 72.9773 274.906 71.6578 273.759 75.3828Z" fill="white"/>
<path d="M338.455 69.8815L377.238 92.719C377.962 93.145 378.522 93.802 378.827 94.5843C379.133 95.3666 379.167 96.229 378.923 97.0328L362.988 149.701C362.826 150.239 362.545 150.734 362.166 151.149C361.787 151.564 361.319 151.889 360.797 152.098C360.276 152.308 359.714 152.397 359.153 152.36C358.592 152.323 358.047 152.16 357.557 151.883L318.49 129.848C317.747 129.429 317.168 128.77 316.851 127.978C316.534 127.186 316.496 126.31 316.744 125.493L332.984 72.0333C333.148 71.4919 333.432 70.9945 333.816 70.5786C334.199 70.1627 334.672 69.8391 335.198 69.632C335.725 69.425 336.291 69.3399 336.855 69.3831C337.419 69.4263 337.966 69.5967 338.455 69.8815V69.8815Z" fill="#053855"/>
<path d="M337.745 74.8246L374.132 96.2513C374.372 96.3934 374.556 96.6115 374.658 96.8708C374.759 97.1301 374.77 97.4158 374.691 97.6824L360.004 146.24C359.949 146.418 359.855 146.582 359.728 146.719C359.602 146.857 359.446 146.964 359.273 147.033C359.099 147.102 358.913 147.131 358.727 147.119C358.54 147.106 358.359 147.052 358.197 146.961L321.555 126.245C321.31 126.105 321.12 125.886 321.015 125.625C320.91 125.363 320.896 125.073 320.977 124.803L335.928 75.5351C335.983 75.3562 336.079 75.192 336.206 75.0549C336.334 74.9177 336.491 74.8111 336.665 74.7428C336.84 74.6746 337.027 74.6465 337.214 74.6607C337.401 74.6748 337.582 74.7309 337.745 74.8246V74.8246Z" fill="#A11741"/>
<g opacity="0.71">
<path opacity="0.71" d="M331.096 120.601L352.939 133.654C353.112 133.753 353.246 133.906 353.321 134.09C353.397 134.274 353.409 134.478 353.355 134.669C353.241 135.005 353.021 135.294 352.728 135.494C352.435 135.693 352.085 135.792 351.731 135.775C351.513 135.768 351.3 135.705 351.112 135.593L330.213 123.098L331.096 120.601Z" fill="white"/>
</g>
<path d="M355.547 104.909L360.673 108.015L354.614 131.776L349.549 128.67L355.547 104.909Z" fill="#8787D1"/>
<path d="M347.935 95.7438L353.173 98.8497L346.149 126.793L340.84 123.545L347.935 95.7438Z" fill="#F8997C"/>
<path d="M340.658 87.9485L345.286 90.9123L337.511 121.728L332.781 118.845L340.658 87.9485Z" fill="white"/>
<defs>
<linearGradient id="paint0_linear_128:450" x1="339.541" y1="131.614" x2="330.183" y2="145.57" gradientUnits="userSpaceOnUse">
<stop stop-color="#1B1464"/>
<stop offset="1" stop-color="white"/>
</linearGradient>
<linearGradient id="paint1_linear_128:450" x1="33080.8" y1="12766.9" x2="32279.2" y2="15500.5" gradientUnits="userSpaceOnUse">
<stop stop-color="#1B1464"/>
<stop offset="1" stop-color="white"/>
</linearGradient>
<linearGradient id="paint2_linear_128:450" x1="11024.4" y1="8634.35" x2="9881.85" y2="10693.6" gradientUnits="userSpaceOnUse">
<stop stop-color="#1B1464"/>
<stop offset="1" stop-color="white"/>
</linearGradient>
<linearGradient id="paint3_linear_128:450" x1="2678.93" y1="4677.94" x2="2144.05" y2="5653.59" gradientUnits="userSpaceOnUse">
<stop stop-color="#1B1464"/>
<stop offset="1" stop-color="white"/>
</linearGradient>
</defs>
</svg>
