<svg width="573" height="432" viewBox="0 0 573 432" fill="none" xmlns="http://www.w3.org/2000/svg">
<path d="M69.8774 293.164V153.108C69.8766 150.594 70.5517 148.127 71.832 145.964C73.1123 143.8 74.9507 142.022 77.1545 140.814L301.856 17.6953C303.952 16.546 306.306 15.9519 308.695 15.9695C311.085 15.9871 313.43 16.6157 315.508 17.7956L521.588 134.752C523.812 135.996 525.655 137.824 526.917 140.039C528.18 142.253 528.813 144.771 528.75 147.319C528.005 174.545 525.713 258.802 525.713 263.731" fill="#A11741"/>
<path opacity="0.61" d="M69.8774 293.164V153.108C69.8766 150.594 70.5517 148.127 71.832 145.964C73.1123 143.8 74.9507 142.022 77.1545 140.814L301.856 17.6953C303.952 16.546 306.306 15.9519 308.695 15.9695C311.085 15.9871 313.43 16.6157 315.508 17.7956L521.588 134.752C523.812 135.996 525.655 137.824 526.917 140.039C528.18 142.253 528.813 144.771 528.75 147.319C528.005 174.545 525.713 258.802 525.713 263.731" fill="black"/>
<path d="M76.5671 281.156L301.899 152.421C307.241 149.368 313.291 147.774 319.443 147.796C325.595 147.819 331.633 149.458 336.953 152.549L519.052 258.372C521.052 259.543 522.711 261.218 523.863 263.229C525.016 265.24 525.622 267.518 525.622 269.836C525.622 272.154 525.016 274.432 523.863 276.443C522.711 278.454 521.052 280.128 519.052 281.299L297.96 411.281C292.731 414.357 286.782 415.995 280.716 416.028C274.65 416.06 268.684 414.487 263.422 411.468L76.5384 304.212C74.5097 303.047 72.8247 301.366 71.6539 299.341C70.483 297.315 69.868 295.016 69.8709 292.676C69.8738 290.336 70.4946 288.038 71.6704 286.015C72.8463 283.992 74.5355 282.316 76.5671 281.156Z" fill="#E59950"/>
<path d="M316.969 154.813C315.064 154.613 297.731 146.932 283.191 149.698C279.667 150.371 253.782 181.065 254.541 186.051C255.3 191.038 269.024 208.549 269.024 208.549L305.123 174.158" fill="#A11741"/>
<path opacity="0.61" d="M301.527 176.709L304.091 174.273L315.981 154.885C314.104 154.684 297.43 147.319 283.033 149.626C283.134 160.789 291.901 170.948 301.527 176.709Z" fill="black"/>
<path d="M354.773 232.063C352.395 222.348 348.699 205.267 345.777 201.57C341.336 195.953 329.36 183.186 329.36 183.186L320.594 201.227L333.371 214.352L341.136 235.202C346.049 234.156 350.447 234.628 354.773 232.063Z" fill="white"/>
<path d="M341.966 229.943C341.966 229.943 336.107 245.791 338.313 247.066C342.052 249.216 342.826 237.924 344.86 240.288C346.894 242.653 348.599 254.503 352.194 253.085C355.79 251.666 358.068 234.184 351.407 223.38C344.745 212.575 341.966 229.943 341.966 229.943Z" fill="white"/>
<path d="M238.812 248.514C238.812 248.514 230.561 248.299 229.143 252.812C227.725 257.326 225.834 281.471 234.142 282.675C242.451 283.879 243.983 260.536 243.983 260.536" fill="white"/>
<path d="M219.33 214.983C218.213 214.753 214.546 220.929 213.987 221.861C212.328 224.624 211.087 227.618 210.305 230.745C209.217 235.187 208.3 241.349 210.076 245.719C213.041 253.056 221.909 246.407 224.401 241.936C225.448 239.926 226.283 237.813 226.894 235.631C227.312 232.5 227.542 229.347 227.581 226.188V217.433C224.897 216.409 222.138 215.59 219.33 214.983Z" fill="white"/>
<path d="M285.555 179.517C285.555 179.517 269.124 207.402 267.605 217.705C266.087 228.008 259.297 262.743 267.004 264.62C274.711 266.497 282.532 264.376 287.059 246.823C290.067 235.359 289.709 217.347 289.709 217.347L285.555 179.517Z" fill="white"/>
<path d="M326.896 193.718C327.942 190.264 328.673 186.739 329.375 183.2L329.031 182.698L308.56 169.329C308.56 169.329 295.983 174.445 293.763 182.111C291.542 189.777 300.567 220.714 300.567 220.714L324.232 200.653C325.253 198.395 326.143 196.079 326.896 193.718Z" fill="white"/>
<path d="M269.396 245.332L238.826 248.513C238.826 248.513 232.366 258.315 240.99 265.852C240.99 265.852 270.27 269.076 278.779 262.657C287.288 256.237 269.396 245.332 269.396 245.332Z" fill="white"/>
<path d="M248.596 240.661C257.391 236.907 285.311 222.291 285.311 222.291L248.596 240.661Z" fill="white"/>
<path d="M248.596 240.661C241.606 241.793 223.914 236.52 223.914 236.52C209.589 230.673 226.908 217.06 226.908 217.06C226.908 217.06 241.104 220.127 247.894 217.963C254.684 215.799 277.332 193.302 277.332 193.302C277.332 193.302 279.696 224.827 276.587 229.842C273.479 234.858 248.596 240.661 248.596 240.661Z" fill="white"/>
<path d="M310.566 226.16C310.566 226.16 323.673 225.844 323.673 228.696C323.673 231.547 318.187 232.421 318.187 232.421C318.187 232.421 325.751 244.057 322.298 248.184C318.846 252.311 310.065 250.82 308.532 249.058C306.999 247.295 302.344 235.818 302.344 235.818" fill="white"/>
<path d="M264.053 245.332C264.053 245.332 273.206 253.557 276.2 254.431C279.194 255.306 285.139 253.5 285.139 253.5C285.139 253.5 280.842 258.128 276.2 258.343C271.559 258.558 264.053 245.332 264.053 245.332Z" fill="#57464E"/>
<path d="M245.172 242.08C243.335 238.167 242.062 234.013 241.391 229.742C241.233 226.203 243.31 218.651 243.31 218.651L245.258 218.479C245.258 218.479 242.938 228.753 243.826 230.516C244.714 232.278 248.553 240.661 248.553 240.661C248.553 240.661 248.754 244.487 245.172 242.08Z" fill="#57464E"/>
<path d="M324.332 200.753L299.622 198.805C299.622 198.805 299.478 211.544 302.014 215.269C304.549 218.995 304.42 217.232 304.42 217.232L324.332 200.753Z" fill="#A8A8A8"/>
<path d="M308.546 169.329C308.546 169.329 289.365 174.875 285.554 180.793C281.744 186.711 281.486 211.959 285.554 218.622C289.623 225.285 302.343 237.15 302.343 237.15C302.343 237.15 309.921 230.602 310.566 227.435C310.566 227.435 302.071 213.406 301.054 209.81C300.037 206.213 308.546 169.329 308.546 169.329Z" fill="white"/>
<path d="M285.554 218.551C285.554 218.551 294.923 213.378 302.086 212.231C302.086 212.231 292.946 209.265 285.554 218.551Z" fill="#57464E"/>
<path d="M318.216 183.2C318.216 183.2 332.168 183.802 337.698 173.757C343.227 163.712 335.692 150.343 323.545 149.254C311.397 148.165 304.521 159.284 304.521 163.927C304.521 168.57 307.988 180.578 318.216 183.2Z" fill="white"/>
<path d="M309.42 171.163C309.42 171.163 309.878 184.977 324.977 184.06C340.075 183.143 341.708 169.974 339.187 166.377C336.666 162.781 318.502 154.384 309.42 171.163Z" fill="url(#paint0_linear_121:305)"/>
<path opacity="0.54" d="M337.325 169.831C337.231 169.569 337.042 169.352 336.794 169.224C336.547 169.096 336.261 169.066 335.993 169.14C335.724 169.214 335.494 169.388 335.348 169.625C335.202 169.862 335.151 170.145 335.205 170.418C335.509 171.403 335.55 172.45 335.324 173.456C335.098 174.461 334.612 175.39 333.916 176.15C332.956 177.196 334.518 178.758 335.477 177.712C336.442 176.671 337.12 175.398 337.444 174.016C337.768 172.634 337.727 171.192 337.325 169.831Z" fill="white"/>
<path opacity="0.54" d="M331.609 178.299C331.317 178.299 331.036 178.416 330.829 178.622C330.623 178.829 330.506 179.11 330.506 179.403C330.506 179.695 330.623 179.976 330.829 180.183C331.036 180.39 331.317 180.506 331.609 180.506C331.902 180.506 332.182 180.39 332.389 180.183C332.596 179.976 332.712 179.695 332.712 179.403C332.712 179.11 332.596 178.829 332.389 178.622C332.182 178.416 331.902 178.299 331.609 178.299Z" fill="white"/>
<path d="M308.675 161.09L328.802 136.515C328.802 136.515 329.36 136.271 329.16 136.887L309.42 161.548L308.675 161.09Z" fill="#A8A8A8"/>
<path d="M311.984 161.09C311.984 161.09 309.749 158.367 308.689 158.467C307.629 158.568 305.022 161.806 305.495 162.651C305.968 163.497 307.443 165.059 308.188 164.873C308.933 164.686 311.984 161.09 311.984 161.09Z" fill="#A8A8A8"/>
<path d="M310.852 159.757C309.42 161.19 307.987 162.48 306.555 163.812C307.157 164.443 307.873 164.973 308.331 164.873C309.076 164.686 312.142 161.09 312.142 161.09C312.142 161.09 311.583 160.416 310.852 159.757Z" fill="#898989"/>
<path d="M303.088 218.551L299.536 221.087L301.312 223.265L304.764 220.915L303.088 218.551Z" fill="#57464E"/>
<path d="M305.61 223.824C305.42 223.824 305.237 223.899 305.103 224.034C304.969 224.168 304.893 224.35 304.893 224.54C304.893 224.73 304.969 224.913 305.103 225.047C305.237 225.181 305.42 225.257 305.61 225.257C305.8 225.257 305.982 225.181 306.116 225.047C306.25 224.913 306.326 224.73 306.326 224.54C306.326 224.35 306.25 224.168 306.116 224.034C305.982 223.899 305.8 223.824 305.61 223.824Z" fill="#777777"/>
<path d="M307.787 226.231C307.597 226.231 307.415 226.307 307.281 226.441C307.146 226.575 307.071 226.758 307.071 226.948C307.071 227.138 307.146 227.32 307.281 227.454C307.415 227.589 307.597 227.664 307.787 227.664C307.977 227.664 308.159 227.589 308.294 227.454C308.428 227.32 308.503 227.138 308.503 226.948C308.503 226.758 308.428 226.575 308.294 226.441C308.159 226.307 307.977 226.231 307.787 226.231Z" fill="#777777"/>
<path d="M232.065 219.783C232.065 219.783 223.957 226.417 224.014 230.329C224.072 234.241 226.564 242.266 226.564 242.266C226.564 242.266 227.352 233.396 228.47 230.673C230.268 227.255 232.273 223.948 234.472 220.772L232.065 219.783Z" fill="#57464E"/>
<path d="M238.812 248.513C238.812 248.513 236.792 254.747 237.752 257.111C238.712 259.475 243.267 266.712 243.267 266.712L246.634 266.368C246.634 266.368 240.46 257.871 240.073 256.051C239.686 254.231 238.812 248.513 238.812 248.513Z" fill="#57464E"/>
<path d="M220.505 213.664C220.662 213.406 217.41 219.396 217.969 219.797C220.178 220.539 222.426 221.161 224.702 221.66L228.212 215.756L220.505 213.664Z" fill="#2D1E45"/>
<path d="M285.555 180.721C285.555 180.721 281.644 204.307 282.604 208.276C283.563 212.246 289.523 223.824 289.523 223.824L289.279 232.421C289.279 232.421 279.724 219.081 279.108 211.83C278.492 204.579 285.555 180.721 285.555 180.721Z" fill="#A8A8A8"/>
<path d="M265.27 232.594C265.27 232.594 265.8 219.253 266.287 215.599C266.774 211.945 269.84 200.496 269.84 200.496L258.781 210.397L256.274 237.064L265.27 232.594Z" fill="#A8A8A8"/>
<path d="M412.188 162.035C413.414 162.035 414.408 161.041 414.408 159.814C414.408 158.588 413.414 157.593 412.188 157.593C410.961 157.593 409.967 158.588 409.967 159.814C409.967 161.041 410.961 162.035 412.188 162.035Z" fill="white"/>
<path d="M309.907 121.942C309.717 121.942 309.535 122.017 309.401 122.152C309.266 122.286 309.191 122.468 309.191 122.658C309.191 122.848 309.266 123.031 309.401 123.165C309.535 123.299 309.717 123.375 309.907 123.375C310.097 123.375 310.279 123.299 310.414 123.165C310.548 123.031 310.623 122.848 310.623 122.658C310.623 122.468 310.548 122.286 310.414 122.152C310.279 122.017 310.097 121.942 309.907 121.942Z" fill="white"/>
<path d="M213.443 147.405C213.253 147.405 213.07 147.481 212.936 147.615C212.802 147.749 212.726 147.931 212.726 148.122C212.726 148.312 212.802 148.494 212.936 148.628C213.07 148.762 213.253 148.838 213.443 148.838C213.633 148.838 213.815 148.762 213.949 148.628C214.083 148.494 214.159 148.312 214.159 148.122C214.159 147.931 214.083 147.749 213.949 147.615C213.815 147.481 213.633 147.405 213.443 147.405Z" fill="white"/>
<path d="M171.9 215.513C171.71 215.513 171.528 215.588 171.394 215.723C171.259 215.857 171.184 216.039 171.184 216.229C171.184 216.419 171.259 216.601 171.394 216.736C171.528 216.87 171.71 216.946 171.9 216.946C172.09 216.946 172.272 216.87 172.407 216.736C172.541 216.601 172.616 216.419 172.616 216.229C172.616 216.039 172.541 215.857 172.407 215.723C172.272 215.588 172.09 215.513 171.9 215.513Z" fill="white"/>
<path d="M237.093 206.628C236.903 206.628 236.721 206.704 236.587 206.838C236.452 206.973 236.377 207.155 236.377 207.345C236.377 207.535 236.452 207.717 236.587 207.851C236.721 207.986 236.903 208.061 237.093 208.061C237.283 208.061 237.465 207.986 237.599 207.851C237.734 207.717 237.809 207.535 237.809 207.345C237.809 207.155 237.734 206.973 237.599 206.838C237.465 206.704 237.283 206.628 237.093 206.628Z" fill="white"/>
<path d="M221.694 164.572C221.504 164.572 221.322 164.647 221.187 164.782C221.053 164.916 220.978 165.098 220.978 165.288C220.978 165.478 221.053 165.661 221.187 165.795C221.322 165.929 221.504 166.005 221.694 166.005C221.884 166.005 222.066 165.929 222.2 165.795C222.335 165.661 222.41 165.478 222.41 165.288C222.41 165.098 222.335 164.916 222.2 164.782C222.066 164.647 221.884 164.572 221.694 164.572Z" fill="white"/>
<path d="M392.09 168.254V168.842C392.09 169.032 392.165 169.214 392.299 169.348C392.434 169.483 392.616 169.558 392.806 169.558C392.996 169.558 393.178 169.483 393.312 169.348C393.447 169.214 393.522 169.032 393.522 168.842V168.254C393.522 168.064 393.447 167.882 393.312 167.748C393.178 167.613 392.996 167.538 392.806 167.538C392.616 167.538 392.434 167.613 392.299 167.748C392.165 167.882 392.09 168.064 392.09 168.254Z" fill="white"/>
<path d="M450.822 225.572C450.632 225.572 450.45 225.648 450.316 225.782C450.181 225.916 450.106 226.098 450.106 226.288C450.106 226.479 450.181 226.661 450.316 226.795C450.45 226.929 450.632 227.005 450.822 227.005C451.012 227.005 451.194 226.929 451.328 226.795C451.463 226.661 451.538 226.479 451.538 226.288C451.538 226.098 451.463 225.916 451.328 225.782C451.194 225.648 451.012 225.572 450.822 225.572Z" fill="white"/>
<path d="M369.714 137.933C369.524 137.933 369.342 138.009 369.207 138.143C369.073 138.278 368.998 138.46 368.998 138.65C368.998 138.84 369.073 139.022 369.207 139.156C369.342 139.291 369.524 139.366 369.714 139.366C369.904 139.366 370.086 139.291 370.22 139.156C370.355 139.022 370.43 138.84 370.43 138.65C370.43 138.46 370.355 138.278 370.22 138.143C370.086 138.009 369.904 137.933 369.714 137.933Z" fill="white"/>
<path d="M392.806 253.414C392.616 253.414 392.434 253.49 392.299 253.624C392.165 253.758 392.09 253.941 392.09 254.131C392.09 254.321 392.165 254.503 392.299 254.637C392.434 254.772 392.616 254.847 392.806 254.847C392.996 254.847 393.178 254.772 393.312 254.637C393.447 254.503 393.522 254.321 393.522 254.131C393.522 253.941 393.447 253.758 393.312 253.624C393.178 253.49 392.996 253.414 392.806 253.414Z" fill="white"/>
<path d="M172.559 289.539C172.369 289.539 172.187 289.614 172.053 289.748C171.918 289.883 171.843 290.065 171.843 290.255C171.843 290.445 171.918 290.627 172.053 290.762C172.187 290.896 172.369 290.972 172.559 290.972C172.749 290.972 172.931 290.896 173.065 290.762C173.2 290.627 173.275 290.445 173.275 290.255C173.275 290.065 173.2 289.883 173.065 289.748C172.931 289.614 172.749 289.539 172.559 289.539Z" fill="white"/>
<path d="M152.934 210.397L152.346 209.81C152.212 209.675 152.029 209.599 151.838 209.599C151.647 209.599 151.464 209.675 151.329 209.81C151.194 209.945 151.119 210.128 151.119 210.319C151.119 210.509 151.194 210.692 151.329 210.827L151.917 211.415C152.052 211.55 152.234 211.625 152.425 211.625C152.616 211.625 152.799 211.55 152.934 211.415C153.069 211.28 153.144 211.097 153.144 210.906C153.144 210.715 153.069 210.532 152.934 210.397Z" fill="white"/>
<path d="M124.628 262.298C124.438 262.298 124.255 262.374 124.121 262.508C123.987 262.643 123.911 262.825 123.911 263.015C123.911 263.205 123.987 263.387 124.121 263.521C124.255 263.656 124.438 263.731 124.628 263.731C124.818 263.731 125 263.656 125.134 263.521C125.268 263.387 125.344 263.205 125.344 263.015C125.344 262.825 125.268 262.643 125.134 262.508C125 262.374 124.818 262.298 124.628 262.298Z" fill="white"/>
<path d="M261.961 344.019C261.771 344.019 261.589 344.095 261.455 344.229C261.321 344.363 261.245 344.545 261.245 344.736C261.245 344.926 261.321 345.108 261.455 345.242C261.589 345.377 261.771 345.452 261.961 345.452C262.151 345.452 262.334 345.377 262.468 345.242C262.602 345.108 262.678 344.926 262.678 344.736C262.678 344.545 262.602 344.363 262.468 344.229C262.334 344.095 262.151 344.019 261.961 344.019Z" fill="white"/>
<path d="M302.802 337.513C302.612 337.513 302.43 337.589 302.295 337.723C302.161 337.858 302.086 338.04 302.086 338.23C302.086 338.42 302.161 338.602 302.295 338.737C302.43 338.871 302.612 338.946 302.802 338.946C302.992 338.946 303.174 338.871 303.308 338.737C303.443 338.602 303.518 338.42 303.518 338.23C303.518 338.04 303.443 337.858 303.308 337.723C303.174 337.589 302.992 337.513 302.802 337.513Z" fill="white"/>
<path d="M404.051 310.861C403.861 310.861 403.679 310.936 403.545 311.07C403.41 311.205 403.335 311.387 403.335 311.577C403.335 311.767 403.41 311.949 403.545 312.084C403.679 312.218 403.861 312.294 404.051 312.294C404.241 312.294 404.423 312.218 404.557 312.084C404.692 311.949 404.767 311.767 404.767 311.577C404.767 311.387 404.692 311.205 404.557 311.07C404.423 310.936 404.241 310.861 404.051 310.861Z" fill="white"/>
<path d="M453.787 274.149C453.597 274.149 453.415 274.224 453.281 274.359C453.147 274.493 453.071 274.675 453.071 274.865C453.071 275.055 453.147 275.238 453.281 275.372C453.415 275.506 453.597 275.582 453.787 275.582C453.977 275.582 454.159 275.506 454.294 275.372C454.428 275.238 454.504 275.055 454.504 274.865C454.504 274.675 454.428 274.493 454.294 274.359C454.159 274.224 453.977 274.149 453.787 274.149Z" fill="white"/>
<path d="M382.735 219.654C382.545 219.654 382.363 219.73 382.229 219.864C382.095 219.998 382.019 220.181 382.019 220.371C382.019 220.561 382.095 220.743 382.229 220.877C382.363 221.011 382.545 221.087 382.735 221.087C382.925 221.087 383.107 221.011 383.242 220.877C383.376 220.743 383.452 220.561 383.452 220.371C383.452 220.181 383.376 219.998 383.242 219.864C383.107 219.73 382.925 219.654 382.735 219.654Z" fill="white"/>
<path d="M132.893 299.612C132.703 299.612 132.521 299.688 132.387 299.822C132.252 299.956 132.177 300.139 132.177 300.329C132.177 300.519 132.252 300.701 132.387 300.835C132.521 300.97 132.703 301.045 132.893 301.045C133.083 301.045 133.265 300.97 133.399 300.835C133.534 300.701 133.609 300.519 133.609 300.329C133.609 300.139 133.534 299.956 133.399 299.822C133.265 299.688 133.083 299.612 132.893 299.612Z" fill="white"/>
<path d="M253.08 117.886C248.467 117.886 248.467 125.051 253.08 125.051C257.693 125.051 257.693 117.886 253.08 117.886Z" fill="white"/>
<path d="M177.1 309.041C183.999 309.041 189.591 306.93 189.591 304.326C189.591 301.723 183.999 299.612 177.1 299.612C170.201 299.612 164.609 301.723 164.609 304.326C164.609 306.93 170.201 309.041 177.1 309.041Z" fill="#CC7A36"/>
<path d="M287.918 310.818C309.445 310.818 326.897 307.911 326.897 304.326C326.897 300.741 309.445 297.835 287.918 297.835C266.391 297.835 248.94 300.741 248.94 304.326C248.94 307.911 266.391 310.818 287.918 310.818Z" fill="#CC7A36"/>
<defs>
<linearGradient id="paint0_linear_121:305" x1="354.157" y1="172.052" x2="313.13" y2="172.839" gradientUnits="userSpaceOnUse">
<stop stop-color="white"/>
<stop offset="0.03" stop-color="#F7931E"/>
<stop offset="1" stop-color="#1B1464"/>
</linearGradient>
</defs>
</svg>
