<svg width="500" height="377" viewBox="0 0 500 377" fill="none" xmlns="http://www.w3.org/2000/svg">
<path d="M245.3 361.82L29.675 234.331C22.8125 230.479 16.925 224.139 23.6125 220L240 95.2247C243.25 93.2114 248.175 91.8983 251.475 93.8116L477.85 225.227C484.712 229.216 485.95 240.358 479.1 244.348L273.75 361.62C269.435 364.127 264.541 365.464 259.552 365.499C254.562 365.534 249.65 364.266 245.3 361.82Z" fill="#A11741"/>
<path d="M133.263 294.856L142.625 289.566C141.902 288.76 141.13 288 140.313 287.29C136.563 289.041 132.975 290.904 129.35 292.78C130.2 293.73 132.413 293.918 133.263 294.856Z" fill="#CD1D53"/>
<path d="M417.813 240.296C400.65 250.563 383.663 261.154 366.2 270.883L379.263 278.161L429.588 250.312L417.813 240.296Z" fill="url(#paint0_linear_88:302)"/>
<path d="M196.213 187.049L88.6875 242.597L261.1 344.138L358.825 289.603L324.45 261.104L196.213 187.049Z" fill="url(#paint1_linear_88:302)"/>
<path d="M291.638 203.356V250.7H295.138L295.9 202.131" fill="#B38E7E"/>
<path d="M311.562 185.136L318.575 236.62H315.062L307.737 187.05" fill="#B38E7E"/>
<path d="M240.813 221.138C240.813 221.138 237.55 231.843 236.825 232.931C236.1 234.018 225.4 241.096 225.575 243.272C225.75 245.448 229.8 246.361 232.313 246.173C234.825 245.986 249.338 239.921 250.25 238.158C251.163 236.394 251.163 221.126 251.163 221.126L240.813 221.138Z" fill="#5C2D1D"/>
<path d="M258.025 233.668C258.025 233.668 254.763 244.373 254.038 245.461C253.313 246.548 242.613 253.626 242.788 255.802C242.963 257.978 247.013 258.891 249.525 258.703C252.038 258.516 266.55 252.451 267.463 250.688C268.375 248.924 268.375 233.656 268.375 233.656L258.025 233.668Z" fill="#5C2D1D"/>
<path d="M313.463 136.204C312.538 138.805 307.288 178.296 307.288 178.296L302.013 176.533L308.888 136.004" fill="#B38E7E"/>
<path d="M311.563 185.136L311.65 178.784L306.025 180.709L307.738 187.05" fill="#A9CBF8"/>
<path d="M298.838 175.295C298.838 175.295 312.962 180.722 311.55 186.062C310.138 191.401 298.85 204.482 291.637 203.356C284.425 202.231 275.587 195.941 275.587 195.941" fill="#DED6CC"/>
<path d="M298.838 168.792C298.838 168.792 312.962 174.219 311.55 179.559C310.138 184.899 298.85 197.979 291.637 196.853C284.425 195.728 275.587 189.438 275.587 189.438" fill="#E8E5D6"/>
<path d="M299.725 117.109C299.725 117.109 318.075 122.623 319.463 130.489C320.85 138.355 321.25 152.848 301.875 147.233C282.5 141.619 291.637 127.038 291.637 127.038" fill="#E8E5D6"/>
<path d="M286.25 135.979C286.25 135.979 291.063 156.237 287.5 167.091C283.938 177.946 263.613 186.624 263.613 186.624L255 230.254C243.625 233.831 233.85 227.753 233.85 227.753C233.85 227.753 236.213 189.263 239.825 179.496C243.438 169.73 271.375 150.535 271.375 150.535" fill="#895851"/>
<path d="M287.038 161.764C287.038 161.764 259.088 180.997 255.488 190.713C251.888 200.43 249.513 238.97 249.513 238.97C249.513 238.97 259.288 245.048 270.663 241.471L279.225 197.854C279.225 197.854 293.763 193.702 297.325 182.848C300.888 171.993 299.425 155.524 299.425 155.524" fill="#895851"/>
<path d="M298.137 162.164C302.9 150.56 304.962 120.41 302.012 116.783C295.9 109.28 283 110.181 283 110.181C283 110.181 275.5 105.691 269.25 111.006C264.575 114.958 267.9 139.23 269.25 154.661C277.4 162.177 286.425 164.278 298.137 162.164Z" fill="#444F4B"/>
<path d="M278.112 165.628C273.112 170.63 267.7 175.495 263.012 180.847C258.95 185.499 257.35 191.401 255.775 197.254C252.1 210.872 250.462 224.927 248.825 238.908C248.725 239.758 250.075 239.746 250.15 238.908C251.725 225.452 253.3 211.947 256.725 198.817C258.4 192.377 260.087 185.974 264.687 180.972C269.287 175.97 274.262 171.356 279.037 166.579C279.163 166.456 279.236 166.288 279.238 166.112C279.24 165.936 279.173 165.767 279.05 165.641C278.927 165.515 278.76 165.443 278.584 165.44C278.408 165.438 278.238 165.506 278.112 165.628Z" fill="#5C2D1D"/>
<path d="M302.3 143.119C302.3 143.119 300.362 161.064 296.6 165.178C292.837 169.292 275.937 176.57 275.937 176.57C275.937 176.57 271.787 169.28 267.4 167.567C267.4 167.567 284.262 158.088 284.687 156.312" fill="#444F4B"/>
<path d="M289.888 130.576C289.613 134.428 289.213 138.28 288.638 142.106C288.334 145.541 287.71 148.941 286.775 152.26C285.525 155.774 280.838 157.862 277.85 159.763C274.863 161.664 271.525 163.802 268.312 165.753C267.587 166.203 268.313 167.341 268.988 166.904C272.729 164.619 276.429 162.277 280.088 159.876C282.588 158.238 286.338 156.562 287.663 153.698C289.1 150.585 289.313 146.383 289.825 143.019C290.45 138.88 290.9 134.703 291.2 130.514C291.25 129.726 290 129.726 289.888 130.576Z" fill="#27302D"/>
<path d="M296.738 324.543L358.825 289.603L351.125 226.015C351.125 226.015 350.85 216.937 338.475 210.059C327.713 204.081 226.913 146.708 200.8 131.852C198.951 130.797 196.843 130.281 194.715 130.363C192.588 130.445 190.526 131.121 188.763 132.315C175.013 141.606 141.775 164.315 139.375 168.242C136.35 173.244 130.625 205.082 130.625 205.082L127.888 226.428L147.138 213.923L294.263 295.631L296.738 324.543Z" fill="#68E1FD"/>
<path d="M147.088 213.948L130.575 205.119L126.288 227.466L147.088 213.948Z" fill="#60433D"/>
<path opacity="0.59" d="M140 160.214L192.975 129.551C193.699 129.134 194.52 128.915 195.356 128.915C196.192 128.915 197.013 129.134 197.737 129.551L348.987 216.236C349.48 216.525 349.889 216.938 350.172 217.434C350.456 217.93 350.606 218.491 350.606 219.062C350.606 219.634 350.456 220.195 350.172 220.691C349.889 221.187 349.48 221.6 348.987 221.889L297.187 253.014C296.308 253.53 295.307 253.803 294.287 253.803C293.268 253.803 292.267 253.53 291.387 253.014L140 165.891C139.502 165.604 139.088 165.19 138.8 164.692C138.512 164.193 138.36 163.628 138.36 163.052C138.36 162.477 138.512 161.911 138.8 161.413C139.088 160.915 139.502 160.501 140 160.214Z" fill="white"/>
<path d="M406.175 178.934L411.475 250.463C411.475 250.463 420.55 256.903 429.637 250.463L433.612 178.934H406.175Z" fill="#68E1FD"/>
<path opacity="0.59" d="M422.5 229.379C419.581 236.62 415.853 243.509 411.387 249.912V250.463C411.387 250.463 420.463 256.903 429.55 250.463L432.862 192.251C430.872 204.99 427.394 217.451 422.5 229.379Z" fill="white"/>
<path d="M419.887 186.299C427.461 186.299 433.6 182.542 433.6 177.908C433.6 173.274 427.461 169.517 419.887 169.517C412.314 169.517 406.175 173.274 406.175 177.908C406.175 182.542 412.314 186.299 419.887 186.299Z" fill="#524235"/>
<path d="M419.888 177.908C421.9 180.859 412.687 128.126 406.137 121.41C406.175 121.41 398.75 146.796 419.888 177.908Z" fill="#AFB14E"/>
<path d="M419.887 177.908C419.887 177.908 413.887 121.785 433.637 103.891C433.6 103.891 437.5 148.284 419.887 177.908Z" fill="#BDC361"/>
<path d="M281.525 213.61L308.95 197.416L287.512 185.024L259.312 201.593L281.525 213.61Z" fill="white"/>
<path opacity="0.32" d="M211.475 164.615L175.138 184.861C181.213 188.7 205.638 201.843 211.5 205.982L249 181.947L242.813 166.941L211.475 164.615Z" fill="url(#paint2_linear_88:302)"/>
<path d="M242.4 185.887L268.85 170.468L234.375 150.647L207.35 164.565" fill="#B3B3B3"/>
<path d="M235.55 155.462C235.55 155.462 242.487 186.262 242.4 185.886C242.312 185.511 208.137 167.129 207.912 166.479C207.687 165.828 198.875 134.578 198.875 134.578L235.55 155.462Z" fill="white"/>
<path d="M231.013 153.886L234.538 151.76L243.288 159.05L236.213 162.94L231.013 153.886Z" fill="#FFE0CE"/>
<path d="M231.013 151.46C231.013 151.46 240.738 154.886 239.925 163.965C239.925 163.965 255.1 157.637 258.463 153.623C261.825 149.609 268.988 140.881 268.988 140.881V111.294C268.988 111.294 250.638 139.805 246.663 143.244C243.475 145.983 231.013 151.46 231.013 151.46Z" fill="#444F4B"/>
<path d="M268.013 141.994L267.062 127.463L262.675 148.484L268.013 141.994Z" fill="#27302D"/>
<path d="M268.525 166.754C267.941 166.818 267.374 166.987 266.85 167.254C265.263 168.029 263.5 168.504 261.925 169.38C259.301 170.918 257.162 173.163 255.75 175.857C255.425 176.558 254.075 179.096 254.775 179.821C255.475 180.547 257.063 179.821 257.063 179.821C257.063 179.821 256.975 181.285 257.488 181.622C258 181.96 259.525 180.772 259.525 180.772C259.525 180.772 260.225 182.548 261.188 182.135C262.15 181.722 263.863 179.159 263.863 179.159C263.863 179.159 263.675 181.11 264.525 181.11C265.375 181.11 268.988 176.107 268.988 176.107L276.625 172.118C276.625 172.118 274.375 169.617 274.125 169.467C273.096 168.441 271.883 167.618 270.55 167.041C269.906 166.789 269.213 166.691 268.525 166.754Z" fill="#FFE0CE"/>
<path d="M267.213 173.206C265.504 175.075 264.224 177.294 263.462 179.709C263.362 180.009 263.837 180.134 263.925 179.834C264.68 177.507 265.934 175.373 267.6 173.581C267.775 173.319 267.425 172.969 267.213 173.206Z" fill="#5C2D1D"/>
<path d="M265 171.706C262.235 174.204 260.277 177.469 259.375 181.085C259.367 181.115 259.365 181.147 259.369 181.178C259.373 181.209 259.383 181.239 259.399 181.267C259.414 181.294 259.435 181.318 259.46 181.337C259.485 181.356 259.513 181.37 259.544 181.378C259.574 181.387 259.606 181.389 259.637 181.385C259.668 181.381 259.698 181.371 259.726 181.355C259.753 181.339 259.777 181.318 259.796 181.293C259.815 181.269 259.829 181.24 259.837 181.21C260.719 177.675 262.634 174.484 265.337 172.043C265.55 171.843 265.212 171.493 265 171.706Z" fill="#5C2D1D"/>
<path d="M262.712 171.193C259.995 173.522 257.964 176.549 256.838 179.946C256.738 180.247 257.213 180.372 257.3 180.071C258.406 176.759 260.394 173.81 263.05 171.543C263.287 171.33 262.937 170.993 262.712 171.193Z" fill="#5C2D1D"/>
<path d="M228.525 152.473L234.638 155.949L236.588 164.615L231.788 159.838" fill="white"/>
<path d="M276.125 108.405C275.737 108.405 278.788 143.857 278.875 143.119C278.963 142.381 290.7 110.743 290.7 110.743C290.7 110.743 279.762 108.28 276.125 108.405Z" fill="#E8E5D6"/>
<path d="M278.875 143.119L290.7 127.013L289.487 122.298L293.563 120.485L294.888 111.906L290.7 110.743L278.875 143.119Z" fill="#27302D"/>
<path d="M276.125 108.405C274.562 108.407 273.02 108.762 271.612 109.443L271.15 115.808L274.375 118.084L271.625 121.435L278.888 143.107L276.125 108.405Z" fill="#27302D"/>
<path d="M277.712 108.468L276.112 108.393L278.862 116.696L281.887 114.082L284.112 118.159L290.687 110.731C290.687 110.731 279.312 108.568 277.712 108.468Z" fill="#FFFFFD"/>
<path d="M278.875 116.708L281 118.897L277.875 131.614L278.875 143.119L282.913 131.852L281.713 118.959L284.138 118.171L281.9 114.095L278.875 116.708Z" fill="#5F2052"/>
<path d="M289.413 103.466L287.588 111.306C286.417 112.498 284.936 113.339 283.312 113.732C282.894 113.843 282.457 113.862 282.03 113.787C281.604 113.713 281.199 113.547 280.842 113.301C280.486 113.055 280.187 112.735 279.966 112.362C279.745 111.99 279.608 111.574 279.562 111.144L278.812 104.428" fill="#F4CAB5"/>
<path d="M296.25 89.5976C294.6 85.5334 290.988 84.5955 287.2 85.1708C286.375 84.5187 285.433 84.0305 284.425 83.7327C282.824 83.2532 281.121 83.2334 279.51 83.6756C277.899 84.1178 276.444 85.0043 275.313 86.2337C274.299 86.0586 273.258 86.1446 272.288 86.4838C269.4 87.5467 268.925 90.548 269.463 93.2115C269.463 93.3241 269.462 93.4241 269.55 93.5242C269.637 98.2136 274.088 100.377 274.088 100.377L288.4 108.355C290.042 107.562 291.454 106.361 292.5 104.866C292.841 104.279 293.074 103.635 293.188 102.965C293.296 102.879 293.397 102.783 293.488 102.678C296.5 99.2015 298.088 94.0494 296.25 89.5976Z" fill="#895851"/>
<path d="M273.913 96.6252C274.213 98.2008 276.163 113.182 282.913 112.244C289.662 111.306 290.537 101.44 290.537 101.44C290.537 101.44 284.55 99.5138 284.163 97.2254C283.775 94.937 284.075 93.9366 281.125 93.1863C278.175 92.436 273.413 93.9991 273.913 96.6252Z" fill="#FFE0CE"/>
<path d="M223.431 167.582C224.524 166.953 224.263 164.447 222.848 161.983C221.433 159.52 219.399 158.032 218.306 158.661C217.213 159.289 217.474 161.796 218.889 164.259C220.305 166.723 222.338 168.21 223.431 167.582Z" fill="#B3B3B3"/>
<path d="M102.887 134.578L98.975 132.59L103.363 128.313L102.887 134.578Z" fill="#60433D"/>
<path d="M156.688 48.8933L152.775 46.905L151.237 52.0446L156.688 48.8933Z" fill="#60433D"/>
<path d="M152.775 46.905L98.975 77.9801V132.59L152.775 100.277V46.905Z" fill="#60433D"/>
<path d="M156.688 48.8933L102.888 79.9684V134.578L156.688 102.265V48.8933Z" fill="#5F2052"/>
<path d="M150.65 58.5098L108.925 82.607V124.962L150.65 99.9015V58.5098Z" fill="white"/>
<path d="M142.013 75.1292L142.1 76.3546V94.8246L120.312 106.905V87.6592L142.013 75.1292Z" fill="#5F2052"/>
<path d="M284.288 223.264L311.7 207.07L290.263 194.677L262.075 211.247L284.288 223.264Z" fill="#E8E5D6"/>
<path d="M172.175 311.375L193.187 299.495C192.465 298.689 191.693 297.929 190.875 297.219C183.087 300.971 175.512 305.085 167.812 308.961C169.25 309.799 170.713 310.574 172.175 311.375Z" fill="#CD1D53"/>
<path d="M148.75 260.829C148.75 260.829 137.738 288.541 138.75 289.791C139.763 291.042 140.513 291.429 142.038 289.791C143.563 288.153 154.538 263.906 154.538 263.906L148.75 260.829Z" fill="#B38E7E"/>
<path d="M184.812 270.296L189.587 297.944C189.587 297.944 190.1 300.82 192.087 300.183C194.075 299.545 193.612 296.681 193.612 296.681L191.725 267.77" fill="#B38E7E"/>
<path d="M189.6 210.096V228.654L156.25 240.759C156.25 240.759 124.125 200.255 142.163 192.102C160.2 183.948 189.6 210.096 189.6 210.096Z" fill="#E0CFC7"/>
<path d="M210.288 242.022V253.376C210.304 255.439 209.776 257.469 208.755 259.261C207.734 261.054 206.257 262.544 204.475 263.58C199.2 266.582 189.625 269.758 173.125 269.22C142.95 268.22 151.875 242.034 151.875 242.034" fill="#C8AF9B"/>
<path d="M181.112 258.728C197.225 258.728 210.287 251.249 210.287 242.022C210.287 232.795 197.225 225.315 181.112 225.315C165 225.315 151.938 232.795 151.938 242.022C151.938 251.249 165 258.728 181.112 258.728Z" fill="#E8E5D6"/>
<path d="M174.888 267.219C174.888 267.219 178.638 248.262 169.4 242.522C160.163 236.782 129.013 205.857 141.475 194.628C153.938 183.398 189.6 210.096 189.6 210.096C189.6 210.096 161.175 183.911 143.475 187.15C125.775 190.388 138.738 251.25 143.975 259.992C148.525 267.57 160.125 271.246 168.2 272.572C181.538 274.835 219.888 268.82 210.55 247.261C210.538 247.274 210.288 268.407 174.888 267.219Z" fill="#DED6CC"/>
<defs>
<linearGradient id="paint0_linear_88:302" x1="20368.1" y1="8167.03" x2="21852.8" y2="6643.76" gradientUnits="userSpaceOnUse">
<stop stop-color="#BB4172"/>
<stop offset="1" stop-color="#FF7A30"/>
</linearGradient>
<linearGradient id="paint1_linear_88:302" x1="43653.8" y1="37380.9" x2="46838.6" y2="29749.5" gradientUnits="userSpaceOnUse">
<stop stop-color="#BB4172"/>
<stop offset="1" stop-color="#BB4172"/>
</linearGradient>
<linearGradient id="paint2_linear_88:302" x1="205.413" y1="191.401" x2="232.776" y2="158.711" gradientUnits="userSpaceOnUse">
<stop stop-opacity="0"/>
<stop offset="0.99" stop-color="#1A1A1A"/>
</linearGradient>
</defs>
</svg>
