<svg width="269" height="203" viewBox="0 0 269 203" fill="none" xmlns="http://www.w3.org/2000/svg">
<path d="M136.363 191.985L233.781 134.412C236.882 132.67 239.545 129.812 236.518 127.936L138.75 71.5938C137.284 70.6859 135.058 70.0874 133.565 70.9549L31.305 130.29C28.2048 132.092 27.6466 137.122 30.7536 138.924L123.559 191.884C125.501 193.009 127.703 193.61 129.947 193.627C132.192 193.645 134.403 193.079 136.363 191.985Z" fill="#1AA4B2"/>
<path opacity="0.32" d="M50.6057 145.979L70.3302 134.634L53.901 128.44L35.7637 138.36C40.5492 141.203 45.5061 143.748 50.6057 145.979Z" fill="url(#paint0_linear)"/>
<path d="M51.4463 119.772V131.957H71.1573V119.772" fill="#F8997C"/>
<path d="M61.3051 124.62C66.75 124.62 71.164 122.449 71.164 119.772C71.164 117.094 66.75 114.923 61.3051 114.923C55.8602 114.923 51.4463 117.094 51.4463 119.772C51.4463 122.449 55.8602 124.62 61.3051 124.62Z" fill="#DD654A"/>
<path d="M61.3051 137.277C66.75 137.277 71.164 135.106 71.164 132.428C71.164 129.75 66.75 127.579 61.3051 127.579C55.8602 127.579 51.4463 129.75 51.4463 132.428C51.4463 135.106 55.8602 137.277 61.3051 137.277Z" fill="#F8997C"/>
<path d="M72.3411 91.4392C70.2631 90.5919 67.3781 87.7539 64.8629 87.8413C63.8878 90.1951 63.6188 92.9389 63.3363 95.3195C62.8589 99.4625 62.7644 103.641 63.0539 107.801C63.1122 108.729 63.1884 109.653 63.2825 110.572C63.3078 110.843 63.3831 111.108 63.5045 111.352C63.5045 114.566 63.5045 117.781 63.5045 120.996C63.5154 121.069 63.5523 121.136 63.6084 121.184C63.6646 121.233 63.7363 121.259 63.8105 121.259C63.8846 121.259 63.9563 121.233 64.0125 121.184C64.0686 121.136 64.1055 121.069 64.1164 120.996C64.1164 117.902 64.1164 114.809 64.1164 111.715C65.1045 111.389 66.0521 110.951 66.941 110.41C68.7957 109.249 70.1979 107.488 70.9154 105.42C72.5093 100.989 71.5005 96.0458 73.0136 91.6611C72.7783 91.6073 72.5563 91.5334 72.3411 91.4392Z" fill="#297600"/>
<path d="M68.0772 84.1829C66.8901 84.8726 65.9082 85.8661 65.2325 87.0612C65.0565 87.3304 64.9078 87.6165 64.7886 87.9152L64.7012 88.1035C64.5129 88.6022 64.3557 89.112 64.2305 89.6301C64.4687 89.2367 64.8414 88.9428 65.2796 88.8029C65.7974 88.574 66.3757 88.5197 66.9272 88.6483C67.4609 88.8537 67.9669 89.1248 68.4336 89.4553C69.1061 89.8789 69.8122 90.3564 70.5116 90.8003C73.78 92.8783 78.1243 93.0868 80.6462 90.0672C80.6462 89.9462 80.7067 89.8251 80.7336 89.7041C81.1304 87.6395 75.32 79.9865 68.0772 84.1829Z" fill="#5FAD00"/>
<path d="M79.2272 91.3518C79.3617 91.2576 79.4962 91.1702 79.6374 91.0827C79.6428 91.04 79.6384 90.9965 79.6244 90.9557C79.6104 90.9149 79.5872 90.8778 79.5567 90.8474C77.5796 88.8299 75.4612 86.8124 72.7645 85.8305C70.8357 85.0979 68.7468 84.8913 66.712 85.232C66.49 85.4875 66.295 85.7565 66.0933 86.0255C68.2923 85.2925 71.0698 85.7498 73.0671 86.6039C75.4545 87.6194 77.3509 89.4418 79.1196 91.2778C79.1495 91.3101 79.1863 91.3354 79.2272 91.3518Z" fill="#297600"/>
<path d="M46.1403 95.77C44.7158 96.5126 43.5397 97.6558 42.757 99.0587C41.9743 100.462 41.6192 102.063 41.7355 103.665C41.9708 109.482 51.554 103.8 54.096 98.8972C56.6381 93.9946 57.0416 100.989 57.0416 100.989" fill="#297600"/>
<path d="M54.762 93.7391C52.9612 93.7081 51.1665 93.9577 49.4425 94.4789C48.2853 94.7547 47.1719 95.1893 46.1338 95.7701C46.7362 96.1751 47.3784 96.5176 48.0504 96.7923C49.2542 97.2765 50.5118 97.8818 51.1439 99.0116C51.2982 99.2888 51.4223 99.5819 51.5138 99.8858C52.0989 101.796 51.5945 104.123 52.3813 106.046C53.1681 107.969 54.7754 109.671 57.035 109.805C59.725 109.967 60.9691 107.377 61.5071 105.131C62.0451 102.885 62.7714 99.8253 61.9174 97.5186C60.9288 94.8286 57.3175 93.8602 54.762 93.7391Z" fill="#5FAD00"/>
<path d="M58.3194 102.818C57.1896 99.1461 54.7821 95.676 51.2649 94.0754H51.1102L50.9421 94.1292L50.3032 94.2906C54.3987 95.8105 56.9744 99.8522 58.0235 103.975C59.3685 109.254 58.9112 114.97 58.9247 120.363C58.9247 120.438 58.9544 120.51 59.0074 120.563C59.0604 120.616 59.1322 120.646 59.2071 120.646C59.282 120.646 59.3539 120.616 59.4068 120.563C59.4598 120.51 59.4896 120.438 59.4896 120.363C59.503 114.587 60.041 108.4 58.3194 102.818Z" fill="#297600"/>
<path d="M205.173 121.325C204.795 121.326 204.421 121.246 204.077 121.09L203.909 122.192L221.676 122.65V121.305L205.173 121.325Z" fill="#EF8A3F"/>
<path d="M204.07 121.13L203.909 122.193L213.72 127.855V126.51C210.412 124.91 207.224 123.033 204.07 121.13Z" fill="#EF8A3F"/>
<path d="M213.976 44.5324C213.395 44.6314 212.798 44.5467 212.268 44.2903L201.017 131.13C201.69 131.547 202.409 131.917 203.102 132.314L214.487 44.4719L213.976 44.5324Z" fill="#EF8A3F"/>
<path d="M216.545 44.4314C216.136 44.4761 215.723 44.4761 215.314 44.4314C214.985 44.4314 214.642 44.4314 214.326 44.4785L221.925 133.538C222.509 133.252 223.109 132.998 223.721 132.778L224.016 132.623H224.07L216.545 44.4314Z" fill="#EF8A3F"/>
<path d="M215.335 44.4382C214.885 44.44 214.436 44.4714 213.99 44.5324C213.813 44.5464 213.635 44.5464 213.459 44.5324L212.719 138.682C213.101 138.548 213.511 138.515 213.909 138.588H214.582L214.958 138.548L215.698 44.4719L215.335 44.4382Z" fill="#EF8A3F"/>
<path d="M203.055 45.9377V65.3864C203.055 65.3864 225.436 66.0589 225.436 65.3864V45.9377" fill="#FF6753"/>
<path d="M214.245 51.0824C220.425 51.0824 225.436 48.761 225.436 45.8974C225.436 43.0338 220.425 40.7124 214.245 40.7124C208.065 40.7124 203.055 43.0338 203.055 45.8974C203.055 48.761 208.065 51.0824 214.245 51.0824Z" fill="#D64338"/>
<path d="M214.245 70.8675C220.425 70.8675 225.436 68.5461 225.436 65.6825C225.436 62.8189 220.425 60.4976 214.245 60.4976C208.065 60.4976 203.055 62.8189 203.055 65.6825C203.055 68.5461 208.065 70.8675 214.245 70.8675Z" fill="#FF6753"/>
<path opacity="0.32" d="M222.813 133.181L190.567 151.729L177.318 142.872L201.017 131.13" fill="url(#paint1_linear)"/>
<path style="mix-blend-mode:multiply" d="M151.669 171.346C147.917 168.479 143.905 165.971 139.685 163.854C133.962 167.217 131.366 169.234 122.557 174.237C129.221 178.272 134.386 182.012 135.139 182.455L146.471 175.508C146.605 175.078 151.568 171.783 151.669 171.346Z" fill="url(#paint2_linear)"/>
<path d="M113.101 102.488L163.37 131.365V40.8806C163.37 40.8806 163.734 36.4353 160.311 36.0117L113.101 17.9819V102.488Z" fill="#A11741"/>
<path opacity="0.14" d="M113.101 102.488L163.37 131.365V40.8806C163.37 40.8806 163.734 36.4353 160.311 36.0117L113.101 17.9819V102.488Z" fill="black"/>
<path d="M155.745 48.2445C155.745 48.2445 154.864 38.157 162.073 36.9532L113.518 9.09828C113.518 9.09828 110.035 7.55825 107.977 10.5643C105.919 13.5704 105.778 16.9396 106 19.4346L155.745 48.2445Z" fill="#A11741"/>
<path d="M120.378 83.7726L152.536 102.085C152.708 102.165 152.903 102.178 153.084 102.122C153.265 102.066 153.418 101.945 153.514 101.782C153.61 101.618 153.641 101.425 153.602 101.24C153.563 101.055 153.457 100.891 153.303 100.78L121.144 82.4679C120.973 82.3877 120.778 82.3743 120.597 82.4304C120.416 82.4864 120.263 82.608 120.167 82.7712C120.071 82.9344 120.039 83.1275 120.078 83.3127C120.117 83.4979 120.224 83.6619 120.378 83.7726Z" fill="#F2F2F2"/>
<path d="M120.378 88.5272L152.537 106.839C152.708 106.92 152.903 106.933 153.084 106.877C153.265 106.821 153.418 106.699 153.514 106.536C153.61 106.373 153.642 106.18 153.603 105.995C153.564 105.809 153.457 105.645 153.303 105.535L121.124 87.2495C120.96 87.199 120.784 87.2055 120.625 87.2677C120.465 87.33 120.331 87.4444 120.244 87.5924C120.158 87.7404 120.124 87.9133 120.148 88.083C120.172 88.2527 120.253 88.4093 120.378 88.5272Z" fill="#F2F2F2"/>
<path d="M120.378 93.3624L152.536 111.675C152.708 111.755 152.903 111.768 153.084 111.712C153.265 111.656 153.418 111.535 153.514 111.371C153.61 111.208 153.641 111.015 153.602 110.83C153.563 110.645 153.457 110.481 153.303 110.37L121.144 92.0578C120.973 91.9775 120.778 91.9641 120.597 92.0202C120.416 92.0763 120.263 92.1978 120.167 92.361C120.071 92.5242 120.039 92.7173 120.078 92.9025C120.117 93.0877 120.224 93.2517 120.378 93.3624Z" fill="#F2F2F2"/>
<path d="M119.571 65.8976L151.73 84.2098C151.901 84.29 152.096 84.3034 152.277 84.2474C152.458 84.1913 152.611 84.0697 152.707 83.9066C152.803 83.7434 152.835 83.5503 152.796 83.365C152.757 83.1798 152.65 83.0158 152.496 82.9051L120.331 64.5929C120.159 64.5127 119.964 64.4993 119.783 64.5554C119.603 64.6114 119.449 64.733 119.353 64.8962C119.257 65.0594 119.226 65.2525 119.265 65.4377C119.304 65.6229 119.411 65.7869 119.564 65.8976H119.571Z" fill="#F2F2F2"/>
<path d="M119.571 70.6522L151.73 88.9644C151.901 89.0447 152.096 89.0581 152.277 89.002C152.458 88.9459 152.611 88.8244 152.707 88.6612C152.803 88.498 152.835 88.3049 152.796 88.1197C152.757 87.9345 152.65 87.7704 152.496 87.6598L120.338 69.3476C120.166 69.2673 119.971 69.2539 119.79 69.31C119.609 69.3661 119.456 69.4876 119.36 69.6508C119.264 69.814 119.233 70.0071 119.272 70.1923C119.311 70.3775 119.417 70.5415 119.571 70.6522Z" fill="#F2F2F2"/>
<path d="M119.571 75.4874L151.73 93.7996C151.901 93.8799 152.096 93.8933 152.277 93.8372C152.458 93.7811 152.611 93.6596 152.707 93.4964C152.803 93.3332 152.835 93.1401 152.796 92.9549C152.757 92.7697 152.65 92.6057 152.496 92.495L120.338 74.1828C120.166 74.1025 119.971 74.0891 119.79 74.1452C119.609 74.2013 119.456 74.3228 119.36 74.486C119.264 74.6492 119.233 74.8423 119.272 75.0275C119.311 75.2127 119.417 75.3768 119.571 75.4874Z" fill="#F2F2F2"/>
<path d="M139.499 68.0695C144.23 66.6895 146.502 60.2089 144.573 53.5949C142.644 46.9808 137.244 42.7377 132.513 44.1177C127.781 45.4977 125.51 51.9782 127.439 58.5923C129.368 65.2064 134.767 69.4495 139.499 68.0695Z" fill="white"/>
<path d="M129.907 55.3796L132.94 61.7953C133.303 62.5552 134.285 62.3333 134.682 61.7953L141.561 52.8174C142.348 51.7885 140.6 50.7999 139.819 51.8019L132.94 60.7798H134.682L131.649 54.3642C131.097 53.194 129.355 54.2162 129.907 55.3796Z" fill="#5FAD00"/>
<path d="M139.881 69.4136C145.208 67.86 147.766 60.5652 145.595 53.1203C143.423 45.6755 137.345 40.8997 132.018 42.4534C126.691 44.0071 124.133 51.3019 126.304 58.7467C128.476 66.1916 134.554 70.9673 139.881 69.4136Z" stroke="#F2F2F2" stroke-width="1.015" stroke-miterlimit="10"/>
<path d="M132.758 77.4443C132.343 76.3311 131.983 75.1977 131.682 74.0482C131.548 73.2345 132.355 70.141 131.79 69.9661C131.225 69.7913 130.519 71.8895 130.519 71.8895C130.519 71.8895 128.838 68.0966 128.38 67.915C127.923 67.7334 126.558 67.6124 126.228 67.9553C125.899 68.2983 124.991 70.5108 125.394 71.264C126.268 72.6069 127.215 73.9001 128.232 75.1376C128.38 75.252 130.149 79.0583 130.384 79.1726C130.62 79.287 132.583 78.2984 132.758 77.4443Z" fill="#FFC9B5"/>
<path d="M151.205 89.7175C151.205 89.7175 141.965 86.0659 140.358 84.741C138.75 83.4162 132.96 76.5903 132.96 76.5903C132.96 76.5903 129.598 77.821 129.638 79.509C129.638 79.509 134.346 87.3705 136.531 89.4754C138.717 91.5804 146.693 96.8729 148.441 96.7519C150.19 96.6308 151.205 89.7175 151.205 89.7175Z" fill="#DD8C2A"/>
<path d="M145.307 164.506C145.307 164.506 143.102 162.623 140.6 163.35C138.098 164.076 138.636 165.932 140.196 167.095C141.757 168.259 147.762 172.3 149.611 172.26C151.461 172.22 151.864 170.734 151.905 169.711C151.802 168.134 151.62 166.563 151.36 165.004" fill="#768CFB"/>
<path d="M146.686 164.372C146.677 164.441 146.652 164.507 146.614 164.565C146.577 164.624 146.526 164.673 146.467 164.71C146.408 164.746 146.341 164.77 146.272 164.777C146.203 164.785 146.133 164.778 146.067 164.755C145.396 164.543 144.738 164.291 144.097 164.002C144.097 164.002 141.965 164.002 143.263 166.134C144.561 168.266 149.033 168.891 150.411 168.097C151.79 167.304 150.869 165.044 150.869 165.044" fill="#FFC9B5"/>
<path d="M140.115 168.662C140.115 168.662 137.91 166.779 135.408 167.506C132.906 168.232 133.444 170.088 135.004 171.252C136.565 172.415 142.57 176.457 144.419 176.416C146.269 176.376 146.672 174.89 146.713 173.868C146.61 172.29 146.428 170.719 146.168 169.16" fill="#768CFB"/>
<path d="M141.488 168.528C141.478 168.597 141.454 168.663 141.416 168.721C141.378 168.78 141.328 168.829 141.269 168.866C141.21 168.902 141.143 168.926 141.074 168.933C141.005 168.941 140.935 168.934 140.869 168.911C140.198 168.699 139.54 168.447 138.898 168.158C138.898 168.158 136.767 168.158 138.065 170.29C139.362 172.422 143.835 173.047 145.213 172.253C146.592 171.46 145.67 169.2 145.67 169.2" fill="#FFC9B5"/>
<path d="M139.174 110.518C138.454 112.145 138.064 135.448 138.34 141.453C138.616 147.458 141.487 168.548 141.487 168.548C141.487 168.548 143.121 171.03 145.879 170.855C148.636 170.68 148.098 168.461 148.098 168.461C148.098 168.461 151.622 170.095 153.162 166.504C153.733 165.159 156.417 128.03 156.417 123.8C156.325 118.745 154.935 113.799 152.382 109.435" fill="#5F2052"/>
<path d="M148.105 168.44C148.105 168.44 149.779 121.365 149.564 119.973C149.349 118.581 150.022 130.296 149.975 133.497C149.968 135.784 148.556 165.259 148.105 168.44Z" fill="#259993"/>
<path d="M139.174 110.518C139.174 110.518 136.74 93.8466 140.203 90.6993C143.666 87.552 153.29 85.3193 155.085 86.8863C156.881 88.4532 154.184 106.133 152.395 109.415C150.607 112.697 140.452 111.802 139.174 110.518Z" fill="#F9AA43"/>
<path d="M143.559 78.4398C143.478 78.6752 141.77 85.1648 144.749 86.1063C147.728 87.0478 148.327 83.4903 148.623 83.2885C148.918 83.0868 149.853 82.7707 149.806 82.0511C149.759 81.3315 148.629 81.3181 148.629 81.3181C148.629 81.3181 148.192 79.4351 146.854 78.6281C145.516 77.8211 143.559 78.4398 143.559 78.4398Z" fill="#FFC9B5"/>
<path d="M146.336 80.2689C146.336 80.2689 143.848 80.3093 142.772 79.2467C142.57 79.0391 142.414 78.7919 142.313 78.5208C142.212 78.2497 142.169 77.9606 142.185 77.6717C142.201 77.3829 142.278 77.1006 142.409 76.8427C142.54 76.5848 142.723 76.3569 142.947 76.1734C142.947 76.1734 141.958 74.203 143.814 73.7255C143.814 73.7255 143.982 71.9165 147.681 72.7437C151.38 73.5708 154.756 76.1869 154.803 79.5695C154.85 82.9522 155.099 83.3423 156.296 84.1156C157.493 84.889 157.163 87.8547 153.962 87.9758C150.761 88.0968 146.397 87.8144 145.986 86.234C145.576 84.6536 148.004 84.4855 148.307 82.8715C148.348 82.5712 148.33 82.2656 148.254 81.9723C148.177 81.6789 148.044 81.4035 147.861 81.1617C147.678 80.92 147.449 80.7168 147.187 80.5636C146.926 80.4104 146.636 80.3103 146.336 80.2689Z" fill="#2C1D1A"/>
<path d="M134.366 108.097C134.366 108.097 131.804 110.827 131.064 111.123C129.931 111.641 128.843 112.251 127.809 112.946C128.152 113.253 128.457 113.601 128.717 113.981C128.718 113.995 128.718 114.008 128.717 114.022C129.046 113.786 129.275 113.611 129.268 113.732C129.268 114.116 126.746 117.398 126.363 117.895C125.98 118.393 127.036 120.02 127.036 120.02C128.663 120.565 130.539 118.917 131.743 117.801C132.947 116.685 133.505 114.102 133.922 113.766C134.339 113.43 137.775 111.164 138.018 110.457C138.26 109.751 134.366 108.097 134.366 108.097Z" fill="#FFC9B5"/>
<path d="M139.409 91.8897C138.737 93.376 138.737 95.0034 138.454 96.5972C138.233 97.7338 138.004 98.9241 137.742 100.074C137.563 101.246 137.195 102.382 136.652 103.437C135.711 105.003 134.487 106.362 133.417 107.835C133.12 108.155 132.906 108.543 132.792 108.965C132.691 109.993 133.989 112.926 137.587 112.562C139.405 111.093 141.105 109.483 142.671 107.747C144.689 105.373 146.598 97.3437 146.403 94.6739C146.269 92.8581 145.28 90.8272 143.559 90.0336C142.988 89.8011 142.359 89.7493 141.758 89.8851C141.157 90.021 140.612 90.3381 140.196 90.7936C139.874 91.1122 139.608 91.4828 139.409 91.8897Z" fill="#F9AA43"/>
<path d="M139.611 110.787C139.611 110.787 142.617 108.231 143.357 106.691C144.097 105.151 145.059 102.381 145.059 102.381C145.059 102.381 143.666 110.39 142.335 111.459C141.409 111.318 140.497 111.093 139.611 110.787Z" fill="#DD8C2A"/>
<defs>
<linearGradient id="paint0_linear" x1="43.2755" y1="150.397" x2="52.6972" y2="137.001" gradientUnits="userSpaceOnUse">
<stop stop-color="white" stop-opacity="0"/>
<stop offset="1" stop-color="#D43500"/>
</linearGradient>
<linearGradient id="paint1_linear" x1="13267.9" y1="4629.26" x2="13445.3" y2="4072.58" gradientUnits="userSpaceOnUse">
<stop stop-color="white" stop-opacity="0"/>
<stop offset="1" stop-color="#D43500"/>
</linearGradient>
<linearGradient id="paint2_linear" x1="143.122" y1="169.738" x2="129.773" y2="177.714" gradientUnits="userSpaceOnUse">
<stop stop-color="#808080"/>
<stop offset="1" stop-color="white"/>
</linearGradient>
</defs>
</svg>
