<svg width="500" height="377" viewBox="0 0 500 377" fill="none" xmlns="http://www.w3.org/2000/svg">
<path d="M242 362.008L17.3375 229.192C10.1875 225.165 4.05002 218.512 11.025 214.248L236.488 84.1953C239.875 82.0945 245.013 80.7189 248.45 82.7197L484.275 219.763C491.425 223.914 492.713 235.519 485.525 239.683L271.613 361.795C267.121 364.402 262.027 365.793 256.834 365.83C251.642 365.868 246.529 364.55 242 362.008Z" fill="#A11741"/>
<path d="M252.6 300.846C333.399 300.846 398.9 269.722 398.9 231.33C398.9 192.937 333.399 161.814 252.6 161.814C171.801 161.814 106.3 192.937 106.3 231.33C106.3 269.722 171.801 300.846 252.6 300.846Z" fill="#CD1D53"/>
<path d="M248.212 273.447C271.16 273.447 289.762 267.887 289.762 261.029C289.762 254.171 271.16 248.612 248.212 248.612C225.265 248.612 206.662 254.171 206.662 261.029C206.662 267.887 225.265 273.447 248.212 273.447Z" fill="#21CEDE"/>
<path d="M261.787 243.522C261.725 239.771 261.637 236.182 261.787 236.019C261.937 235.857 255.713 236.657 255.713 236.657C255.713 236.657 255.637 237.907 255.537 239.483C255.273 239.796 255.12 240.187 255.1 240.596C254.85 244.61 254.475 248.624 254.2 252.638C253.751 256.686 253.642 260.765 253.875 264.831C254.163 267.744 256.375 271.083 259.737 269.095C260.67 268.443 261.44 267.585 261.988 266.587C262.537 265.59 262.849 264.48 262.9 263.343C263.338 256.878 262.5 250 261.787 243.522Z" fill="#F2B58A"/>
<path d="M235.175 238.733C235.175 238.733 236.588 246.061 233.45 249.325C230.313 252.589 224.7 256.315 222.863 258.391C221.025 260.467 224.113 261.442 227.863 260.892C231.613 260.342 234.413 256.89 238.113 257.315C241.813 257.741 243.113 255.89 243.25 252.601C243.388 249.312 242.775 243.847 243.475 237.432" fill="#F2B58A"/>
<path d="M228.663 157.112C228.663 157.112 227.1 238.395 229.413 239.721C231.725 241.046 245.588 242.609 248.163 240.771L245.362 158.238L228.663 157.112Z" fill="#81C418"/>
<path d="M238.05 158.313C238.05 158.313 250.275 240.684 252.775 241.759C255.275 242.835 266.525 241.834 269.45 239.733L255.562 157.112L238.05 158.313Z" fill="#81C418"/>
<path d="M278.625 142.806C279.875 143.407 281.125 144.057 282.537 144.545C284.91 144.608 287.284 144.545 289.65 144.357C290.627 144.121 291.636 144.045 292.638 144.132C292.83 144.126 293.022 144.165 293.197 144.246C293.372 144.327 293.526 144.447 293.647 144.597C293.768 144.747 293.853 144.923 293.895 145.112C293.936 145.3 293.934 145.495 293.888 145.683C293.731 146.13 293.457 146.526 293.094 146.83C292.731 147.133 292.292 147.333 291.825 147.408C291.05 147.608 290.263 147.783 289.475 147.946C291.727 149.023 294.054 149.934 296.437 150.672C297.95 151.172 297.325 153.586 295.812 153.073L294.188 152.523C295.093 153.046 295.969 153.618 296.812 154.236C297.837 154.999 297.35 157.012 295.888 156.512C293.92 155.852 292.006 155.041 290.163 154.086C291.304 154.92 292.471 155.691 293.662 156.399C295.012 157.237 293.8 159.401 292.412 158.563C290.746 157.529 289.117 156.429 287.525 155.261C287.9 155.949 288.275 156.637 288.625 157.35C289.337 158.775 287.212 160.063 286.5 158.6C285.787 157.137 285.075 155.887 284.287 154.586L284.125 154.524C280.158 152.656 276.233 150.705 272.35 148.671C270.938 147.934 272.163 145.77 273.6 146.508L275.4 147.433C275.438 147.242 275.514 147.061 275.623 146.899C275.733 146.738 275.874 146.601 276.038 146.495C275.914 146.314 275.841 146.104 275.824 145.885C275.808 145.666 275.849 145.447 275.944 145.25C276.039 145.052 276.184 144.883 276.365 144.759C276.546 144.635 276.756 144.561 276.975 144.545C276.841 144.311 276.785 144.04 276.817 143.773C276.849 143.505 276.967 143.255 277.152 143.06C277.338 142.865 277.581 142.734 277.847 142.689C278.112 142.643 278.385 142.684 278.625 142.806Z" fill="#F2B58A"/>
<path d="M288.75 149.234C287.35 150.71 285.65 152.185 283.462 151.735C283.379 151.713 283.306 151.66 283.259 151.587C283.211 151.514 283.193 151.426 283.207 151.34C283.221 151.254 283.267 151.177 283.335 151.123C283.403 151.069 283.488 151.042 283.575 151.047C285.512 151.423 286.975 150.06 288.2 148.772C288.562 148.484 289.1 148.909 288.75 149.234Z" fill="#6D320B"/>
<path d="M290.275 150.747C292.149 151.49 294.065 152.125 296.012 152.648C296.337 152.735 296.25 153.248 295.925 153.161C293.935 152.623 291.978 151.972 290.063 151.21C289.75 151.097 290 150.622 290.275 150.747Z" fill="#6D320B"/>
<path d="M289.125 153.211C291.258 154.498 293.553 155.495 295.95 156.175C296.275 156.262 296.188 156.787 295.863 156.687C293.422 155.996 291.085 154.983 288.912 153.673C288.625 153.486 288.837 153.036 289.125 153.211Z" fill="#6D320B"/>
<path d="M286.537 154.536C288.156 155.78 289.894 156.861 291.725 157.763C292.025 157.913 291.812 158.388 291.512 158.238C289.642 157.319 287.867 156.217 286.213 154.949C285.938 154.736 286.25 154.336 286.537 154.536Z" fill="#6D320B"/>
<path d="M288.563 128.788C289.438 126.437 290.225 124.061 291 121.648C292.271 118.247 293.16 114.716 293.65 111.119C293.025 109.443 290.775 108.155 289.188 107.78C287.188 107.305 285.15 108.155 283.125 108.117C280.487 108.117 278.4 107.029 275.95 106.329C273.403 105.693 270.726 105.819 268.25 106.692C265.987 107.493 263.559 107.713 261.189 107.33C258.82 106.948 256.584 105.976 254.687 104.503C252.437 102.715 250.7 101.265 247.862 100.514C243.487 99.3638 238.962 100.177 236.087 103.866C233.487 107.192 232.912 111.556 235.687 114.958C237.175 116.539 239.12 117.615 241.25 118.034C243.175 118.584 245 119.722 246.963 120.085H247.175C249.052 120.216 250.918 120.466 252.763 120.835C255.088 121.523 257.25 122.686 259.538 123.499C262.575 124.587 265.513 124.161 268.638 123.774C272.613 123.273 274.713 124.499 277.8 126.762L278.362 127.15C280.539 128.466 283.046 129.13 285.588 129.063C286.585 129.057 287.58 128.965 288.563 128.788Z" fill="#0F0E0E"/>
<path d="M214.338 99.8266C213.65 98.5761 212.937 97.3256 212.337 96.0751C212.116 93.7142 212.02 91.3433 212.05 88.9722C212.213 87.9784 212.213 86.9648 212.05 85.971C212.038 85.78 211.983 85.5943 211.889 85.428C211.794 85.2617 211.663 85.1193 211.505 85.0118C211.347 84.9043 211.166 84.8346 210.976 84.8079C210.787 84.7812 210.594 84.7984 210.413 84.858C209.976 85.0435 209.598 85.3437 209.319 85.7268C209.039 86.1099 208.869 86.5616 208.825 87.0339C208.675 87.8217 208.562 88.6096 208.45 89.4099C207.228 87.2308 206.167 84.9656 205.275 82.6321C204.675 81.1565 202.312 81.9319 202.925 83.42L203.587 85.0081C203.004 84.1407 202.374 83.3058 201.7 82.5071C200.875 81.5317 198.9 82.1569 199.487 83.5825C200.281 85.5029 201.221 87.3592 202.3 89.1348C201.417 88.051 200.583 86.9381 199.8 85.7959C198.875 84.5454 196.8 85.8584 197.725 87.159C198.867 88.7596 200.071 90.3103 201.338 91.8109C200.625 91.4732 199.913 91.1481 199.188 90.848C197.725 90.2352 196.575 92.4361 198.05 93.0614C199.525 93.6866 200.85 94.3119 202.2 94.9997L202.275 95.1497C204.408 98.9846 206.617 102.774 208.9 106.517C209.737 107.88 211.8 106.517 210.975 105.154L209.925 103.428C210.112 103.377 210.287 103.288 210.44 103.168C210.592 103.048 210.719 102.898 210.812 102.728C211.001 102.837 211.215 102.895 211.433 102.895C211.65 102.896 211.864 102.84 212.054 102.733C212.243 102.625 212.401 102.47 212.513 102.283C212.624 102.096 212.684 101.883 212.687 101.665C212.937 101.827 213.237 101.895 213.532 101.855C213.827 101.816 214.099 101.673 214.298 101.451C214.497 101.23 214.61 100.944 214.618 100.646C214.625 100.348 214.525 100.058 214.338 99.8266Z" fill="#F2B58A"/>
<path d="M207.25 90.11C205.863 91.6106 204.513 93.3988 205.088 95.5622C205.2 95.9999 205.888 95.8373 205.763 95.3997C205.25 93.4989 206.512 91.9358 207.725 90.6227C208.025 90.2851 207.5 89.7724 207.25 90.11Z" fill="#6D320B"/>
<path d="M205.65 88.7221C204.78 86.9002 204.017 85.0297 203.362 83.1198C203.25 82.8072 202.737 82.9197 202.85 83.2449C203.519 85.1973 204.299 87.1095 205.187 88.9722C205.325 89.2723 205.787 89.0222 205.65 88.7221Z" fill="#6D320B"/>
<path d="M203.262 90.0476C201.834 88.0127 200.682 85.7965 199.837 83.4575C199.725 83.1448 199.212 83.2574 199.325 83.5825C200.174 85.9734 201.339 88.2401 202.787 90.3228C202.987 90.5729 203.45 90.3227 203.262 90.0476Z" fill="#6D320B"/>
<path d="M202.113 92.7112C200.762 91.1659 199.569 89.4904 198.55 87.7092C198.388 87.4216 197.913 87.7092 198.088 87.9593C199.13 89.7673 200.348 91.4679 201.725 93.0364C201.95 93.324 202.338 92.9613 202.113 92.7112Z" fill="#6D320B"/>
<path d="M248 115.808L239.525 114.12C232.357 113.839 225.57 110.818 220.562 105.679C217.586 102.61 214.981 99.202 212.8 95.5249C210.227 97.0475 207.935 99.0018 206.025 101.302C205.014 102.451 204.087 103.672 203.25 104.954C206.95 112.619 216.25 124.812 227.5 129.101C227.5 129.101 228.325 147.296 228.662 157.112C228.662 157.112 239.737 162.715 255.55 157.112C255.562 157.112 250.862 119.972 248 115.808Z" fill="#5F2052"/>
<path d="M243.662 115.533C243.662 115.533 260.05 127.863 285.412 143.594C285.412 143.594 283.9 152.06 280.337 155.287C280.337 155.287 252.587 145.57 245.425 132.99" fill="#5F2052"/>
<path d="M236.25 107.842C236.25 107.842 233.25 116.508 238.75 120.435C244.25 124.362 251.775 116.158 249.725 108.443C247.675 100.727 239.787 100.414 236.25 107.842Z" fill="#F2B58A"/>
<path d="M250.5 119.222C250.053 119.313 249.59 119.292 249.153 119.158C248.716 119.025 248.32 118.785 248 118.459C247.352 117.574 247.083 116.467 247.25 115.383C247.286 114.685 247.139 113.99 246.823 113.367C246.507 112.744 246.034 112.215 245.45 111.832C244 110.844 242.175 110.581 240.862 109.331C240.725 109.205 240.6 109.068 240.475 108.93C240.648 109.09 240.836 109.233 241.037 109.356C243.175 110.606 246.35 110.969 247.287 111.481C248.225 111.994 246.7 115.933 248.475 117.671C250.25 119.41 254.475 108.555 252.037 105.604C249.6 102.653 241.55 99.2014 238.05 104.103C238.145 104.526 238.262 104.943 238.4 105.354C238.484 106.678 238.972 107.944 239.8 108.98C241.05 110.606 243 110.969 244.712 111.957C245.265 112.228 245.736 112.64 246.078 113.152C246.421 113.663 246.622 114.256 246.662 114.87C246.59 115.886 246.7 116.907 246.987 117.884C247.307 118.55 247.844 119.086 248.51 119.405C249.177 119.723 249.931 119.804 250.65 119.635C251 119.647 250.837 119.147 250.5 119.222Z" fill="#0F0E0E"/>
<path d="M253.037 241.021C247.737 216.278 243.042 191.414 238.95 166.429C238.825 165.641 237.612 165.978 237.7 166.766C241.792 191.776 246.487 216.641 251.787 241.359C252 242.172 253.2 241.847 253.037 241.021Z" fill="#6A9B15"/>
<path d="M140.288 153.486V208.996C140.288 208.996 170.388 225.14 217.663 220.888V169.617C217.663 169.617 172.638 176.945 140.288 153.486Z" fill="#1AA4B2"/>
<path d="M336.087 164.515V214.635C336.087 214.635 383.588 201.493 395.438 162.777V111.706C395.438 111.706 383.575 147.946 336.087 164.515Z" fill="#1AA4B2"/>
<path d="M109.425 95.2246V148.821C109.425 148.821 113.525 114.332 165.675 95.9749V48.3682C165.675 48.3682 120.962 56.9967 109.425 95.2246Z" fill="#1AA4B2"/>
<path d="M360.387 49.1686V102.94C360.387 102.94 334.812 90.6229 285 87.8843V33.4373C285 33.4373 324.65 33.0621 360.387 49.1686Z" fill="#1AA4B2"/>
<path d="M277.838 64.0371V60.2856C269.625 59.5978 261.213 59.2227 252.6 59.2227C221.95 59.2227 193.45 63.7245 169.787 71.4401V75.1916C193.25 67.476 221.8 62.9242 252.6 62.9242C261.25 62.9742 269.638 63.3493 277.838 64.0371Z" fill="#68E1FD"/>
<path d="M120.475 192.702C112.563 184.348 108.15 175.107 108.15 165.378C108.15 144.295 128.863 125.437 161.25 113.019V109.268C126.7 122.348 104.45 142.644 104.45 165.403C104.45 176.995 110.238 187.912 120.475 197.641V192.702Z" fill="#68E1FD"/>
<path d="M129.013 221.563V225.903C145.75 238.07 170 247.637 198.575 253.051V249.3C169.5 243.81 145.113 233.994 129.013 221.563Z" fill="#68E1FD"/>
<path d="M252.6 188.725C237.376 188.745 222.172 187.591 207.125 185.274V189.025C222.172 191.343 237.376 192.496 252.6 192.477C296.35 192.477 335.688 183.298 362.825 168.717V164.74C336.313 179.384 296.75 188.725 252.6 188.725Z" fill="#68E1FD"/>
<path d="M278.125 246.911V250.663C311.512 247.862 341.087 239.658 362.837 227.991V224.014C341.55 235.757 311.85 244.073 278.125 246.911Z" fill="#68E1FD"/>
<path d="M371.375 42.4783V46.655C387.538 57.5719 397.05 70.8148 397.05 85.083C397.05 99.3513 387.5 112.582 371.375 123.474V127.663C389.825 115.758 400.763 101.002 400.763 85.0455C400.763 69.089 389.813 54.3706 371.375 42.4783Z" fill="#68E1FD"/>
<g opacity="0.43">
<path opacity="0.43" d="M277.838 64.0371V60.2856C269.625 59.5978 261.213 59.2227 252.6 59.2227C221.95 59.2227 193.45 63.7245 169.787 71.4401V75.1916C193.25 67.476 221.8 62.9242 252.6 62.9242C261.25 62.9742 269.638 63.3493 277.838 64.0371Z" fill="#1AA4B2"/>
<path opacity="0.43" d="M120.475 192.702C112.562 184.348 108.15 175.107 108.15 165.378C108.15 144.295 128.862 125.437 161.25 113.019V109.268C126.7 122.348 104.45 142.644 104.45 165.403C104.45 176.995 110.237 187.912 120.475 197.641V192.702Z" fill="#1AA4B2"/>
<path opacity="0.43" d="M129.012 221.563V225.902C145.75 238.07 170 247.636 198.575 253.051V249.299C169.5 243.81 145.112 233.993 129.012 221.563Z" fill="#1AA4B2"/>
<path opacity="0.43" d="M252.6 188.725C237.376 188.745 222.172 187.591 207.125 185.274V189.025C222.172 191.342 237.376 192.496 252.6 192.476C296.35 192.476 335.688 183.298 362.825 168.717V164.74C336.313 179.384 296.75 188.725 252.6 188.725Z" fill="#1AA4B2"/>
<path opacity="0.43" d="M278.125 246.911V250.663C311.512 247.862 341.087 239.658 362.837 227.991V224.014C341.55 235.757 311.85 244.073 278.125 246.911Z" fill="#1AA4B2"/>
<path opacity="0.43" d="M371.375 42.4783V46.655C387.538 57.5719 397.05 70.8148 397.05 85.083C397.05 99.3513 387.5 112.582 371.375 123.474V127.663C389.825 115.758 400.762 101.002 400.762 85.0455C400.762 69.089 389.813 54.3706 371.375 42.4783Z" fill="#1AA4B2"/>
</g>
</svg>
