<svg width="689" height="1024" viewBox="0 0 689 1024" fill="none" xmlns="http://www.w3.org/2000/svg">
<rect x="689" y="1024" width="598" height="1024" transform="rotate(-180 689 1024)" fill="#A11741"/>
<g clip-path="url(#clip0)">
<rect width="1045" height="697" transform="translate(-8 1045) rotate(-90)" fill="#A11741"/>
<path d="M677.987 1045C674.502 1045 671.157 1045 667.672 1045C644.95 1000.97 625.294 955.967 608.287 910.265C589.887 860.384 575.947 809.667 561.728 758.949C555.594 736.935 548.903 714.92 541.097 693.184C532.175 668.801 516.702 647.622 493.561 630.763C477.251 618.78 458.572 610.002 439.056 602.617C414.382 593.143 388.732 586.176 363.222 578.791C330.603 569.177 298.122 559.424 264.527 552.318C233.72 545.769 203.052 539.36 172.384 532.254C144.085 525.705 116.484 517.485 90.5558 505.781C45.5296 485.299 17.5102 454.367 8.58863 411.452C4.54603 391.945 3.43083 372.299 4.26723 352.653C5.52183 317.123 7.75223 281.593 9.00683 246.063C11.0978 189.355 8.44924 132.925 -2.84216 76.9126C-4.37556 69.6673 -6.32716 62.4219 -7.99996 55.0372C-7.99996 39.9893 -7.99996 24.9412 -7.99995 9.89319C-6.04836 15.6058 -3.95736 21.3186 -2.28456 27.1706C13.7464 81.9286 20.8558 137.662 22.2498 193.953C23.0862 229.761 22.3892 265.57 22.2498 301.379C22.1104 327.852 21.6922 354.186 25.5954 380.52C28.6622 400.863 34.3776 420.509 45.8084 438.622C60.8636 462.448 83.4464 480.143 110.629 493.659C135.582 506.199 162.347 515.116 190.087 521.943C220.337 529.467 251.005 535.737 281.116 543.54C324.608 554.826 367.822 566.809 411.036 578.791C434.734 585.34 457.875 592.864 479.621 603.175C510.986 617.944 534.127 638.983 547.37 667.268C552.109 677.3 556.291 687.611 559.079 698.061C567.304 729.271 574.692 760.482 582.498 791.832C597.693 853.417 616.93 913.888 643.277 972.826C654.15 996.931 666.278 1020.9 677.987 1045Z" fill="#CD1D53"/>
<path d="M688.861 1027.58C688.861 1032.88 688.721 1038.31 689 1043.61C689.139 1045.28 688.024 1045 687.048 1045C686.77 1044.16 686.491 1043.33 686.073 1042.49C651.78 979.235 625.434 913.609 606.336 845.893C594.069 802.56 585.426 758.809 576.644 714.919C572.88 696.109 568.698 677.439 560.891 659.465C548.903 631.737 527.854 610.28 497.604 595.511C482.827 588.265 467.354 582.274 451.323 577.676C426.649 570.709 401.697 564.161 376.744 557.473C340.361 547.719 303.977 538.105 267.594 528.491C242.92 521.943 217.828 516.091 193.294 509.263C167.644 502.018 143.249 492.265 120.806 479.307C80.9372 456.456 55.427 425.385 45.9478 385.396C42.6022 371.463 39.9536 357.251 38.9778 343.039C37.1656 315.59 36.3292 288.002 35.911 260.414C35.0746 210.115 33.5412 159.815 26.4318 109.655C21.1346 72.4533 13.607 35.6693 1.20042 -0.278748C5.66122 -0.278747 10.2614 -0.278747 14.7222 -0.278747C15.1404 0.835999 15.5586 1.95062 15.8374 3.06537C31.5896 54.4793 39.9536 106.729 44.1356 159.676C47.063 197.017 48.5964 234.498 50.548 271.839C51.942 298.591 53.336 325.483 58.4938 352.095C62.397 372.438 68.67 392.084 79.6826 410.615C94.8772 436.253 118.018 455.62 145.758 471.504C170.571 485.716 197.894 495.609 226.331 503.551C259.648 512.886 293.104 521.664 326.56 530.303C365.174 540.335 403.788 549.809 442.401 559.702C466.378 565.833 490.076 572.66 512.101 582.971C540.818 596.347 561.17 615.853 572.88 641.769C579.989 657.514 584.171 673.955 586.959 690.536C592.675 723.697 597.414 757.137 603.827 790.159C619.579 871.112 647.319 948.999 686.909 1023.96C687.467 1025.63 688.303 1026.61 688.861 1027.58Z" fill="#CD1D53"/>
<path d="M688.861 990.521C688.861 997.069 688.861 1003.62 688.861 1010.17C688.303 1009.19 687.606 1008.36 687.048 1007.38C669.902 973.522 655.265 938.828 642.998 903.437C620.555 838.926 608.566 772.882 601.736 706.141C599.784 686.913 597.554 667.685 592.256 648.736C587.935 633.688 581.662 619.197 571.346 606.239C557.825 589.38 539.284 577.815 517.956 569.177C496.21 560.399 473.348 554.129 450.068 549.252C381.484 535.04 314.85 516.091 248.078 497.281C218.525 488.921 189.948 478.749 164.02 463.841C138.231 449.071 116.205 431.376 100.314 408.386C88.0467 390.83 80.3797 371.881 75.3613 352.095C67.8337 323.393 65.4639 294.272 63.0941 265.151C59.8879 223.909 57.0999 182.527 53.1967 141.284C49.8511 105.615 44.1357 70.224 35.9111 35.112C33.1231 23.2687 29.9169 11.5647 26.8501 -0.278656C31.1715 -0.278656 35.4929 -0.278656 39.6749 -0.278655C39.9537 0.418 40.2325 1.11466 40.3719 1.81131C54.8695 55.594 62.3971 110.213 67.9731 165.11C71.7369 203.009 75.0825 240.768 78.9857 278.667C81.4949 302.353 85.8163 325.761 93.2045 348.891C102.684 378.569 118.715 405.181 144.225 427.475C168.62 448.793 197.615 464.398 229.677 475.823C278.328 493.24 328.512 507.034 379.253 519.574C409.503 527.098 440.45 532.532 470.978 538.941C493.561 543.818 516.005 549.113 537.333 557.473C571.207 570.709 593.65 592.306 603.687 622.681C609.403 639.958 611.912 657.514 613.445 675.209C615.257 698.06 616.373 721.05 618.603 743.901C625.852 820.255 645.507 894.381 677.569 965.998C681.054 974.637 685.097 982.579 688.861 990.521Z" fill="#CD1D53"/>
<path d="M52.0815 -9.15527e-05C56.4029 -9.13638e-05 60.7243 -9.11749e-05 65.0457 -9.09861e-05C65.1851 0.835908 65.4639 1.53262 65.6033 2.36862C74.6643 42.3573 81.0767 82.6246 86.2345 123.031C91.5317 163.717 96.2713 204.402 101.847 245.087C105.472 271.7 110.769 298.034 119.272 323.95C137.812 380.798 178.099 422.737 240.271 449.768C261.6 459.103 283.764 466.767 306.208 474.012C342.73 485.855 379.393 497.141 417.867 503.551C449.232 508.845 480.736 513.722 512.241 518.877C534.266 522.5 556.152 526.819 576.922 534.483C599.226 542.703 617.07 555.104 627.664 574.053C632.264 582.274 635.192 591.052 637.283 599.969C641.743 619.894 642.022 639.958 641.743 660.161C641.186 689.143 639.652 717.985 641.186 746.966C644.81 815.657 660.702 882.259 687.885 946.909C688.303 947.745 688.861 948.442 689.279 949.278C689.279 956.663 689.279 964.187 689.279 971.571C688.861 970.735 688.164 970.039 687.885 969.203C683.563 959.171 679.103 949.139 675.06 938.967C654.568 888.111 640.628 836 633.519 782.635C629.197 750.728 627.525 718.821 627.246 686.774C627.106 664.899 626.27 643.023 621.53 621.427C618.324 606.657 612.888 592.585 602.99 579.905C590.305 563.743 572.322 553.153 551.691 545.629C530.363 537.827 507.919 533.229 485.337 528.909C455.644 523.336 425.813 518.181 396.26 512.05C358.204 504.247 321.542 492.265 284.74 480.979C261.6 473.873 238.877 465.791 217.27 455.759C159.977 429.007 122.618 389.297 105.75 335.793C98.3622 312.107 93.4832 288.141 90.5558 263.758C85.2586 220.007 80.6585 176.117 75.5007 132.367C71.1793 96.0006 65.6033 59.7739 57.6575 23.8259C55.7059 16.0232 53.7543 8.08127 52.0815 -9.15527e-05Z" fill="#CD1D53"/>
<path d="M76.4765 3.05176e-05C80.9373 3.07126e-05 85.5375 3.09136e-05 89.9983 3.11086e-05C89.9983 0.83603 89.9983 1.67203 90.1377 2.36868C97.2471 48.6274 104.217 94.886 111.326 141.005C116.624 175.142 121.642 209.279 127.636 243.276C132.097 268.495 139.206 293.297 149.383 317.401C169.317 364.496 204.167 401.001 255.884 425.803C276.376 435.695 297.844 443.777 319.451 451.579C353.185 463.562 387.478 474.012 423.582 479.864C455.644 485.019 488.125 488.363 520.605 491.568C545.139 493.937 569.813 496.166 593.929 500.764C606.893 503.272 619.718 506.337 631.846 511.075C654.847 520.131 668.508 535.319 673.108 556.219C674.642 563.464 675.618 570.988 675.896 578.373C676.872 603.871 673.108 629.229 669.623 654.588C666.138 680.783 662.793 706.977 662.235 733.451C661.399 782.914 668.09 831.541 681.751 879.611C683.842 886.717 686.351 893.684 688.582 900.79C688.582 909.847 688.582 918.903 688.582 927.96C688.164 927.124 687.606 926.288 687.327 925.452C682.309 910.404 676.733 895.356 672.272 880.169C653.592 816.633 647.18 752.261 652.198 686.913C654.011 662.809 655.265 638.704 656.102 614.599C656.52 601.223 654.847 587.847 651.223 574.611C644.671 551.342 628.779 534.622 603.13 524.451C588.214 518.599 572.601 514.419 556.57 512.05C528.411 507.731 500.252 503.69 471.954 500.067C422.188 493.658 373.398 484.183 326.56 468.16C297.983 458.267 269.267 448.793 242.362 435.835C202.076 416.328 170.432 389.855 149.522 354.603C136.418 332.449 128.054 308.902 122.06 284.797C112.86 248.292 108.538 211.369 103.241 174.445C96.5501 126.933 89.5801 79.5593 82.6101 32.1859C81.3555 21.4573 78.7069 10.7287 76.4765 3.05176e-05Z" fill="#CD1D53"/>
<path d="M-7.99997 437.646C-7.72117 438.203 -7.44237 438.621 -7.30297 439.179C3.70962 474.151 29.638 498.813 67.1366 515.255C89.9982 525.287 114.254 532.253 138.928 537.827C173.22 545.351 207.791 552.457 242.362 559.284C281.813 566.947 320.287 577.537 358.204 589.38C383.435 597.322 408.806 604.567 433.062 614.599C453.414 622.959 472.372 632.991 488.543 646.507C508.616 663.087 521.859 683.151 531.06 705.166C541.933 731.082 549.879 757.555 557.825 784.168C574.413 839.205 591.838 894.241 613.863 948.024C627.106 979.513 641.186 1011.14 656.799 1042.21C657.217 1043.19 657.496 1044.02 657.914 1045C654.429 1045 651.083 1045 647.598 1045C647.319 1044.16 647.041 1043.47 646.622 1042.63C636.028 1019.36 625.015 996.233 614.7 972.825C590.444 917.231 570.928 860.383 552.109 803.257C542.491 774.136 532.733 745.155 519.908 716.87C512.38 700.429 503.18 684.823 490.216 670.89C472.372 651.662 449.65 637.729 424.14 626.443C402.394 616.829 379.532 609.444 356.67 602.059C321.402 590.495 285.716 579.766 248.635 572.939C210.719 566.111 172.941 559.423 135.164 552.178C107.981 547.023 81.0766 541.171 55.0088 532.393C31.3108 524.451 9.98262 513.443 -6.46658 496.723C-6.88478 496.305 -7.44238 496.027 -7.86058 495.609C-7.99998 476.381 -7.99997 457.013 -7.99997 437.646Z" fill="#CD1D53"/>
<path d="M688.86 518.738C687.606 517.345 686.351 515.812 685.097 514.419C679.381 507.731 671.714 502.854 663.211 499.092C647.459 492.125 630.452 488.503 613.027 486.691C586.262 483.765 559.358 481.536 532.593 479.585C498.58 477.077 464.705 474.43 431.11 469.553C392.357 463.841 355.834 452.555 320.008 439.039C298.959 431.097 278.188 422.737 258.672 412.427C212.81 388.322 181.584 354.325 162.486 312.107C150.498 285.773 142.552 258.603 137.534 230.875C131.121 195.345 125.545 159.537 120.109 123.867C113.836 83.4607 108.12 43.0541 102.126 2.64734C101.987 1.81135 101.987 0.836003 101.847 4.76837e-06C106.169 4.95727e-06 110.49 5.14616e-06 114.811 5.33505e-06C114.951 0.836004 115.23 1.53266 115.23 2.36872C119.133 30.514 123.036 58.52 126.939 86.6654C133.073 130.695 138.788 174.585 148.267 218.196C154.401 246.62 162.347 274.626 174.753 301.657C193.433 342.342 222.846 376.061 266.757 399.887C305.789 421.065 347.888 436.81 392.078 448.514C428.043 457.989 465.263 461.751 502.622 463.701C538.587 465.513 574.831 466.488 610.796 468.299C637.282 469.553 663.629 471.365 689 478.61C688.861 491.847 688.86 505.223 688.86 518.738Z" fill="#CD1D53"/>
<path d="M-7.99998 553.989C-7.99998 545.072 -7.99998 536.154 -7.99998 527.376C-0.751179 530.86 6.35822 534.761 13.8858 537.826C33.123 545.629 53.6148 550.924 74.3854 554.686C115.09 561.931 155.934 568.758 196.779 575.307C246.126 583.11 294.916 592.445 341.336 609.165C365.034 617.664 389.151 625.049 411.873 635.36C437.522 646.924 460.663 661.136 478.924 680.504C493.004 695.412 502.762 712.132 511.265 729.549C525.205 758.112 535.799 787.651 546.254 817.19C568.977 881.562 592.675 945.516 621.252 1008.22C626.828 1020.62 632.822 1032.88 638.537 1045.14C634.913 1045.14 631.149 1045.14 627.525 1045.14C627.106 1044.16 626.828 1043.05 626.409 1042.07C615.676 1017.69 604.105 993.586 594.208 968.924C573.856 918.485 554.479 867.907 534.684 817.468C523.672 789.462 511.962 761.596 497.883 734.426C476.833 694.158 443.238 663.923 396.818 644.138C380.229 637.032 363.222 630.622 346.215 624.352C316.523 613.484 286.413 603.592 254.63 597.6C211.834 589.38 168.48 583.946 125.127 578.094C80.3796 571.824 35.0746 567.365 -7.99998 553.989Z" fill="#CD1D53"/>
<path d="M126.8 7.62939e-06C131.121 7.81829e-06 135.443 8.00718e-06 139.764 8.19608e-06C142.273 22.4327 144.782 45.0047 147.57 67.4374C153.007 112.163 159.141 156.889 169.456 201.058C175.869 228.785 184.093 256.234 196.639 282.568C210.3 311.271 228.701 337.187 255.327 358.644C273.449 373.274 293.94 385.117 316.105 395.149C348.306 409.64 381.205 422.737 417.031 429.704C450.347 436.253 484.082 438.9 518.096 439.597C563.122 440.572 608.009 438.343 652.895 436.253C664.884 435.695 677.011 435.277 689 434.859C689 441.826 689 448.653 689 455.62C665.581 454.923 642.161 453.809 618.742 453.53C578.177 453.112 537.612 453.948 497.186 451.719C465.124 449.907 433.34 446.703 402.394 439.457C364.059 430.54 328.372 416.328 293.94 399.887C259.787 383.585 231.071 361.988 209.743 333.703C192.039 310.295 180.329 284.797 171.408 258.185C158.722 220.147 151.474 181.133 145.758 141.981C139.764 101.017 134.467 59.9133 129.03 18.81C128.054 12.4007 127.497 6.27 126.8 7.62939e-06Z" fill="#CD1D53"/>
<path d="M688.861 402.255C688.861 407.689 688.861 413.123 688.861 418.557C667.811 420.508 646.762 422.598 625.712 424.27C578.735 428.032 531.757 430.122 484.64 427.196C452.717 425.245 421.213 421.205 390.823 411.869C361.689 402.952 333.948 391.248 307.602 377.454C274.843 360.316 247.799 338.162 227.865 310.156C212.113 288.141 201.239 264.455 192.736 239.932C178.238 197.993 170.293 155.217 164.438 112.024C160.535 83.4608 157.468 54.8973 154.262 26.1947C153.286 17.4167 152.728 8.63874 152.031 -0.139244C156.492 -0.139244 161.092 -0.139244 165.553 -0.139243C165.692 3.34406 165.832 6.68803 166.111 10.1714C169.874 63.2574 175.59 116.204 186.742 168.454C193.433 200.083 202.355 231.293 216.434 261.25C230.235 290.649 248.914 317.401 276.097 339.555C296.171 355.997 319.451 368.676 343.846 379.962C380.926 397.1 420.097 408.804 462.196 412.845C498.44 416.328 534.684 416.328 571.068 414.238C610.657 412.287 649.829 407.829 688.861 402.255Z" fill="#CD1D53"/>
<path d="M-7.99998 592.167C-7.99998 586.036 -7.99998 579.766 -7.99998 573.635C-7.02418 573.775 -6.04838 573.775 -5.21198 573.914C17.092 577.119 39.2566 580.741 61.5606 583.389C109.096 589.101 156.771 594.396 204.446 599.83C271.218 607.493 332.694 628.254 391.52 655.285C422.049 669.357 448.117 687.889 467.493 712.551C481.155 729.967 492.028 748.499 501.646 767.727C517.399 799.495 530.223 832.238 543.188 864.981C566.886 925.452 591.42 985.644 618.603 1045C614.979 1045 611.215 1045 607.59 1045C607.312 1044.02 607.033 1042.91 606.615 1041.93C596.857 1019.36 586.82 996.791 577.341 974.219C556.291 924.337 535.799 874.456 514.75 824.714C503.319 797.823 490.076 771.489 473.766 746.409C452.438 713.526 423.582 686.774 384.969 667.825C372.562 661.694 359.737 656.26 346.912 650.687C298.541 629.508 247.241 616.689 193.433 610.419C150.637 605.403 107.841 601.92 64.9062 598.715C40.5112 596.765 16.2556 594.257 -7.99998 592.167Z" fill="#CD1D53"/>
<path d="M688.861 374.389C688.861 379.126 688.861 383.863 688.861 388.601C678.266 390.273 667.811 392.084 657.217 393.756C608.706 400.862 559.916 405.739 510.568 405.042C482.967 404.624 455.644 402.534 428.74 397.1C383.575 387.904 343.567 369.512 306.626 346.383C281.534 330.638 261.739 310.853 246.126 288.002C234.277 270.725 225.216 252.472 217.828 233.523C203.191 195.903 194.827 157.029 188.833 117.876C182.699 78.8626 179.493 39.5707 177.82 0.278694C182.56 0.278694 187.299 0.278695 192.039 0.278695C192.457 49.8814 197.197 99.2053 207.094 148.111C213.228 178.625 221.731 208.721 234.556 237.703C246.405 264.176 261.878 288.977 284.182 310.435C317.36 342.203 359.458 363.103 405.6 378.429C437.801 389.158 471.815 392.223 506.107 393.059C542.909 393.895 579.432 391.387 615.676 386.371C640.21 382.749 664.605 378.429 688.861 374.389Z" fill="#CD1D53"/>
<path d="M-7.99998 622.681C-7.99998 617.665 -7.99998 612.509 -7.99998 607.493C-6.32718 607.493 -4.51498 607.633 -2.84218 607.633C12.7706 608.469 28.5228 609.444 44.1356 610.28C89.3012 612.37 134.606 614.321 179.493 619.476C210.997 623.099 242.223 627.418 272.612 635.778C305.929 644.974 336.876 658.35 367.265 672.701C406.994 691.372 438.219 717.706 461.639 750.589C476.554 771.628 489.519 793.643 499.695 816.493C518.235 857.736 536.078 899.118 553.921 940.5C568.977 975.333 583.753 1010.17 598.529 1045C594.905 1045 591.281 1045 587.517 1045C583.474 1035.11 579.432 1025.08 575.25 1015.18C552.249 962.097 529.666 908.871 506.107 855.925C493.561 827.501 479.064 799.773 461.081 773.439C442.68 746.548 420.516 722.165 391.52 702.658C370.332 688.307 346.634 677.439 322.796 666.849C289.48 652.08 254.63 641.63 217.549 636.057C171.826 629.09 125.685 625.885 79.4038 624.771C50.2692 624.074 21.1346 623.377 -7.99998 622.681Z" fill="#CD1D53"/>
<path d="M688.861 350.005C688.861 354.185 688.861 358.365 688.861 362.545C688.442 362.685 688.024 362.824 687.606 362.824C643.695 371.463 599.505 378.569 554.479 381.216C527.017 382.749 499.555 382.749 472.094 380.101C432.365 376.479 396.121 364.914 361.828 347.915C318.057 326.179 283.067 297.477 259.927 259.021C244.593 233.383 233.998 206.353 226.331 178.347C210.161 119.687 204.027 60.0527 205.003 -0.139267C209.882 -0.139267 214.901 -0.139267 219.919 -0.139266C217.967 36.2267 219.78 72.5927 225.077 108.68C230.513 145.464 239.296 181.412 253.933 216.385C274.564 265.709 309.414 305.558 362.804 333.007C386.781 345.407 411.455 356.415 439.056 362.267C476.973 370.209 515.308 371.323 554.061 368.955C597.972 366.307 640.907 359.201 683.563 350.423C685.376 350.423 687.048 350.284 688.861 350.005Z" fill="#CD1D53"/>
<path d="M-7.99998 649.294C-7.99998 644.696 -7.99998 640.237 -7.99998 635.639C-6.88478 635.639 -5.90898 635.5 -4.79378 635.5C11.7948 635.5 28.3834 635.639 44.8326 635.639C86.9314 635.778 128.891 636.336 170.711 640.655C199.288 643.581 227.447 647.482 255.187 654.31C280.279 660.58 303.28 670.89 326.421 680.922C379.811 704.191 421.91 737.352 452.438 781.103C471.118 807.716 486.173 835.861 499.834 864.424C526.599 920.576 550.297 977.702 574.134 1034.83C575.528 1038.17 576.783 1041.52 578.038 1044.86C574.413 1044.86 570.649 1044.86 567.025 1044.86C566.607 1043.75 566.467 1042.49 566.049 1041.52C551.691 1007.38 537.612 973.244 522.835 939.246C506.804 902.462 489.937 865.957 469.445 830.706C453.972 804.093 436.268 778.595 413.546 755.884C386.223 728.574 353.046 707.814 316.244 690.397C283.485 674.931 249.332 663.088 212.252 657.514C181.305 652.777 150.08 649.433 118.715 648.876C79.4038 648.318 39.9536 648.876 0.642816 649.015C-2.14518 649.015 -5.07258 649.154 -7.99998 649.294Z" fill="#CD1D53"/>
<path d="M233.998 1.53434e-05C239.296 1.55749e-05 244.732 1.58126e-05 250.169 1.60502e-05C249.472 5.15535 248.635 10.3107 248.217 15.3267C244.593 51.9713 246.963 88.3374 253.654 124.564C259.509 156.193 268.709 187.125 283.625 216.663C314.014 276.855 367.544 315.869 439.613 337.465C469.306 346.383 500.671 347.915 531.896 347.497C572.462 346.801 612.191 341.367 651.501 333.703C664.047 331.335 676.593 328.409 689 325.761C689 329.941 689 334.121 689 338.301C687.467 338.58 686.073 338.859 684.539 339.137C665.441 342.76 646.483 346.661 627.246 350.005C584.868 357.111 542.072 361.013 498.719 358.923C460.942 357.111 424.837 349.727 391.52 333.982C358.901 318.516 329.209 299.985 306.068 274.905C285.576 252.611 271.358 227.671 261.042 200.919C238.041 141.423 230.095 80.256 232.465 17.974C232.744 12.122 233.441 5.99135 233.998 1.53434e-05Z" fill="#CD1D53"/>
<path d="M389.569 1.65899e-05C397.793 1.69494e-05 405.879 1.73028e-05 414.103 1.76623e-05C410.2 6.96669 406.157 14.0727 402.254 21.1787C385.805 50.996 378.835 82.0674 383.017 114.811C393.472 195.763 474.882 247.317 549.6 250.661C577.201 251.775 604.663 250.521 631.846 246.759C650.944 244.251 669.902 240.768 688.861 237.842C688.861 241.883 688.861 245.784 688.861 249.825C676.036 252.054 663.211 254.423 650.386 256.652C617.767 261.947 584.868 265.709 551.412 264.873C482.27 263.201 428.461 237.145 391.939 188.657C353.046 137.104 350.119 81.6494 375.768 24.9407C379.671 16.4414 384.969 8.36 389.569 1.65899e-05Z" fill="#CD1D53"/>
<path d="M301.747 1.57898e-05C308.996 1.61066e-05 316.384 1.64296e-05 323.633 1.67464e-05C316.523 15.048 311.365 30.514 308.856 46.6767C302.862 84.854 307.88 122.335 320.426 159.119C340.361 217.221 382.459 259.439 447.28 285.633C473.627 296.362 501.786 300.263 530.781 300.96C561.867 301.796 592.675 299.009 623.064 293.993C645.089 290.371 666.975 285.912 688.861 281.732C688.861 285.633 688.861 289.395 688.861 293.157C679.939 295.108 671.017 297.059 661.956 298.87C622.367 306.812 582.638 312.943 541.794 313.5C514.471 313.918 487.288 312.664 461.499 305.001C400.163 287.027 353.046 254.283 324.33 204.681C295.753 155.357 286.273 102.549 290.595 47.9307C291.849 31.7681 295.892 15.7447 301.747 1.57898e-05Z" fill="#CD1D53"/>
<path d="M343.706 1.61936e-05C351.652 1.65409e-05 359.598 1.68882e-05 367.544 1.72355e-05C343.567 39.5707 336.179 81.3707 344.961 125.261C353.604 168.733 376.047 206.074 416.194 235.055C447.699 257.767 483.385 272.675 525.344 275.88C551.273 277.97 577.062 276.855 602.851 274.208C631.846 271.143 660.562 265.987 689 260.275C689 264.037 689 267.938 689 271.7C649.689 279.921 610.239 287.027 569.674 289.395C542.769 290.928 516.005 290.649 489.797 284.937C437.104 273.372 395.842 247.735 365.034 210.254C344.821 185.731 333.669 158.004 327.257 128.744C317.499 84.2967 321.82 41.382 343.706 1.61936e-05Z" fill="#CD1D53"/>
<path d="M688.861 303.747C688.861 307.787 688.861 311.689 688.861 315.729C673.945 318.795 659.168 321.999 644.392 324.647C604.524 332.171 564.376 337.326 523.393 336.908C493.004 336.629 462.893 333.843 434.595 323.95C368.519 300.821 319.729 262.504 292.546 205.935C278.606 176.953 269.824 146.857 264.806 115.925C259.23 81.6494 257.836 47.0947 263.133 12.6793C263.83 8.49931 264.388 4.31935 265.085 1.54893e-05C271.358 1.57635e-05 277.491 1.60316e-05 283.764 1.63058e-05C282.51 5.15535 280.976 10.45 279.861 15.7447C273.867 45.562 273.867 75.5187 277.909 105.475C282.37 139.612 291.571 172.634 308.159 204.123C336.179 257.488 383.993 293.297 447.977 314.057C475.16 322.975 504.016 324.925 533.011 324.786C571.207 324.647 608.845 319.631 646.065 312.525C660.423 309.877 674.642 306.673 688.861 303.747Z" fill="#CD1D53"/>
<path d="M-7.99998 672.701C-7.99998 668.661 -7.99998 664.759 -7.99998 660.719C7.33402 660.301 22.668 659.743 38.1414 659.325C78.0098 658.211 117.878 657.932 157.747 661.276C180.19 663.087 202.215 666.153 224.24 670.193C257.278 676.324 286.97 688.864 315.826 703.076C367.265 728.295 408.945 761.875 439.892 804.789C454.808 825.55 467.633 847.147 479.342 869.301C503.04 914.584 523.253 960.982 542.491 1007.52C547.509 1020.06 552.388 1032.46 557.267 1045C553.643 1045 549.879 1045 546.254 1045C532.454 1011.98 519.211 978.817 504.713 946.073C488.543 909.289 470.142 873.341 448.256 838.787C417.309 790.02 375.629 749.753 319.869 720.214C297.844 708.649 275.818 697.224 251.284 689.561C215.319 678.414 177.82 673.816 139.764 671.587C107.144 669.636 74.3854 670.193 41.7658 671.169C25.3166 671.587 8.72802 672.144 -7.99998 672.701Z" fill="#CD1D53"/>
<path d="M688.861 214.991C688.861 219.171 688.861 223.351 688.861 227.531C678.545 229.064 668.09 230.736 657.774 232.129C628.64 236.309 599.505 239.235 569.952 238.399C541.654 237.563 514.75 232.547 489.658 220.565C425.534 189.911 393.611 135.293 404.345 74.4041C407.691 55.4547 415.358 37.4807 424.558 20.0641C428.043 13.3761 431.668 6.68804 435.292 3.19598e-05C443.238 3.23071e-05 451.184 3.26544e-05 459.129 3.30018e-05C454.111 9.8927 448.953 19.6461 444.353 29.5387C436.407 46.5374 429.855 63.8147 427.764 82.2067C423.304 123.171 437.662 158.561 473.488 186.846C503.737 210.811 539.981 222.794 581.523 223.769C607.869 224.327 633.937 222.376 659.865 219.032C669.763 217.917 679.242 216.385 688.861 214.991Z" fill="#CD1D53"/>
<path d="M535.938 1045C532.035 1045 528.132 1045 524.368 1045C524.089 1044.02 523.95 1043.05 523.531 1042.07C515.864 1022.71 508.616 1003.2 500.53 984.111C483.524 944.123 464.147 904.97 440.728 867.35C407.272 813.707 361.549 769.677 300.491 737.352C270.799 721.607 240.131 707.813 205.421 701.265C178.935 696.249 152.03 693.462 124.987 692.347C89.0216 690.954 53.1958 692.208 17.37 693.741C9.00603 694.159 0.64203 694.298 -7.72197 694.577C-7.72197 690.815 -7.72197 686.913 -7.72197 683.151C-6.74617 683.151 -5.77037 683.291 -4.79457 683.291C12.6304 682.594 30.0554 681.897 47.341 681.34C86.6518 680.086 125.823 679.947 164.995 683.709C211.275 688.167 254.908 699.035 294.915 719.796C332.972 739.581 368.1 762.153 396.817 791.413C421.351 816.493 440.867 844.499 457.735 873.899C482.827 917.231 503.04 962.236 521.58 1007.8C526.738 1020.06 531.198 1032.6 535.938 1045Z" fill="#CD1D53"/>
<path d="M479.9 3.18103e-05C487.567 3.21455e-05 495.373 3.24867e-05 503.18 3.28279e-05C502.483 1.67205 501.786 3.48339 501.089 5.15538C493.701 22.5721 486.452 39.9887 481.991 58.2413C477.391 77.1907 475.997 96.14 481.991 115.089C493.143 150.062 520.884 172.495 559.497 186.289C579.432 193.395 600.899 194.788 622.367 194.927C644.671 195.067 666.835 193.255 688.861 191.026C688.861 195.345 688.861 199.665 688.861 204.123C682.03 204.959 675.199 205.795 668.508 206.492C642.58 209.418 616.651 211.369 590.305 210.115C563.401 208.861 538.169 203.427 515.308 190.887C472.372 167.2 449.511 134.317 450.347 90.5667C450.765 72.4534 455.644 55.0367 462.754 38.038C468.19 25.2193 474.185 12.6794 479.9 3.18103e-05Z" fill="#CD1D53"/>
<path d="M-7.99999 715.755C-7.99999 712.133 -7.99999 708.51 -7.99999 704.887C9.98261 704.051 28.1046 703.076 46.0872 702.519C85.398 701.125 124.848 700.986 164.02 705.584C194.548 709.067 224.24 715.059 251.981 726.902C279.025 738.327 304.535 752.121 328.372 767.866C372.004 796.708 405.46 832.517 431.946 873.341C458.154 913.609 478.645 955.966 496.489 999.299C502.762 1014.35 508.198 1029.67 514.053 1045C510.01 1045 505.828 1045 501.786 1045C501.507 1044.3 501.228 1043.61 501.089 1042.91C482.27 988.291 458.154 935.345 425.952 885.185C390.545 830.009 341.755 785.561 278.188 752.957C252.957 739.999 226.889 728.713 197.894 722.583C163.183 715.337 127.915 712.272 92.368 712.69C58.7726 713.108 25.456 714.641 -7.99999 715.755Z" fill="#CD1D53"/>
<path d="M490.773 1045C486.312 1045 481.712 1045 477.251 1045C477.112 1043.89 476.973 1042.63 476.554 1041.52C461.639 994.979 440.868 950.253 413.824 907.757C377.859 851.187 327.815 805.904 262.854 772.185C229.398 754.908 194.13 742.368 155.098 737.491C123.036 733.59 90.8346 732.475 58.6332 733.172C36.3292 733.729 14.1646 734.844 -7.99999 735.68C-7.99999 732.197 -7.99999 728.713 -7.99999 725.369C-6.32719 725.23 -4.65439 724.951 -2.84219 724.951C11.9342 724.255 26.85 723.558 41.6264 723.001C79.2644 721.607 116.902 721.607 154.262 726.066C182.699 729.41 210.161 735.123 236.089 745.851C312.759 777.898 372.701 824.853 414.94 887.693C442.401 928.517 463.59 971.571 480.597 1016.16C484.082 1025.63 487.428 1035.39 490.773 1045Z" fill="#CD1D53"/>
<path d="M465.681 1045C460.941 1045 456.202 1045 451.462 1045C451.323 1044.72 451.183 1044.3 451.044 1044.02C440.31 1004.59 423.164 967.252 401.139 931.443C363.779 870.973 310.529 823.46 240.829 788.905C212.949 775.111 183.814 764.383 151.891 759.506C121.084 754.908 89.9979 753.236 58.7723 753.793C36.6077 754.072 14.3037 755.187 -7.86095 756.023C-7.86095 752.4 -7.86095 748.777 -7.86095 745.155C-6.60635 745.155 -5.35175 745.294 -3.95775 745.155C4.40625 744.737 12.7703 744.319 21.1343 744.04C59.1905 742.507 97.2466 741.811 135.163 745.712C162.904 748.499 189.948 753.236 215.318 763.407C278.885 788.766 332.275 824.853 373.956 872.784C403.508 906.781 425.255 944.401 443.098 983.693C451.88 1003.76 459.547 1024.24 465.681 1045Z" fill="#CD1D53"/>
<path d="M-7.99999 795.733C-7.99999 792.11 -7.99999 788.487 -7.99999 784.865C-4.37559 784.725 -0.751189 784.725 3.01261 784.586C36.608 783.611 70.3428 783.332 103.799 786.537C131.121 789.184 157.607 794.061 182.699 803.814C240.69 826.525 290.037 858.851 329.627 901.208C369.356 943.705 396.26 991.217 406.297 1045C399.884 1045 393.472 1045 386.92 1045C386.781 1043.75 386.781 1042.49 386.641 1041.24C382.459 1013.65 371.865 987.595 357.089 962.793C322.936 905.667 271.776 862.055 206.815 829.73C182.142 817.469 156.353 807.158 127.915 802.142C82.8888 794.061 37.5838 794.339 -7.99999 795.733Z" fill="#CD1D53"/>
<path d="M437.941 1045C432.643 1045 427.207 1045 421.77 1045C421.352 1043.19 421.213 1041.24 420.655 1039.43C394.727 942.311 333.112 866.235 232.744 813.289C210.858 801.724 187.996 791.692 163.044 785.422C133.77 778.177 103.659 774.972 73.2702 774.693C46.2266 774.415 19.0436 775.251 -7.99999 775.669C-7.99999 772.185 -7.99999 768.702 -7.99999 765.358C34.0988 763.407 76.1976 762.153 118.296 765.915C144.782 768.423 170.85 772.743 195.385 781.939C252.678 803.675 301.607 835.025 342.033 875.431C376.047 909.429 400.442 948.163 418.843 989.685C426.928 1007.66 433.48 1026.05 437.941 1045Z" fill="#CD1D53"/>
<path d="M368.798 1045C361.41 1045 354.161 1045 346.912 1045C346.634 1040.82 346.494 1036.5 345.937 1032.32C341.058 1000.55 326.56 971.85 305.929 945.237C278.467 909.568 242.502 881.144 200.403 858.154C174.056 843.803 146.455 831.263 115.787 824.714C90.277 819.28 64.3486 817.051 38.1414 816.354C22.8074 815.936 7.33401 816.075 -7.99999 815.797C-7.99999 812.174 -7.99999 808.551 -7.99999 804.929C-6.74539 804.929 -5.49079 805.068 -4.09679 805.068C22.5286 804.65 49.0146 804.511 75.5006 806.601C102.823 808.691 129.727 812.313 155.098 821.649C209.603 841.434 256.442 870.137 295.334 908.035C325.863 937.853 348.725 971.432 361.41 1009.47C365.174 1021.03 368.101 1032.88 368.798 1045Z" fill="#CD1D53"/>
<path d="M326.28 1045C318.335 1045 310.389 1045 302.443 1045C302.304 1044.3 302.164 1043.75 302.164 1043.19C300.491 1010.45 287.527 980.907 266.199 954.015C241.246 922.526 208.766 897.585 171.268 877.103C148.545 864.703 124.708 854.113 98.5008 847.704C72.7118 841.434 46.2258 839.205 19.6004 838.09C10.5394 837.672 1.33902 837.533 -7.72198 837.115C-7.72198 833.353 -7.72198 829.451 -7.72198 825.689C-6.46738 825.829 -5.21278 825.829 -3.81878 825.968C16.2548 826.665 36.3284 826.804 56.402 828.058C81.9122 829.591 107.144 833.353 130.702 841.713C187.996 862.195 236.646 892.569 275.26 933.951C298.4 958.753 315.407 986.201 322.795 1017.27C324.608 1026.33 325.026 1035.66 326.28 1045Z" fill="#CD1D53"/>
<path d="M688.861 164.971C688.861 169.708 688.861 174.445 688.861 179.043C686.77 179.183 684.818 179.183 682.727 179.322C663.072 180.576 643.416 181.273 623.761 180.158C599.784 178.765 576.922 174.167 556.431 162.741C528.551 147.136 510.429 126.097 505.131 97.812C502.065 81.2314 503.459 64.7901 508.059 48.6274C512.659 32.3254 518.514 16.302 523.811 0.139314C531.339 0.139314 538.866 0.139314 546.394 0.139315C546.115 1.25398 545.976 2.50798 545.697 3.62265C539.981 22.0147 534.963 40.546 533.29 59.6347C531.757 77.0513 533.708 94.1894 542.63 110.073C557.685 136.547 582.777 152.988 616.373 160.233C636.307 164.553 656.659 165.11 677.151 164.971C681.054 164.831 684.957 164.971 688.861 164.971Z" fill="#CD1D53"/>
<path d="M-7.99999 859.965C-7.99999 855.924 -7.99999 852.023 -7.99999 847.982C4.68541 848.54 17.3708 848.818 29.9168 849.794C53.1966 851.466 76.4764 854.392 98.3622 861.637C152.171 879.332 197.476 907.199 233.72 945.237C253.514 965.998 268.151 989.127 274.843 1015.32C277.352 1025.07 278.188 1035.25 279.722 1045.14C270.939 1045.14 262.018 1045.14 253.236 1045.14C253.096 1042.63 253.236 1040.12 252.957 1037.61C250.308 1013.09 240.968 990.242 225.216 969.62C191.342 924.894 143.667 894.241 85.9556 874.316C56.124 863.727 24.062 861.358 -7.99999 859.965Z" fill="#CD1D53"/>
<path d="M229.399 1045C220.198 1045 210.858 1045 201.658 1045C201.658 1043.89 201.658 1042.77 201.519 1041.8C199.428 1024.8 193.991 1008.77 184.93 993.447C171.548 970.735 152.589 951.786 129.728 935.623C94.7382 910.822 55.5668 892.987 9.70423 886.857C3.71003 886.021 -2.14477 885.324 -8.13897 884.488C-8.13897 880.169 -8.13897 875.71 -8.13897 871.391C-7.72077 871.391 -7.30257 871.251 -6.88437 871.251C17.2318 872.923 41.348 875.431 64.2096 882.398C109.375 896.331 148.128 918.485 180.051 948.721C202.076 969.621 218.386 993.168 225.495 1020.62C227.726 1028.7 228.283 1036.92 229.399 1045Z" fill="#CD1D53"/>
<path d="M688.861 150.759C667.811 150.619 646.901 149.087 626.967 142.956C603.827 135.85 585.705 123.31 573.019 105.475C563.401 92.0994 559.358 77.1907 558.661 61.5854C557.825 42.218 561.449 23.1294 566.049 4.18004C566.467 2.78671 566.607 1.3934 566.886 -0.139251C574.831 -0.139251 582.777 -0.139251 590.723 -0.13925C590.584 0.139406 590.305 0.557344 590.305 0.836015C587.796 16.0233 585.983 31.35 587.099 46.6767C588.353 63.536 592.953 79.6987 604.245 94.05C624.318 119.409 653.871 130.834 688.861 133.76C688.861 139.473 688.861 145.185 688.861 150.759Z" fill="#CD1D53"/>
<path d="M147.57 1045C146.455 1040.4 145.479 1035.66 143.946 1031.21C133.77 1000.13 112.442 975.194 83.7252 954.573C56.821 935.205 26.4318 920.854 -7.99999 913.33C-7.99999 908.035 -7.99999 902.88 -7.99999 897.585C23.2256 901.487 51.6632 911.519 78.2886 925.731C111.466 943.287 138.928 965.58 157.886 994.701C168.062 1010.45 174.475 1027.17 176.566 1045C166.808 1045 157.189 1045 147.57 1045Z" fill="#CD1D53"/>
<path d="M688.861 116.483C679.242 114.95 670.46 111.745 662.096 107.426C633.379 92.5174 617.488 70.6421 612.609 42.7755C610.239 29.6781 610.378 16.5808 611.354 3.48348C611.494 2.36882 611.354 1.11482 611.354 0.000152617C619.579 0.000152976 627.664 0.00015333 635.889 0.000153689C635.889 12.5401 637.701 24.9408 641.186 37.2021C646.344 55.3155 657.217 70.6421 673.666 83.1821C678.266 86.6654 683.842 89.4521 688.861 92.5175C688.861 100.459 688.861 108.541 688.861 116.483Z" fill="#CD1D53"/>
<path d="M688.861 871.391C687.188 865.121 685.376 858.851 683.982 852.581C675.06 813.149 671.296 773.3 672.83 733.172C673.805 706.559 677.848 680.225 682.866 654.031C684.679 644.695 686.351 635.221 688.164 625.885C688.303 625.049 688.721 624.074 689 623.238C689 647.064 689 670.751 689 694.577C688.721 695.413 688.442 696.249 688.303 697.224C682.309 735.959 682.169 774.833 687.188 813.707C687.606 817.19 688.442 820.673 689 824.157C688.861 839.762 688.861 855.646 688.861 871.391Z" fill="#CD1D53"/>
</g>
<defs>
<clipPath id="clip0">
<rect width="1045" height="697" fill="white" transform="translate(-8 1045) rotate(-90)"/>
</clipPath>
</defs>
</svg>
