<svg width="821" height="619" viewBox="0 0 821 619" fill="none" xmlns="http://www.w3.org/2000/svg">
<path d="M157.612 387.728L470.967 569.109C478.413 573.405 486.857 575.666 495.453 575.666C504.049 575.666 512.493 573.405 519.939 569.109L694.135 469.097C697.108 467.39 699.58 464.931 701.304 461.967C703.028 459.003 703.944 455.638 703.958 452.209C703.973 448.78 703.086 445.408 701.387 442.429C699.689 439.451 697.237 436.971 694.279 435.239L367.685 243.797C364.697 242.057 361.301 241.14 357.843 241.14C354.386 241.14 350.99 242.057 348.001 243.797L157.632 353.829C154.656 355.544 152.183 358.013 150.464 360.987C148.744 363.962 147.837 367.336 147.835 370.772C147.833 374.208 148.736 377.584 150.452 380.561C152.168 383.537 154.637 386.009 157.612 387.728Z" fill="#FDF2D6"/>
<path d="M322.242 379.002L420.475 444.335C459.76 421.072 455.655 424.727 455.655 424.727L383.12 383.662C383.12 383.662 362.841 387.769 362.225 384.443C361.609 381.116 352.168 369.926 352.168 369.926L327.989 367.873L322.242 379.002Z" fill="url(#paint0_linear_102:736)"/>
<path d="M417.273 513.651L507.111 575.72C546.273 552.437 567.373 539.378 567.373 539.378L499.784 521.762L417.273 513.651Z" fill="url(#paint1_linear_102:736)"/>
<path d="M517.333 332.085L631.328 398.343C631.328 398.343 620.594 417.376 581.432 440.66L474.127 373.15" fill="url(#paint2_linear_102:736)"/>
<path d="M617.967 375.059L627.223 371.261L623.426 367.77L617.967 375.059Z" fill="#6C8FC1"/>
<path d="M358.079 35.4568L367.664 31.6173L366.063 36.7093L359.988 36.9967L358.079 35.4568Z" fill="#6C8FC1"/>
<path d="M631.062 196.573L631.329 364.444C631.335 365.768 630.995 367.071 630.342 368.223C629.688 369.374 628.744 370.335 627.604 371.008C626.464 371.681 625.168 372.043 623.844 372.059C622.52 372.074 621.216 371.743 620.06 371.097L372.939 232.73C370.446 231.339 368.359 229.321 366.883 226.876C365.407 224.431 364.594 221.644 364.524 218.789L360.009 41.5754C359.961 39.7821 360.395 38.0089 361.266 36.4408C362.138 34.8728 363.414 33.5675 364.961 32.6613C366.509 31.755 368.271 31.281 370.065 31.2888C371.858 31.2966 373.616 31.7858 375.156 32.7055L621.456 179.49C624.394 181.267 626.822 183.774 628.505 186.768C630.188 189.761 631.069 193.139 631.062 196.573Z" fill="#A11741"/>
<path opacity="0.1" d="M631.062 196.573L631.329 364.444C631.335 365.768 630.995 367.071 630.342 368.223C629.688 369.374 628.744 370.335 627.604 371.008C626.464 371.681 625.168 372.043 623.844 372.059C622.52 372.074 621.216 371.743 620.06 371.097L372.939 232.73C370.446 231.339 368.359 229.321 366.883 226.876C365.407 224.431 364.594 221.644 364.524 218.789L360.009 41.5754C359.961 39.7821 360.395 38.0089 361.266 36.4408C362.138 34.8728 363.414 33.5675 364.961 32.6613C366.509 31.755 368.271 31.281 370.065 31.2888C371.858 31.2966 373.616 31.7858 375.156 32.7055L621.456 179.49C624.394 181.267 626.822 183.774 628.505 186.768C630.188 189.761 631.069 193.139 631.062 196.573Z" fill="black"/>
<path d="M441.595 253.016L468.545 292.458C468.545 292.458 472.28 303.34 459.76 311.553C447.24 319.766 415.631 336.459 415.631 336.459L478.807 376.024L527.185 348.511C527.185 348.511 548.715 340.524 524.352 295.99" fill="#A11741"/>
<path d="M441.595 253.016L468.545 292.458C468.545 292.458 472.28 303.34 459.76 311.553C447.24 319.766 415.631 336.459 415.631 336.459L478.807 376.024L527.185 348.511C527.185 348.511 548.715 340.524 524.352 295.99" fill="#A11741"/>
<path opacity="0.3" d="M441.595 253.016L468.545 292.458C468.545 292.458 472.28 303.34 459.76 311.553C447.24 319.766 415.631 336.459 415.631 336.459L478.807 376.024L527.185 348.511C527.185 348.511 548.715 340.524 524.352 295.99" fill="black"/>
<path d="M623.18 199.899L623.447 367.77C623.452 369.096 623.11 370.399 622.454 371.551C621.798 372.702 620.851 373.662 619.709 374.333C618.566 375.004 617.268 375.364 615.943 375.376C614.618 375.388 613.313 375.052 612.158 374.402L365.037 236.036C362.544 234.644 360.457 232.627 358.981 230.182C357.505 227.737 356.692 224.949 356.622 222.094L352.106 44.8811C352.059 43.0878 352.493 41.3145 353.364 39.7465C354.235 38.1785 355.511 36.8732 357.059 35.9669C358.607 35.0607 360.369 34.5867 362.163 34.5945C363.956 34.6022 365.714 35.0915 367.254 36.0112L613.554 182.796C616.498 184.572 618.933 187.081 620.619 190.079C622.306 193.076 623.189 196.459 623.18 199.899Z" fill="#A11741"/>
<path d="M610.66 195.895V337.034L362.595 191.152V49.6035L610.66 195.895Z" fill="white"/>
<path d="M574.187 272.542L553.847 266.69L552.82 287.387L561.195 279.687L568.05 297.345L579.626 291.309L565.751 277.306L574.187 272.542Z" fill="#1AA4B2"/>
<path d="M557.069 250.737V251.373C557.069 252.782 556.695 254.165 555.986 255.382C555.278 256.599 554.259 257.606 553.035 258.301C551.81 258.996 550.423 259.354 549.016 259.338C547.608 259.322 546.229 258.933 545.021 258.211L424.375 186.081C423.192 185.374 422.213 184.373 421.533 183.174C420.853 181.976 420.496 180.622 420.496 179.244C420.494 177.837 420.866 176.454 421.572 175.238C422.278 174.021 423.294 173.013 424.516 172.316C425.738 171.619 427.122 171.259 428.529 171.271C429.935 171.283 431.314 171.668 432.523 172.386L553.149 243.797C554.354 244.507 555.351 245.523 556.039 246.741C556.727 247.959 557.082 249.338 557.069 250.737Z" fill="#FDF2D6"/>
<path d="M442.396 161.668C442.833 162.744 443.383 163.769 444.038 164.728C444.428 165.282 444.962 165.775 445.31 166.35L445.803 166.863C445.803 167.657 445.865 167.739 445.988 167.109C446.47 165.925 446.795 164.683 446.952 163.414L448.02 159.307C448.091 159.054 448.219 158.82 448.394 158.624C448.569 158.428 448.787 158.274 449.031 158.175C449.274 158.076 449.537 158.034 449.8 158.052C450.062 158.07 450.317 158.149 450.544 158.28C452.625 159.856 454.213 161.993 455.121 164.44C454.473 161.843 453.973 159.21 453.623 156.556C453.171 153.188 452.905 149.821 452.679 146.433C452.515 143.826 451.714 139.945 454.608 138.467C457.502 136.989 459.35 139.576 460.171 141.855C461.075 145.106 461.409 148.489 461.156 151.854C461.089 155.418 460.67 158.967 459.904 162.448C459.685 163.448 459.438 164.433 459.165 165.405C459.247 165.939 459.336 166.473 459.432 167.007C460.225 169.453 461.249 171.818 462.49 174.07C462.623 174.308 462.693 174.577 462.693 174.85C462.693 175.123 462.623 175.392 462.49 175.63C463.001 176.511 463.757 177.224 464.666 177.683C467.252 178.813 467.087 175.281 467.046 173.7C467.061 172.178 466.79 170.666 466.246 169.245L465.445 167.848C464.296 165.795 467.129 164.379 468.422 166.103C468.759 166.565 469.047 167.061 469.284 167.582L474.62 176.801C474.969 177.416 475.544 179.018 476.118 179.388C476.693 179.757 476.632 180.086 477.042 178.936C477.568 177.004 477.939 175.034 478.15 173.043C478.499 171.113 481.599 171.585 481.537 173.495C481.453 175.619 481.882 177.732 482.789 179.654C482.912 179.434 483.008 179.2 483.076 178.956C483.183 178.552 483.44 178.204 483.795 177.983C484.15 177.761 484.575 177.684 484.985 177.766C485.185 177.534 485.445 177.363 485.736 177.27C486.027 177.176 486.338 177.165 486.635 177.237C486.932 177.31 487.203 177.462 487.419 177.679C487.635 177.895 487.787 178.166 487.859 178.464C488.495 182.244 489.699 185.906 491.43 189.325C492.703 191.378 493.729 189.797 494.242 188.175C494.774 186.303 495.132 184.385 495.309 182.447C495.341 182.16 495.441 181.885 495.602 181.645C495.763 181.406 495.979 181.209 496.233 181.071C496.254 180.837 496.328 180.61 496.45 180.409C496.572 180.207 496.738 180.037 496.937 179.91C497.135 179.783 497.359 179.703 497.593 179.677C497.827 179.65 498.064 179.678 498.285 179.757C499.882 180.312 501.317 181.252 502.463 182.495C503.609 183.738 504.43 185.245 504.853 186.882C505.279 188.488 505.459 190.149 505.387 191.81C506.172 194.245 507.328 196.544 508.815 198.626C510.375 200.844 513.741 205.587 516.614 202.733C517.221 202.098 517.628 201.298 517.784 200.433C515.978 199.986 514.382 198.927 513.269 197.435C511.77 195.382 510.888 192.097 512.591 189.941C512.977 189.504 513.45 189.154 513.981 188.914C514.512 188.675 515.088 188.551 515.67 188.551C516.253 188.551 516.828 188.675 517.359 188.914C517.89 189.154 518.364 189.504 518.749 189.941C520.237 191.762 521.094 194.017 521.191 196.368C521.544 196.438 521.863 196.626 522.094 196.902C523.81 198.749 525.771 200.352 527.924 201.665C528.842 198.848 529.967 196.103 531.29 193.452C533.014 189.88 535.169 185.732 533.855 181.687C532.85 178.607 527.513 173.043 524.64 177.314C522.053 181.174 525.871 185.527 528.314 188.34C529.771 190.003 527.349 192.446 525.871 190.783C522.053 186.451 517.456 179.429 522.731 174.213C528.006 168.998 535.477 175.425 537.098 180.763C539.479 188.319 533.342 195.567 531.228 202.425L530.879 203.513C534.088 205.01 537.147 206.811 540.013 208.892C541.221 209.726 542.092 210.964 542.468 212.383C542.844 213.803 542.702 215.31 542.065 216.633C541.254 217.902 540.089 218.905 538.713 219.518C537.338 220.132 535.813 220.328 534.327 220.082C532.806 219.865 531.362 219.277 530.12 218.372C528.878 217.466 527.877 216.27 527.205 214.888C526.06 211.765 525.973 208.353 526.959 205.176C524.89 203.96 522.95 202.536 521.171 200.926C520.881 202.768 519.96 204.453 518.564 205.689C517.58 206.585 516.326 207.128 514.999 207.232C513.672 207.336 512.349 206.996 511.237 206.264C508.033 204.015 505.495 200.944 503.889 197.374L503.499 197.805C500.933 200.392 497.937 197.949 496.849 195.3C496.507 194.464 496.219 193.607 495.987 192.733C495.513 193.342 494.873 193.799 494.144 194.051C493.416 194.302 492.63 194.337 491.882 194.15C489.624 193.74 488.413 191.584 487.612 189.633C486.656 187.298 485.847 184.904 485.19 182.467C484.633 183.152 483.932 183.705 483.138 184.089C482.741 184.31 482.274 184.37 481.834 184.255C481.395 184.14 481.016 183.86 480.778 183.473C480.362 182.815 479.991 182.129 479.669 181.42C478.684 183.473 477.165 184.829 474.723 183.268C472.67 182.016 471.665 178.874 470.618 176.965C470.536 178.062 470.106 179.105 469.389 179.94C468.673 180.775 467.708 181.358 466.636 181.605C461.607 182.55 458.652 176.965 457.133 171.914L456.476 175.261C456.107 177.17 453.048 176.718 453.089 174.809C453.089 170.99 452.966 166.432 450.626 163.249C450.23 164.769 449.833 166.281 449.436 167.787C449.005 169.388 448.43 171.093 446.48 171.113C442.909 171.113 440.179 165.508 439.071 162.756C438.25 160.58 441.575 159.615 442.396 161.668ZM530.879 214.107C531.383 214.804 532.03 215.384 532.777 215.809C533.525 216.234 534.354 216.494 535.21 216.571C536.893 216.695 539.315 215.75 539.315 213.738C539.315 211.726 536.482 210.35 534.943 209.467C533.404 208.584 531.639 207.64 529.997 206.757C529.624 207.983 529.511 209.273 529.663 210.545C529.815 211.818 530.229 213.045 530.879 214.149V214.107ZM516.799 192.918C516.224 191.974 515.301 191.378 515.136 192.918C515.127 193.726 515.387 194.513 515.875 195.156C516.351 195.857 517.012 196.412 517.784 196.758C517.717 195.438 517.382 194.145 516.799 192.959V192.918ZM498.758 189.181C498.881 190.044 500.112 196.101 501.344 194.664C501.754 194.056 501.982 193.343 502 192.61C501.795 191.892 501.59 191.194 501.446 190.557C501.381 190.301 501.379 190.033 501.44 189.775C501.5 189.518 501.622 189.279 501.795 189.079C501.795 188.689 501.652 188.34 501.569 188.073C501.132 186.388 500.086 184.925 498.634 183.966C498.481 185.704 498.523 187.453 498.758 189.181ZM457.482 145.243C457.482 144.873 456.928 141.567 456.209 141.69C455.491 141.814 456.086 144.647 456.107 144.996C456.373 149.246 456.681 153.538 457.338 157.747C457.543 156.207 457.708 154.646 457.769 153.086C457.899 150.468 457.802 147.844 457.482 145.243Z" fill="#A11741"/>
<path d="M450.38 218.789C452.937 218.79 455.488 218.536 457.995 218.029C463.739 216.811 469.15 214.359 473.853 210.842C478.556 207.325 482.438 202.828 485.232 197.661C491.199 186.593 493.1 173.783 490.607 161.457C488.113 149.131 481.382 138.069 471.582 130.192C467.029 126.47 461.705 123.806 455.997 122.392C450.289 120.978 444.338 120.85 438.574 122.017C432.811 123.184 427.378 125.617 422.668 129.14C417.959 132.663 414.09 137.188 411.341 142.389C405.244 153.411 403.334 166.267 405.964 178.587C410.746 202.178 429.793 218.789 450.38 218.789ZM446.275 129.761C453.611 129.853 460.708 132.381 466.451 136.947C474.624 143.573 480.236 152.84 482.322 163.155C484.409 173.47 482.839 184.189 477.884 193.473C475.685 197.578 472.621 201.157 468.903 203.961C465.186 206.765 460.903 208.728 456.353 209.714C437.613 213.512 418.751 198.811 414.338 176.862C412.107 166.576 413.66 155.831 418.71 146.598C420.909 142.492 423.973 138.913 427.69 136.109C431.408 133.305 435.69 131.342 440.241 130.357C442.214 129.958 444.221 129.759 446.234 129.761H446.275Z" fill="#A11741"/>
<path d="M408.448 187.354L340.222 221.006C340.222 221.006 337.472 229.938 343.424 232.196C349.377 234.455 418.772 196.984 418.772 196.984" fill="#A11741"/>
<g opacity="0.25">
<path opacity="0.25" d="M450.38 218.789C452.937 218.79 455.488 218.536 457.995 218.029C463.739 216.811 469.15 214.359 473.853 210.842C478.556 207.325 482.438 202.828 485.232 197.661C491.199 186.593 493.1 173.783 490.607 161.457C488.113 149.131 481.382 138.069 471.582 130.192C467.029 126.47 461.705 123.806 455.997 122.392C450.289 120.978 444.338 120.85 438.574 122.017C432.811 123.184 427.378 125.617 422.668 129.14C417.959 132.663 414.09 137.188 411.341 142.389C405.244 153.411 403.334 166.267 405.964 178.587C410.746 202.178 429.793 218.789 450.38 218.789ZM446.275 129.761C453.611 129.853 460.708 132.381 466.451 136.947C474.624 143.573 480.236 152.84 482.322 163.155C484.409 173.47 482.839 184.189 477.884 193.473C475.685 197.578 472.621 201.157 468.903 203.961C465.186 206.765 460.903 208.728 456.353 209.714C437.613 213.512 418.751 198.811 414.338 176.862C412.107 166.576 413.66 155.831 418.71 146.598C420.909 142.492 423.973 138.913 427.69 136.109C431.408 133.305 435.69 131.342 440.241 130.357C442.214 129.958 444.221 129.759 446.234 129.761H446.275Z" fill="black"/>
<path opacity="0.25" d="M408.448 187.354L340.222 221.006C340.222 221.006 337.472 229.938 343.424 232.196C349.377 234.455 418.772 196.984 418.772 196.984" fill="black"/>
</g>
<path d="M371.277 207.126C375.382 205.073 379.364 202.904 383.222 200.618C383.919 199.114 384.693 197.647 385.542 196.224C386.116 195.088 387.029 194.159 388.154 193.563C389.279 192.967 390.56 192.735 391.822 192.898C392.367 192.917 392.881 193.151 393.253 193.55C393.624 193.948 393.822 194.478 393.803 195.023C393.784 195.567 393.549 196.082 393.151 196.454C392.753 196.825 392.223 197.023 391.679 197.004L391.35 197.394C396.235 197.62 405.02 198.339 403.029 203.143C403.207 203.285 403.372 203.443 403.521 203.615C404.024 204.223 404.275 205.001 404.221 205.788C404.168 206.575 403.814 207.311 403.234 207.845C402.801 208.264 402.269 208.566 401.688 208.724C401.106 208.882 400.494 208.891 399.909 208.748C399.532 209.511 398.878 210.101 398.081 210.398C397.284 210.696 396.404 210.679 395.619 210.35L394.429 209.98C394.462 210.278 394.423 210.58 394.317 210.86C394.21 211.14 394.039 211.391 393.816 211.591C393.593 211.792 393.326 211.937 393.037 212.014C392.747 212.09 392.443 212.097 392.151 212.034L388.046 211.253C378.912 214.169 374.355 215.216 370.928 217.557C369.512 218.522 370.928 218.891 370.928 217.557C370.767 217.351 370.651 217.114 370.586 216.862C370.52 216.609 370.507 216.346 370.548 216.088C370.588 215.83 370.681 215.583 370.821 215.363C370.96 215.142 371.143 214.952 371.359 214.805L371.749 214.518C371.338 214.18 371.074 213.696 371.012 213.168C370.951 212.639 371.097 212.107 371.42 211.685L371.913 211.13C371.485 211.037 371.096 210.817 370.795 210.498C370.495 210.18 370.297 209.778 370.228 209.346C370.16 208.913 370.223 208.47 370.41 208.074C370.597 207.678 370.899 207.348 371.277 207.126Z" fill="#FF7D09"/>
<path d="M324.48 347.567L322.242 379.001L326.183 382.41L330.555 381.28C330.555 381.28 330.001 372.965 331.52 371.138C333.039 369.31 335.625 378.344 337.164 378.303C338.704 378.262 356.458 373.499 356.724 371.322C357.073 368.407 353.071 365.163 345.518 366.928C337.308 368.982 335.912 359.701 334.619 350.872" fill="#F8997C"/>
<path d="M337.267 353.87C337.267 353.87 329.508 357.176 316.167 348.634C316.167 348.634 320.785 306.933 320.375 299.747C319.964 292.561 311.959 240.717 321.873 229.281C331.787 217.844 349.541 327.835 348.699 328.41" fill="#1AA4B2"/>
<path d="M330.781 372.349L331.52 371.138C332.085 370.596 332.784 370.215 333.546 370.035C334.307 369.854 335.103 369.881 335.851 370.111C337.903 371.097 337.677 378.57 337.677 378.57L330.268 375.798C330.19 374.625 330.365 373.449 330.781 372.349Z" fill="#9E005D"/>
<path d="M348.699 362.986L349.479 394.503L353.728 397.521L357.977 395.982C357.977 395.982 356.622 387.769 357.977 385.715C359.331 383.662 362.8 392.491 364.278 392.306C365.755 392.122 383.038 385.695 383.079 383.498C383.079 380.582 378.85 377.646 371.503 380.192C363.559 382.944 361.24 373.909 359.188 365.245" fill="#F8997C"/>
<path d="M357.32 387.05L357.935 385.777C358.446 385.185 359.104 384.739 359.844 384.487C360.584 384.234 361.377 384.183 362.143 384.34C364.38 385.12 364.77 392.553 364.77 392.553L357.114 390.5C356.938 389.348 357.007 388.172 357.32 387.05Z" fill="#9E005D"/>
<path d="M351.265 241.579C351.265 241.579 364.442 277.141 367.439 292.561C370.435 307.981 370.538 365.717 369.491 367.278C368.444 368.838 355.596 371.569 346.913 371.384C338.231 371.199 339.463 303.114 339.463 303.114C339.463 303.114 315.921 243.448 322.222 236.878C328.523 230.307 351.265 241.579 351.265 241.579Z" fill="#1AA4B2"/>
<path d="M351.798 242.237C339.832 246.014 324.644 241.477 317.316 231.211C318.692 214.374 321.586 186.553 325.896 182.385C332.053 176.349 345.661 184.931 350.526 193.329C353.05 197.682 357.812 213.142 357.812 213.142L376.285 202.63L381.888 215.73C381.888 215.73 369.265 239.526 352.188 234.106L351.798 242.237Z" fill="#5F2052"/>
<path d="M340.284 211.356C340.284 211.168 340.359 210.988 340.491 210.855C340.624 210.722 340.804 210.648 340.992 210.648C341.18 210.648 341.36 210.722 341.493 210.855C341.626 210.988 341.7 211.168 341.7 211.356C341.7 216.715 341.864 222.423 344.451 227.248C345.431 229.297 346.919 231.06 348.772 232.372C350.626 233.684 352.784 234.499 355.041 234.742C355.945 234.742 355.945 236.2 355.041 236.159C352.639 235.934 350.329 235.117 348.32 233.781C346.31 232.444 344.664 230.63 343.527 228.5C340.53 223.265 340.243 217.105 340.284 211.356Z" fill="white"/>
<path d="M346.729 151.772C347.694 151.977 349.253 153.517 351.593 159.02C353.933 164.522 348.33 171.524 345.908 172.981C343.486 174.439 339.956 180.168 339.956 180.168C339.956 180.168 331.027 182.324 325.013 171.38C319 160.436 332.238 148.61 346.729 151.772Z" fill="#FFB468"/>
<path d="M349.253 157.89C349.253 157.89 353.748 176.184 347.201 180.373C340.653 184.562 331.622 173.454 330.781 169.019C329.939 164.584 334.681 154.995 349.253 157.89Z" fill="#FF7D09"/>
<path d="M349.253 157.89C349.253 157.89 350.362 169.84 344.184 172.468C338.006 175.096 337.862 178.854 337.862 178.854C337.862 178.854 326.553 172.797 325.362 167.438C324.172 162.079 340.592 153.106 349.253 157.89Z" fill="#FFB468"/>
<path d="M328.4 172.263C330.658 190.187 326.122 213.122 333.572 229.938C334.024 230.964 335.009 235.646 335.789 235.625L317.727 225.77C310.482 221.273 305.207 218.378 307.793 207.003C310.379 195.628 324.952 171.401 324.952 171.401L328.4 172.263Z" fill="#FFB468"/>
<path d="M356.027 204.19C357.169 208.931 358.06 213.728 358.695 218.563C358.818 219.466 357.402 219.446 357.279 218.563C356.652 213.838 355.775 209.151 354.651 204.519C354.446 203.677 355.801 203.308 356.027 204.19Z" fill="white"/>
<path d="M330.576 180.353L332.259 176.718C335.572 178.434 339.001 179.916 342.521 181.153C346.77 182.447 345.579 187.313 345.579 187.313C345.579 187.313 335.789 187.375 330.576 180.353Z" fill="#5FAD00"/>
<path d="M432.113 445.895C434.949 443.732 438.213 442.195 441.688 441.388C445.163 440.581 448.769 440.522 452.268 441.214C460.191 442.959 467.026 447.928 475.092 449.16C476.365 449.345 481.455 449.016 482.235 449.755C504.669 471.006 441.944 468.727 441.944 468.727C435.787 463.738 430.122 458.831 424.088 453.8C425.894 449.694 428.973 448.072 432.113 445.895Z" fill="#F8997C"/>
<path d="M461.628 476.694L463.865 540.775C463.865 543.197 460.171 543.197 460.088 540.775L457.851 476.673C457.708 474.25 461.546 474.25 461.628 476.694Z" fill="#F8997C"/>
<path d="M414.605 510.982C426.031 499.799 436.977 488.13 447.445 475.975C449.025 474.127 451.694 476.817 450.113 478.644C439.714 490.786 428.767 502.455 417.273 513.651C415.529 515.356 412.86 512.769 414.605 510.982Z" fill="#F8997C"/>
<path d="M474.723 470.76C483.59 487.5 491.943 504.501 499.784 521.762C500.789 523.959 497.526 525.868 496.52 523.671C488.68 506.424 480.326 489.424 471.459 472.669C470.33 470.513 473.594 468.604 474.723 470.76Z" fill="#F8997C"/>
<path d="M425.114 451.87C428.893 457.042 434.209 460.886 440.302 462.855C448.882 465.421 461.34 464.21 465.856 455.381C474.066 439.304 466.348 419.183 475.01 403.558C476.009 401.558 477.42 399.793 479.15 398.377C480.88 396.962 482.889 395.929 485.047 395.345C490.65 394.134 494.509 398.281 496.541 403.168C500.194 411.935 500.071 422.858 499.886 432.18C499.879 439.739 499.324 447.287 498.224 454.765C498.224 454.765 492.99 486.097 452.084 477.679C445.012 476.417 438.213 473.937 431.99 470.349C428.809 468.549 426.019 466.134 423.78 463.245C421.317 459.755 422.959 455.484 425.114 451.87Z" fill="#A11741"/>
<path d="M249.543 85.8224L241.538 83.9745L152.891 135.038L154.348 309.685L157.673 311.553" fill="#DD654A"/>
<path d="M249.543 85.8223L250.569 258.17L157.673 311.553V137.789L249.543 85.8223Z" fill="#F8997C"/>
<path d="M246.279 95.1646V255.726L161.881 302.478V142.881L246.279 95.1646Z" fill="#FDF2D6"/>
<path d="M217.647 138.98V163.311L233.718 155.611V135.038" fill="#F8997C"/>
<path d="M234.929 129.166L217.565 138.98C217.565 138.98 216.682 155.201 221.28 159.8L237.002 152.039C237.002 152.039 231.666 140.007 234.929 129.166Z" fill="white"/>
<path d="M175.653 168.341V199.694L196.363 189.756V163.27" fill="#F8997C"/>
<path d="M197.902 155.693L175.653 168.341C175.653 168.341 174.504 189.222 180.456 195.177L200.714 185.178C200.714 185.178 193.715 169.676 197.902 155.693Z" fill="#5FAD00"/>
<path d="M219.371 170.682V195.033L235.463 187.313V166.74" fill="#F8997C"/>
<path d="M236.653 160.867L219.371 170.682C219.371 170.682 218.489 186.902 223.086 191.502L238.808 183.74C238.808 183.74 233.41 171.708 236.653 160.867Z" fill="#5F2052"/>
<path d="M220.315 202.096V226.447L236.386 218.727V198.154" fill="#F8997C"/>
<path d="M237.577 192.282L220.295 202.096C220.295 202.096 219.412 218.317 224.01 222.916L239.752 215.052C239.752 215.052 234.334 203.123 237.577 192.282Z" fill="#5F2052"/>
<path d="M208.103 201.357L174.545 220.082V234.496L208.103 216.202V201.357Z" fill="#5F2052"/>
<path d="M572.648 462.424L637.917 499.238C637.917 499.238 633.997 504.166 594.815 527.429L532.357 479.199" fill="url(#paint3_linear_102:736)"/>
<path d="M574.946 444.355V472.546H529.36V444.355" fill="#F8997C"/>
<path d="M552.143 455.566C539.549 455.566 529.34 450.547 529.34 444.355C529.34 438.164 539.549 433.145 552.143 433.145C564.737 433.145 574.946 438.164 574.946 444.355C574.946 450.547 564.737 455.566 552.143 455.566Z" fill="#DD654A"/>
<path d="M552.143 484.845C539.549 484.845 529.34 479.826 529.34 473.634C529.34 467.443 539.549 462.424 552.143 462.424C564.737 462.424 574.946 467.443 574.946 473.634C574.946 479.826 564.737 484.845 552.143 484.845Z" fill="#F8997C"/>
<path d="M526.63 378.817C531.433 376.763 538.104 370.296 543.933 370.501C545.855 376.093 547.042 381.911 547.463 387.81C548.534 397.395 548.719 407.059 548.017 416.678C547.881 418.827 547.703 420.969 547.484 423.105C547.426 423.733 547.252 424.346 546.971 424.911C546.971 432.344 546.971 439.784 546.971 447.23C546.942 447.397 546.855 447.549 546.726 447.658C546.596 447.768 546.432 447.827 546.263 447.827C546.093 447.827 545.929 447.768 545.799 447.658C545.67 447.549 545.583 447.397 545.554 447.23C545.554 440.071 545.554 432.919 545.554 425.774C543.271 425.019 541.081 424.007 539.028 422.756C534.745 420.066 531.509 415.995 529.853 411.216C526.179 400.95 528.498 389.534 525.009 379.392C525.604 379.207 526.117 379.022 526.63 378.817Z" fill="#297600"/>
<path d="M536.482 362.021C539.201 363.625 541.446 365.92 542.989 368.674C543.4 369.321 543.744 370.009 544.015 370.727L544.22 371.158C544.656 372.312 545.019 373.491 545.308 374.69C544.757 373.783 543.897 373.105 542.886 372.78C541.691 372.256 540.359 372.134 539.089 372.431C537.853 372.907 536.681 373.534 535.6 374.3C533.978 375.285 532.418 376.353 530.797 377.4C523.244 382.205 513.186 382.697 507.357 375.696C507.357 375.429 507.214 375.141 507.152 374.854C506.29 370.008 519.775 352.31 536.482 362.021Z" fill="#5FAD00"/>
<path d="M510.703 378.611L509.759 377.995C509.747 377.898 509.757 377.799 509.789 377.707C509.821 377.614 509.874 377.53 509.944 377.461C514.5 372.78 519.406 368.181 525.645 365.861C530.113 364.165 534.952 363.69 539.664 364.485C540.177 365.081 540.629 365.697 541.08 366.313C535.708 364.905 530.016 365.376 524.947 367.647C519.601 370.285 514.83 373.955 510.908 378.447C510.851 378.515 510.782 378.57 510.703 378.611Z" fill="#297600"/>
<path d="M587.22 388.816C590.531 390.523 593.268 393.164 595.092 396.412C596.917 399.661 597.748 403.373 597.483 407.09C596.949 420.538 574.782 407.418 568.891 396.064C563.001 384.709 562.077 400.909 562.077 400.909" fill="#297600"/>
<path d="M567.27 384.114C571.438 384.039 575.593 384.614 579.585 385.818C582.263 386.459 584.839 387.468 587.241 388.816C585.847 389.752 584.362 390.543 582.807 391.177C579.912 392.036 577.389 393.844 575.644 396.31C575.283 396.961 574.994 397.65 574.782 398.363C573.427 402.798 574.597 408.157 572.73 412.613C570.862 417.068 567.188 420.99 561.954 421.318C555.796 421.708 552.841 415.693 551.691 410.498C550.542 405.303 548.777 398.179 550.747 392.881C553.026 386.639 561.379 384.401 567.27 384.114Z" fill="#5FAD00"/>
<path d="M559.06 405.118C561.687 396.618 567.27 388.693 575.377 384.833H575.685L576.075 384.956L577.553 385.346C568.091 388.857 562.139 398.199 559.696 407.747C556.597 419.963 557.644 433.186 557.644 445.67C557.644 445.844 557.575 446.011 557.451 446.134C557.328 446.257 557.161 446.327 556.987 446.327C556.813 446.327 556.646 446.257 556.523 446.134C556.399 446.011 556.33 445.844 556.33 445.67C556.228 432.344 555.078 418.033 559.06 405.118Z" fill="#297600"/>
<defs>
<linearGradient id="paint0_linear_102:736" x1="304.981" y1="333.379" x2="422.17" y2="428.731" gradientUnits="userSpaceOnUse">
<stop stop-color="#EEAF7D"/>
<stop offset="1" stop-color="#FDF2D6"/>
</linearGradient>
<linearGradient id="paint1_linear_102:736" x1="-29431.5" y1="14377.3" x2="-26559.3" y2="20030.4" gradientUnits="userSpaceOnUse">
<stop stop-color="#EEAF7D"/>
<stop offset="1" stop-color="#FDF2D6"/>
</linearGradient>
<linearGradient id="paint2_linear_102:736" x1="-26408.8" y1="16997.1" x2="-20014.4" y2="24533.7" gradientUnits="userSpaceOnUse">
<stop stop-color="#EEAF7D"/>
<stop offset="1" stop-color="#FDF2D6"/>
</linearGradient>
<linearGradient id="paint3_linear_102:736" x1="-14479.3" y1="14405.3" x2="-11926.1" y2="17780.8" gradientUnits="userSpaceOnUse">
<stop stop-color="#EEAF7D"/>
<stop offset="1" stop-color="#FDF2D6"/>
</linearGradient>
</defs>
</svg>
