<svg width="500" height="377" viewBox="0 0 500 377" fill="none" xmlns="http://www.w3.org/2000/svg">
<path d="M244.025 362.108L19.375 229.279C12.225 225.265 6.08751 218.662 13.0625 214.348L238.525 84.2952C241.913 82.1943 247.05 80.8188 250.487 82.8196L486.25 219.763C493.4 223.914 494.688 235.519 487.5 239.683L273.638 361.895C269.146 364.502 264.052 365.893 258.859 365.93C253.667 365.968 248.554 364.65 244.025 362.108Z" fill="#5F2052"/>
<path style="mix-blend-mode:multiply" opacity="0.63" d="M307.25 256.965L244.75 289.291L298.75 321.904C299.2 321.904 300.462 334.747 297.062 322.829C317.937 311.312 343.987 301.571 358.812 292.429C336.437 277.023 323.5 267.019 307.25 256.965Z" fill="url(#paint0_linear_88:252)"/>
<path style="mix-blend-mode:multiply" opacity="0.63" d="M129.3 198.917L55 240.108L108.988 272.709C109.438 272.709 110.7 285.552 107.3 273.634C128.175 262.117 169.275 240.959 184.1 231.793C161.812 216.386 145.55 208.958 129.3 198.917Z" fill="url(#paint1_linear_88:252)"/>
<path d="M141.525 61.9111V113.845C141.526 114.368 141.664 114.883 141.926 115.336C142.187 115.79 142.564 116.166 143.017 116.429C143.47 116.691 143.984 116.829 144.508 116.83C145.031 116.831 145.546 116.694 146 116.433L215.763 79.8933V21.7073L141.525 61.9111Z" fill="#A11741"/>
<path d="M141.525 61.9112C141.525 61.9112 182.125 68.5889 186.613 67.2008C191.1 65.8128 215.763 21.6824 215.763 21.6824L141.525 61.9112Z" fill="#68E1FD"/>
<path opacity="0.82" d="M141.525 61.9112C141.525 61.9112 182.125 68.5889 186.613 67.2008C191.1 65.8128 215.763 21.6824 215.763 21.6824L141.525 61.9112Z" fill="#CD1D53"/>
<path d="M417.838 84.7079V136.641C417.837 137.165 417.699 137.68 417.437 138.133C417.175 138.587 416.799 138.963 416.345 139.225C415.892 139.488 415.378 139.626 414.855 139.627C414.331 139.628 413.817 139.491 413.363 139.23L343.6 102.74V44.5667L417.838 84.7079Z" fill="#A11741"/>
<path d="M417.838 84.7079C417.838 84.7079 377.25 91.3856 372.75 90.0226C368.25 88.6595 343.6 44.5042 343.6 44.5042L417.838 84.7079Z" fill="#68E1FD"/>
<path opacity="0.82" d="M417.838 84.7079C417.838 84.7079 377.25 91.3856 372.75 90.0226C368.25 88.6595 343.6 44.5042 343.6 44.5042L417.838 84.7079Z" fill="#CD1D53"/>
<path d="M50.7375 100.852C106.813 121.973 88.2375 218.4 88.2375 218.4C88.2375 218.4 93.575 119.985 150.338 85.9209C207.1 51.8571 320.438 40.44 365.925 99.2263C370.138 104.666 374.375 109.293 376.813 115.958C378.69 121.175 379.111 126.804 378.029 132.242C376.948 137.68 374.405 142.72 370.675 146.821C358.725 159.326 335.3 156.5 322.013 147.621C310.05 139.63 302.7 126.625 292.8 116.496C283.438 106.917 272.063 101.802 258.7 105.816C253.108 107.499 248.082 110.677 244.163 115.008C230.038 130.664 229.688 153.999 238.163 172.443" stroke="#2E3192" stroke-width="2.03" stroke-miterlimit="10" stroke-linecap="round" stroke-dasharray="5.07 5.07"/>
<path d="M246.187 273.847L247.812 272.596L246.375 253.614L237.938 253.914C237.938 253.914 238.363 262.03 236.563 264.018C234.763 266.006 229.688 265.043 229.225 265.268C228.763 265.494 225.375 264.756 224 266.369C222.625 267.982 229.475 271.896 233.013 272.446C235.423 272.751 237.866 272.667 240.25 272.196C240.25 272.196 240.65 267.282 241.887 267.682C243.125 268.082 243.6 273.209 243.6 273.209L246.187 273.847Z" fill="#9C4100"/>
<path d="M249.662 214.098C250.362 233.956 251.1 259.816 251.1 259.816C251.1 259.816 246.525 265.981 234.088 263.355C232.75 263.068 229.787 231.43 228.337 214.973C235.291 213.09 242.578 212.791 249.662 214.098Z" fill="#653200"/>
<path d="M224.2 290.141L225.825 288.891L224.388 269.908L215.95 270.208C215.95 270.208 216.375 278.324 214.575 280.312C212.775 282.3 207.7 281.338 207.238 281.563C206.775 281.788 203.388 281.05 202.013 282.663C200.638 284.276 207.488 288.19 211.025 288.741C213.435 289.045 215.879 288.961 218.263 288.49C218.263 288.49 218.663 283.576 219.9 283.976C221.138 284.376 221.613 289.503 221.613 289.503L224.2 290.141Z" fill="#9C4100"/>
<path d="M220.575 217.699C226.122 215.211 232.071 213.741 238.137 213.36C237.1 220.788 236.15 225.94 235.987 226.328C235.575 227.265 227.862 274.435 227.862 274.435C218.738 278.074 207.975 275.035 207.975 275.035C207.975 275.035 211.725 238.232 212 232.092C212 231.434 212.038 230.771 212.113 230.104C212.253 227.46 213.117 224.905 214.609 222.717C216.101 220.53 218.165 218.794 220.575 217.699Z" fill="#653200"/>
<path d="M276.612 228.666C276.612 228.666 261.175 214.823 249.662 214.085C238.15 213.347 221.775 225.165 223.062 232.03C224.35 238.895 246.375 253.651 246.375 253.651" fill="#653200"/>
<path d="M245 203.956L257.3 195.34C257.794 194.996 258.152 194.491 258.311 193.91C258.471 193.33 258.423 192.712 258.175 192.164L249.425 172.981C249.27 172.645 249.045 172.346 248.766 172.103C248.486 171.86 248.159 171.679 247.805 171.572C247.451 171.464 247.078 171.433 246.711 171.48C246.344 171.526 245.991 171.65 245.675 171.843L231.925 180.322C231.369 180.663 230.962 181.202 230.788 181.831C230.614 182.46 230.686 183.132 230.988 183.711L241.25 203.043C241.426 203.361 241.665 203.638 241.954 203.858C242.242 204.078 242.573 204.236 242.925 204.322C243.277 204.407 243.644 204.419 244.001 204.356C244.358 204.293 244.698 204.157 245 203.956Z" fill="#1784AA"/>
<path d="M246.125 203.293L258.425 194.677C258.919 194.334 259.277 193.828 259.436 193.248C259.596 192.667 259.548 192.049 259.3 191.501L250.55 172.318C250.395 171.982 250.17 171.683 249.891 171.44C249.611 171.197 249.284 171.016 248.93 170.909C248.576 170.801 248.203 170.77 247.836 170.817C247.469 170.864 247.116 170.987 246.8 171.18L233.05 179.659C232.494 180 232.087 180.539 231.913 181.168C231.739 181.797 231.811 182.469 232.113 183.048L242.275 202.368C242.448 202.701 242.691 202.993 242.987 203.224C243.283 203.455 243.625 203.62 243.989 203.707C244.354 203.795 244.734 203.804 245.102 203.732C245.47 203.661 245.819 203.511 246.125 203.293Z" fill="#29ABE2"/>
<path d="M244.075 202.118L257.925 192.426L248.838 172.443L233.45 181.935L244.075 202.118Z" fill="#E4F5FD"/>
<path d="M250.487 180.922C255.062 183.423 262.237 186.237 267.05 189.525C267.825 190.051 268.975 191.864 268.212 191.601C268.537 191.964 265.387 193.202 265.712 193.602C265.812 193.74 263.675 192.577 263.562 192.627C261.749 193.578 259.648 193.827 257.662 193.327L256.862 192.752L256.662 192.639C256.627 192.584 256.58 192.537 256.525 192.502L256.4 192.414C256.38 192.3 256.317 192.197 256.225 192.126C255.162 191.301 252.838 190.876 252.588 189.475C252.63 189.106 252.745 188.749 252.925 188.425C252.981 188.341 253.003 188.239 252.987 188.139C252.971 188.039 252.917 187.949 252.837 187.887C252.75 187.472 252.747 187.043 252.828 186.626C252.91 186.209 253.075 185.813 253.312 185.461L253.375 185.386L253.1 185.074C251.848 184.208 250.661 183.251 249.55 182.21C249.428 182.099 249.348 181.948 249.325 181.785C249.312 181.714 249.312 181.642 249.325 181.572C249.348 181.447 249.398 181.328 249.472 181.224C249.546 181.121 249.642 181.035 249.753 180.973C249.864 180.91 249.987 180.874 250.114 180.865C250.241 180.856 250.369 180.876 250.487 180.922Z" fill="#E5B0B0"/>
<path d="M252.687 186.774C252.582 186.882 252.5 187.011 252.446 187.152C252.391 187.293 252.367 187.443 252.372 187.594C252.378 187.745 252.415 187.893 252.48 188.03C252.545 188.166 252.637 188.288 252.75 188.387C252.746 188.412 252.746 188.438 252.75 188.462C252.586 188.736 252.499 189.05 252.499 189.369C252.499 189.688 252.586 190.002 252.75 190.276C253.343 190.91 254.081 191.39 254.9 191.676C255.158 191.811 255.437 191.9 255.725 191.939C256.975 193.927 260.725 194.315 262.562 192.964C262.8 192.789 262.487 192.464 262.25 192.639C260.725 193.777 257.325 193.427 256.162 191.764L256.25 191.664C256.35 191.405 256.383 191.126 256.348 190.851C256.314 190.576 256.211 190.314 256.05 190.088C256.248 189.938 256.425 189.761 256.575 189.563C256.589 189.518 256.589 189.47 256.575 189.425L258.362 190.338C258.625 190.476 258.862 190.088 258.6 189.951L255.775 188.5C255.05 188.112 252.525 187.162 253.275 185.999C254.025 184.836 257.925 187.587 258.825 188.187C259.062 188.35 259.3 187.962 259.062 187.8C257.622 186.802 256.09 185.944 254.487 185.236C253.7 184.898 253.237 184.936 252.85 185.811C252.702 186.109 252.646 186.444 252.687 186.774ZM253.087 188.713L253.45 188.988L254.562 189.675C254.832 189.899 255.136 190.076 255.462 190.201C255.675 190.538 256.025 191.301 255.462 191.451C255.162 191.526 254.45 191.026 254.212 190.851C253.745 190.648 253.339 190.324 253.037 189.913C252.954 189.722 252.916 189.515 252.925 189.307C252.933 189.099 252.989 188.896 253.087 188.713ZM252.887 187.249C253.061 187.489 253.282 187.689 253.537 187.837C254.375 188.35 255.262 188.813 256.15 189.25C255.55 189.938 255.037 189.45 254.412 189.063C253.787 188.675 252.437 188.037 252.9 187.249H252.887Z" fill="#F19C4A"/>
<path d="M264.175 186.112C264.175 186.112 261.087 186.799 260.85 193.227L263.162 198.929L275.75 192.464C275.75 192.464 272.75 188.7 264.175 186.112Z" fill="#68E1FD"/>
<path d="M234.35 189.113C235.287 191.164 236.212 193.014 237.012 195.115C237.587 193.727 238.125 192.614 238.812 191.251C238.842 191.207 238.876 191.165 238.912 191.126C239.043 190.923 239.237 190.769 239.465 190.688C239.692 190.608 239.94 190.605 240.17 190.681C240.399 190.757 240.596 190.907 240.731 191.108C240.865 191.308 240.929 191.548 240.912 191.789C240.693 193.059 240.193 194.263 239.45 195.315C239.557 195.37 239.654 195.442 239.737 195.528C241.55 197.529 241.112 200.53 240.9 203.031C240.89 203.193 240.839 203.349 240.751 203.485C240.664 203.622 240.543 203.733 240.4 203.81C240.257 203.886 240.097 203.925 239.935 203.922C239.774 203.919 239.615 203.875 239.475 203.794C239.304 203.795 239.136 203.752 238.987 203.669C237.362 202.561 236.198 200.898 235.712 198.992C234.612 195.866 233.287 192.414 234.35 189.113Z" fill="#E5B0B0"/>
<path d="M281.325 188.95L276.775 187.612C275.65 187.775 265.8 191.751 261.713 198.692C261.217 200.806 260.883 202.954 260.713 205.119C260.338 208.008 260.038 210.909 259.888 213.873C259.698 217.036 259.748 220.209 260.038 223.364C260.175 224.715 260.263 225.39 260.5 226.728C261.03 227.182 261.635 227.542 262.288 227.791C275.937 232.48 285.95 224.877 286.362 223.789C286.775 222.701 287.425 207.12 287.75 197.854C287.824 195.866 287.231 193.91 286.067 192.297C284.904 190.684 283.234 189.506 281.325 188.95Z" fill="#68E1FD"/>
<path d="M269.287 172.906C269.287 172.906 266.25 188.162 271.9 189.75C277.55 191.339 284.263 185.036 284.75 181.897C285.238 178.758 277.25 167.816 269.287 172.906Z" fill="#E5B0B0"/>
<path d="M271.487 179.009C271.312 178.759 268.05 177.908 267.362 175.182C266.675 172.456 269.162 168.93 274.862 168.379C280.562 167.829 290.075 170.88 288.612 185.736C287.15 200.592 272.087 194.177 271.112 189.488C270.578 186.002 270.705 182.447 271.487 179.009Z" fill="#653200"/>
<path d="M271.488 179.009C271.488 179.009 270.538 184.011 268.463 186.236C266.388 188.462 264.713 192.376 267.213 195.39C269.713 198.404 267.212 200.042 263.625 202.893C260.037 205.744 262.25 217.524 275.2 214.648C288.15 211.772 294.263 204.031 294.263 204.031C294.263 204.031 290.975 180.997 287.5 175.607" fill="#653200"/>
<path d="M261.688 198.917C261.688 198.917 258.75 208.646 255.825 208.921C252.9 209.196 248.45 204.919 245.325 199.329C245.325 199.329 237.187 198.567 236.325 207.133C236.325 207.133 246.65 227.841 261.688 222.789" fill="#68E1FD"/>
<path d="M315.737 273.072C324.987 261.654 329.237 247.049 329.05 232.43C328.941 220.565 324.257 209.199 315.975 200.705C308.337 192.964 296.837 189.138 286.612 194.452C278.137 198.804 274.025 207.17 271.075 215.711C267.5 225.927 266.337 239.07 253.75 242.272C248.85 243.522 243.75 242.659 238.662 242.272C229.912 241.684 220.6 244.51 217.862 253.776C212.962 270.383 235.525 284.564 248.213 289.916C270.288 299.245 296.963 293.342 313.212 275.998C314.071 275.064 314.912 274.089 315.737 273.072Z" fill="#7EC971"/>
<path d="M218.25 254.014C227.225 270.07 256.438 277.323 272.375 276.523C286.837 275.785 295.975 267.057 294.988 252.563C294.45 244.61 291.887 236.669 292.612 228.666C293.862 215.023 306.925 203.819 320.288 206.482C325.993 214.285 329.118 223.676 329.225 233.343C329.413 247.961 325.175 262.567 315.912 273.984C315.079 275.002 314.217 275.994 313.325 276.961C297.075 294.305 270.438 300.208 248.325 290.879C235.638 285.514 213.075 271.346 217.975 254.739C218.075 254.477 218.175 254.251 218.25 254.014Z" fill="#61AF51"/>
<path d="M55 186.311V238.245C55.0006 238.769 55.1387 239.283 55.4006 239.737C55.6625 240.19 56.0389 240.567 56.4921 240.829C56.9453 241.091 57.4594 241.23 57.9829 241.23C58.5065 241.231 59.021 241.094 59.475 240.834L129.238 202.068V146.108L55 186.311Z" fill="#A11741"/>
<path d="M55 186.311C55 186.311 95.5875 192.989 100.088 191.626C104.588 190.263 129.238 146.108 129.238 146.108L55 186.311Z" fill="#68E1FD"/>
<path opacity="0.82" d="M55 186.311C55 186.311 95.5875 192.989 100.088 191.626C104.588 190.263 129.238 146.108 129.238 146.108L55 186.311Z" fill="#CD1D53"/>
<path d="M338.7 141.531L344.075 168.917L361.925 152.936L338.7 141.531Z" fill="#033E93"/>
<path d="M309.9 63.5492L320.775 75.0789L324.512 61.9861L309.9 63.5492Z" fill="#033E93"/>
<path d="M170.788 84.5078L162.825 70.8022L156.213 82.6946L170.788 84.5078Z" fill="#033E93"/>
<path d="M43.4375 98.3385L54.3 109.868L58.05 96.7878L43.4375 98.3385Z" fill="#033E93"/>
<path style="mix-blend-mode:multiply" opacity="0.63" d="M451.463 259.091C462.713 252.438 475.05 247.336 485.7 239.721C474.188 232.218 462.65 224.865 450.7 218.337L420.238 241.546L450.238 259.616L451.463 259.091Z" fill="url(#paint2_linear_88:252)"/>
<path d="M434.325 245.836C447.58 245.836 458.325 235.842 458.325 223.514C458.325 211.186 447.58 201.193 434.325 201.193C421.07 201.193 410.325 211.186 410.325 223.514C410.325 235.842 421.07 245.836 434.325 245.836Z" fill="#68E1FD"/>
<path d="M434.313 220.063C444.24 220.063 452.287 215.707 452.287 210.334C452.287 204.961 444.24 200.605 434.313 200.605C424.385 200.605 416.337 204.961 416.337 210.334C416.337 215.707 424.385 220.063 434.313 220.063Z" fill="#1D3F75"/>
<path d="M433.387 131.952V208.233C433.387 208.641 433.549 209.032 433.838 209.32C434.126 209.609 434.517 209.771 434.925 209.771C435.333 209.771 435.724 209.609 436.012 209.32C436.301 209.032 436.463 208.641 436.463 208.233V131.952C436.463 131.544 436.301 131.153 436.012 130.864C435.724 130.576 435.333 130.414 434.925 130.414C434.517 130.414 434.126 130.576 433.838 130.864C433.549 131.153 433.387 131.544 433.387 131.952Z" fill="#1C7377"/>
<path d="M440.6 129.113C441.07 128.225 441.353 127.25 441.433 126.247C441.512 125.245 441.386 124.238 441.063 123.286C440.363 121.185 439.338 119.159 438.563 117.109C437.788 115.058 437 113.244 436.063 111.356C435.163 111.806 428.725 121.498 428.462 125.574C428.2 129.651 433.55 133.078 433.55 133.078L435.163 134.103C435.45 134.29 438.25 131.977 438.563 131.702C439.401 130.977 440.093 130.099 440.6 129.113Z" fill="#1C7377"/>
<path d="M435.812 151.322C442.612 150.66 447.3 144.932 450.5 138.992C443.287 139.368 436.662 143.919 435.812 151.322Z" fill="#1C7377"/>
<path d="M435.275 151.072C433.213 144.557 426.638 141.156 420.163 139.268C422.038 146.233 427.863 151.773 435.275 151.072Z" fill="#1C7377"/>
<path d="M434.9 170.055C443.55 169.217 449.525 161.927 453.65 154.374C444.425 154.836 435.987 160.614 434.9 170.055Z" fill="#1C7377"/>
<path d="M434.238 169.742C431.613 161.452 423.25 157.125 415.013 154.736C417.375 163.577 424.788 170.63 434.238 169.742Z" fill="#1C7377"/>
<path d="M435.563 192.014C445.413 191.051 452.225 182.748 456.813 174.144C446.425 174.682 436.8 181.272 435.563 192.014Z" fill="#1C7377"/>
<path d="M434.8 191.651C431.813 182.21 422.3 177.27 412.888 174.519C415.588 184.636 424.038 192.677 434.8 191.651Z" fill="#1C7377"/>
<defs>
<linearGradient id="paint0_linear_88:252" x1="322.9" y1="313.025" x2="291.912" y2="280.6" gradientUnits="userSpaceOnUse">
<stop stop-color="white" stop-opacity="0"/>
<stop offset="1" stop-color="#9E005D"/>
</linearGradient>
<linearGradient id="paint1_linear_88:252" x1="13183.2" y1="15816.8" x2="11908.1" y2="13134.1" gradientUnits="userSpaceOnUse">
<stop stop-color="white" stop-opacity="0"/>
<stop offset="1" stop-color="#9E005D"/>
</linearGradient>
<linearGradient id="paint2_linear_88:252" x1="24518.9" y1="8530.73" x2="24292" y2="7927.24" gradientUnits="userSpaceOnUse">
<stop stop-color="white" stop-opacity="0"/>
<stop offset="1" stop-color="#9E005D"/>
</linearGradient>
</defs>
</svg>
