<svg width="821" height="619" viewBox="0 0 821 619" fill="none" xmlns="http://www.w3.org/2000/svg">
<path d="M422.24 595.555L791.116 377.462C802.856 370.871 812.934 360.03 801.481 352.946L431.271 139.411C425.709 135.962 417.273 133.703 411.629 136.989L24.4042 361.898C12.6639 368.715 10.5499 387.769 22.3517 394.606L373.555 595.205C380.938 599.497 389.313 601.787 397.851 601.848C406.39 601.91 414.797 599.74 422.24 595.555Z" fill="#E79365"/>
<path d="M444.654 352.248L451.078 361.693L613.533 443.247L594.527 483.12L436.854 382.677C442.991 371.466 435.13 361.015 444.654 352.248Z" fill="url(#paint0_linear_93:394)"/>
<path d="M328.934 480.964L351.737 476.488L454.362 541.678L395.927 571.963L312.822 493.304C319.041 482.094 319.472 489.732 328.934 480.964Z" fill="url(#paint1_linear_93:394)"/>
<path d="M440.118 39.091L426.427 45.1685L439.584 50.9381L442.745 44.1419" fill="#A11741"/>
<path d="M564.848 441.419L451.119 375.203C446.537 372.535 442.735 368.712 440.091 364.115C437.448 359.518 436.055 354.307 436.054 349.004L432.38 47.8583C432.38 39.9534 444.695 35.9291 451.447 39.9534L569.117 109.393C572.037 111.118 574.456 113.574 576.137 116.519C577.818 119.464 578.702 122.797 578.702 126.189V433.473C578.699 435.093 578.269 436.683 577.456 438.084C576.643 439.484 575.475 440.646 574.07 441.451C572.666 442.257 571.074 442.678 569.455 442.672C567.836 442.667 566.247 442.235 564.848 441.419Z" fill="#A11741"/>
<path d="M573.961 441.522L559.08 449.386L560.805 439.017L571.149 437.149" fill="#A11741"/>
<path d="M550.583 448.975L436.854 382.677C432.272 380.009 428.47 376.186 425.826 371.588C423.183 366.991 421.791 361.781 421.789 356.478V52.4575C421.786 51.0351 422.159 49.6373 422.872 48.4064C423.585 47.1755 424.61 46.1555 425.845 45.4502C427.08 44.745 428.48 44.3797 429.901 44.3915C431.323 44.4034 432.717 44.7919 433.94 45.5176L554.852 116.949C557.772 118.673 560.191 121.129 561.872 124.075C563.553 127.02 564.437 130.353 564.437 133.744V441.009C564.438 442.63 564.01 444.223 563.199 445.626C562.387 447.029 561.22 448.194 559.814 449.002C558.409 449.81 556.816 450.233 555.195 450.228C553.574 450.223 551.984 449.791 550.583 448.975Z" fill="#F4F4F4"/>
<path d="M557.233 152.306L427.659 77.979V343.932L557.233 418.854V152.306Z" fill="#A11741"/>
<path d="M474.56 393.858C473.525 389.524 475.288 385.389 478.496 384.622C481.705 383.856 485.144 386.748 486.179 391.083C487.214 395.418 485.452 399.553 482.243 400.319C479.035 401.086 475.595 398.193 474.56 393.858Z" fill="#BABABC"/>
<path d="M475.523 90.7706C475.525 91.2794 475.66 91.7788 475.916 92.2186C476.172 92.6584 476.539 93.0229 476.98 93.2755L502.021 107.648C502.46 107.899 502.958 108.031 503.465 108.03C503.971 108.029 504.468 107.895 504.906 107.641C505.345 107.388 505.709 107.024 505.962 106.585C506.216 106.147 506.35 105.65 506.352 105.143V104.527C506.35 104.011 506.21 103.504 505.946 103.06C505.683 102.616 505.306 102.251 504.853 102.002L479.813 88.2246C479.372 87.9815 478.874 87.8579 478.371 87.866C477.867 87.8742 477.374 88.0137 476.941 88.2709C476.507 88.5281 476.148 88.894 475.9 89.3324C475.651 89.7708 475.521 90.2666 475.523 90.7706Z" fill="#CCCCCC"/>
<path d="M461.338 84.1092C460.599 82.1099 461.188 80.0488 462.655 79.5057C464.122 78.9625 465.911 80.1429 466.651 82.1423C467.391 84.1416 466.801 86.2027 465.334 86.7458C463.867 87.289 462.078 86.1085 461.338 84.1092Z" fill="#CCCCCC"/>
<path d="M534.225 158.568V211.952C534.232 212.789 534.46 213.609 534.885 214.33C535.31 215.051 535.918 215.647 536.647 216.058L623.57 265.294C624.291 265.701 625.107 265.913 625.935 265.909C626.763 265.905 627.576 265.684 628.293 265.27C629.01 264.855 629.607 264.26 630.024 263.545C630.441 262.829 630.664 262.016 630.672 261.188V210.473C630.675 209.646 630.462 208.833 630.056 208.113C629.649 207.393 629.062 206.791 628.352 206.367L541.429 154.482C540.706 154.05 539.882 153.818 539.041 153.808C538.199 153.798 537.37 154.012 536.638 154.427C535.906 154.843 535.297 155.444 534.873 156.172C534.449 156.899 534.225 157.726 534.225 158.568Z" fill="#FFC745"/>
<path d="M388.99 186.553V189.305C389.003 193.969 390.238 198.549 392.572 202.587C394.905 206.626 398.256 209.982 402.29 212.321L558.034 303.34C560.5 304.777 563.301 305.538 566.155 305.546C569.009 305.554 571.815 304.81 574.289 303.388C576.764 301.966 578.82 299.916 580.251 297.446C581.682 294.976 582.436 292.172 582.438 289.317V286.483C582.437 281.687 581.172 276.976 578.773 272.824C576.373 268.672 572.923 265.225 568.768 262.83L412.778 172.879C410.371 171.498 407.644 170.772 404.868 170.773C402.093 170.774 399.367 171.503 396.961 172.886C394.554 174.269 392.552 176.259 391.154 178.657C389.755 181.055 389.009 183.777 388.99 186.553Z" fill="#FFC745"/>
<path d="M412.819 172.776L433.077 184.438V230.287L402.29 212.301C398.271 209.951 394.937 206.59 392.618 202.553C390.299 198.515 389.077 193.941 389.072 189.284V186.553C389.078 183.774 389.812 181.046 391.201 178.639C392.59 176.233 394.585 174.233 396.988 172.839C399.391 171.445 402.118 170.705 404.895 170.694C407.673 170.683 410.405 171.401 412.819 172.776Z" fill="#C1272D"/>
<path d="M411.334 195.974C409.164 190.602 410.668 184.928 414.694 183.301C418.719 181.674 423.741 184.71 425.911 190.083C428.081 195.455 426.577 201.13 422.552 202.757C418.526 204.383 413.504 201.347 411.334 195.974Z" fill="#C1272D" stroke="white" stroke-width="2.03" stroke-miterlimit="10"/>
<path d="M530.48 163.542C527.869 155.174 530.453 146.923 536.253 145.111C542.053 143.3 548.872 148.614 551.483 156.982C554.095 165.349 551.51 173.6 545.711 175.412C539.911 177.223 533.092 171.909 530.48 163.542Z" fill="#C1272D"/>
<path d="M506.967 151.977L446.829 117.483C446.155 117.057 445.673 116.385 445.484 115.611C445.295 114.836 445.414 114.018 445.815 113.329C446.217 112.64 446.87 112.134 447.637 111.917C448.404 111.7 449.226 111.789 449.929 112.165L510.067 146.659C510.74 147.086 511.223 147.757 511.412 148.532C511.601 149.306 511.482 150.124 511.081 150.813C510.679 151.502 510.026 152.008 509.259 152.226C508.492 152.443 507.67 152.354 506.967 151.977Z" fill="#FFEED9"/>
<path d="M506.967 169.224L446.829 134.73C446.155 134.304 445.673 133.633 445.484 132.858C445.295 132.083 445.414 131.265 445.815 130.576C446.217 129.887 446.87 129.381 447.637 129.164C448.404 128.947 449.226 129.036 449.929 129.412L510.067 163.906C510.74 164.333 511.223 165.004 511.412 165.779C511.601 166.553 511.482 167.371 511.081 168.06C510.679 168.749 510.026 169.256 509.259 169.473C508.492 169.69 507.67 169.601 506.967 169.224Z" fill="#FFEED9"/>
<path d="M506.967 186.471L446.829 151.977C446.155 151.551 445.673 150.88 445.484 150.105C445.295 149.33 445.414 148.512 445.815 147.823C446.217 147.134 446.87 146.628 447.637 146.411C448.404 146.194 449.226 146.283 449.929 146.659L510.067 181.153C510.74 181.58 511.223 182.251 511.412 183.026C511.601 183.8 511.482 184.618 511.081 185.307C510.679 185.996 510.026 186.503 509.259 186.72C508.492 186.937 507.67 186.848 506.967 186.471Z" fill="#FFEED9"/>
<path d="M92.3625 341.345L98.7869 350.79L205.25 406.74L159.541 432.365L76.5994 364.732C82.7158 353.521 83.0031 350.113 92.3625 341.345Z" fill="url(#paint2_linear_93:394)"/>
<path d="M113.852 327.979L107.223 358.777C107.002 359.805 106.551 360.77 105.904 361.598C105.257 362.427 104.43 363.098 103.487 363.561C99.6284 365.45 91.6852 367.421 76.5788 364.67C75.2219 364.423 73.9682 363.781 72.9749 362.824C71.9817 361.867 71.2932 360.638 70.996 359.291L64.2022 327.979" fill="#A11741"/>
<path d="M89.0375 338.081C75.3327 338.081 64.2228 333.53 64.2228 327.917C64.2228 322.304 75.3327 317.754 89.0375 317.754C102.742 317.754 113.852 322.304 113.852 327.917C113.852 333.53 102.742 338.081 89.0375 338.081Z" fill="#124577"/>
<path d="M103.467 305.024C104.632 304.388 105.62 303.47 106.34 302.355L120.318 280.755C126.783 270.735 129.143 198.893 112.108 197.99C98.6431 197.271 84.7887 228.788 79.9654 237.966C75.4499 246.589 70.5034 255.767 67.8146 265.171C63.7096 279.338 72.9663 291.74 81.6895 302.991C85.9587 308.35 97.8632 308.124 103.467 305.024Z" fill="#66C652"/>
<path d="M95.1333 319.191C93.2587 320.56 91.4183 321.929 89.6121 323.298C88.2137 291.279 92.6581 259.274 102.728 228.85C102.971 228.141 103.482 227.556 104.15 227.218C104.819 226.881 105.593 226.818 106.307 227.043C107.022 227.267 107.62 227.762 107.975 228.422C108.33 229.082 108.414 229.854 108.208 230.574C98.7239 259.126 94.2993 289.116 95.1333 319.191Z" fill="#124577"/>
<path d="M75.4089 299.234C75.7235 298.446 75.8364 297.592 75.7373 296.75L73.8284 280.426C72.9459 272.871 44.9087 236.57 36.2061 243.017C29.2892 248.15 35.262 269.277 36.6372 275.766C37.714 282.024 39.4123 288.159 41.7068 294.08C45.4629 302.704 55.0481 305.065 63.8944 307.036C68.1636 307.981 73.89 303.053 75.4089 299.234Z" fill="#49B230"/>
<path d="M49.6295 262.892C62.1235 284.003 72.1115 306.501 79.3907 329.929C77.9654 330.713 76.594 331.591 75.2857 332.558C68.0605 308.979 58.0561 286.344 45.4834 265.13C43.9441 262.522 48.0901 260.223 49.6295 262.892Z" fill="#124577"/>
<path d="M610.968 221.212L550.829 186.718C550.156 186.291 549.674 185.62 549.484 184.845C549.295 184.071 549.414 183.253 549.816 182.564C550.217 181.875 550.87 181.368 551.637 181.151C552.404 180.934 553.226 181.023 553.929 181.4L614.067 215.894C614.741 216.32 615.223 216.991 615.412 217.766C615.601 218.541 615.482 219.359 615.081 220.048C614.679 220.737 614.026 221.243 613.259 221.46C612.492 221.677 611.67 221.588 610.968 221.212Z" fill="#FFEED9"/>
<path d="M610.968 238.397L550.829 203.903C550.225 203.448 549.809 202.787 549.66 202.045C549.512 201.304 549.642 200.533 550.025 199.881C550.408 199.228 551.017 198.74 551.737 198.509C552.458 198.277 553.238 198.319 553.929 198.626L614.067 233.12C614.741 233.547 615.223 234.218 615.412 234.993C615.601 235.767 615.482 236.585 615.081 237.274C614.679 237.963 614.026 238.469 613.259 238.687C612.492 238.904 611.67 238.815 610.968 238.438V238.397Z" fill="#FFEED9"/>
<path d="M537.858 322.846L500.564 302.006C493.647 298.146 499.845 287.489 506.721 291.37L544.015 312.21C550.932 316.07 544.733 326.726 537.858 322.846Z" fill="#FFEED9"/>
<path d="M543.379 341.489L465.055 297.756C462.469 296.298 464.789 292.315 467.395 293.772L545.719 337.506C548.305 338.964 545.986 342.947 543.379 341.489Z" fill="#FFEED9"/>
<path d="M411.937 200.146L402.803 206.305C399.519 208.543 396.42 203.205 399.704 200.987L408.837 194.828C412.121 192.59 415.221 197.928 411.937 200.146Z" fill="white"/>
<path d="M558.424 286.319L442.088 221.458" stroke="white" stroke-width="1.015" stroke-miterlimit="10"/>
<path d="M451.078 294.347L470.022 362.309C470.022 362.309 468.422 380.788 444.428 373.068L428.008 301.369C428.008 301.369 431.682 285.457 451.078 294.347Z" fill="#FF7B39"/>
<path d="M422.815 262.276L434.699 302.56C434.699 302.56 444.961 307.796 448.081 297.838L438.352 258.56L422.815 262.276Z" fill="#3B125E"/>
<path d="M422.815 262.276C429.076 263.858 435.661 263.601 441.78 261.537C465.589 253.324 474.928 219.774 463.044 185.034C451.16 150.293 423.164 129.474 399.416 137.646C387.533 141.752 378.891 152.285 375.115 167.417C371.585 181.502 372.672 198.092 378.173 214.128C383.674 230.164 392.992 243.961 404.404 252.913C409.801 257.315 416.08 260.508 422.815 262.276ZM415.098 150.252C428.665 153.517 443.032 168.855 449.99 189.489C459.083 216.058 453.254 243.119 437.244 248.602C429.896 251.127 421.173 248.827 412.614 242.175C403.255 234.824 395.537 223.306 390.899 209.734C386.26 196.162 385.275 182.324 388.169 170.723C390.796 160.231 396.379 153.086 403.645 150.56C407.334 149.39 411.283 149.312 415.015 150.335L415.098 150.252Z" fill="#3B125E"/>
<path d="M418.443 156.576C414.892 153.969 406.847 158.26 404.301 160.683C383.181 180.455 393.341 217.454 411.629 236.303C418.484 243.366 434.637 253.036 440.59 248.992C440.59 248.992 414.174 266.855 395.312 247.123C376.449 227.392 371.851 189.243 371.851 189.243L373.021 169.101L379.938 155.509L386.958 148.014L404.342 146.187L418.443 156.576Z" fill="#3B125E"/>
<path d="M416.309 264.329C422.57 265.911 429.154 265.654 435.274 263.59C459.083 255.377 468.422 221.827 456.538 187.087C444.654 152.347 416.657 131.527 392.91 139.699C381.026 143.805 372.385 154.338 368.608 169.47C365.078 183.556 366.166 200.146 371.667 216.181C377.167 232.217 386.404 245.85 397.816 254.884C403.23 259.326 409.537 262.547 416.309 264.329ZM408.591 152.306C422.158 155.57 436.526 170.908 443.484 191.543C452.576 218.111 446.747 245.173 430.738 250.655C423.39 253.18 414.667 250.881 406.108 244.228C396.748 236.878 389.031 225.359 384.392 211.787C379.754 198.215 378.768 184.377 381.662 172.776C384.29 162.284 389.872 155.139 397.138 152.613C400.835 151.366 404.815 151.223 408.591 152.203V152.306Z" fill="#5F2052"/>
<path d="M385.706 256.835C384.946 256.609 391.596 247.452 392.13 246.569C395.334 241.482 398.26 236.225 400.894 230.821C400.984 230.645 401.119 230.497 401.284 230.389C401.77 229.351 402.318 228.343 402.926 227.371C403.078 227.126 403.304 226.936 403.571 226.828C403.838 226.72 404.132 226.701 404.411 226.771C404.691 226.842 404.94 227.001 405.123 227.223C405.306 227.445 405.414 227.72 405.43 228.008C405.624 231.075 404.91 234.131 403.378 236.795C404.035 237.514 404.753 238.294 405.43 239.116C405.336 239.184 405.265 239.28 405.228 239.39C405.191 239.501 405.19 239.62 405.225 239.732C405.372 240.177 405.594 240.593 405.882 240.964C406.04 241.234 406.241 241.476 406.477 241.682C406.576 241.764 406.698 241.814 406.826 241.826C406.966 242.444 406.961 243.087 406.812 243.703C406.662 244.319 406.372 244.893 405.964 245.378C406.52 246.583 406.608 247.952 406.21 249.217V249.382H406.005C404.339 250.358 402.747 251.456 401.243 252.667C401.176 252.737 401.126 252.823 401.1 252.916C401.073 253.01 401.069 253.109 401.09 253.204C401.11 253.299 401.153 253.388 401.216 253.463C401.278 253.537 401.358 253.595 401.448 253.632C400.175 254.244 398.866 254.779 397.528 255.233C397.386 255.296 397.232 255.328 397.077 255.328C396.921 255.328 396.767 255.296 396.625 255.233C396.44 255.398 396.297 255.582 396.112 255.726C395.947 255.888 395.743 256.004 395.52 256.065C395.298 256.126 395.063 256.129 394.839 256.073C394.615 256.017 394.408 255.905 394.24 255.748C394.071 255.59 393.945 255.392 393.875 255.172C393.85 255.015 393.85 254.856 393.875 254.7L393.403 255.254C393.464 255.474 393.476 255.705 393.437 255.93C393.398 256.155 393.31 256.369 393.178 256.556C393.046 256.743 392.875 256.898 392.676 257.01C392.477 257.122 392.255 257.189 392.027 257.204C391.638 257.254 391.244 257.155 390.924 256.926C390.605 256.698 390.383 256.357 390.303 255.973C390.268 255.769 390.268 255.56 390.303 255.357L389.277 256.917C389.238 256.98 389.181 257.031 389.113 257.061C389.045 257.091 388.97 257.1 388.896 257.087C388.823 257.074 388.756 257.039 388.703 256.986C388.65 256.934 388.614 256.867 388.6 256.794C388.588 256.747 388.588 256.697 388.6 256.65C388.059 257.544 387.585 258.478 387.184 259.443C380.061 269.77 385.521 257.184 385.706 256.835ZM391.617 256.547C391.83 256.548 392.035 256.468 392.191 256.323C392.347 256.178 392.443 255.98 392.459 255.767C392.262 255.817 392.057 255.822 391.859 255.783C391.66 255.744 391.472 255.661 391.309 255.541C391.276 255.58 391.235 255.612 391.189 255.633C391.143 255.654 391.093 255.666 391.042 255.666C390.991 255.666 390.941 255.654 390.895 255.633C390.849 255.612 390.808 255.58 390.775 255.541C390.751 255.665 390.754 255.792 390.785 255.914C390.817 256.036 390.875 256.149 390.955 256.246C391.036 256.343 391.137 256.42 391.252 256.472C391.366 256.524 391.491 256.55 391.617 256.547Z" fill="#FCBF81"/>
<path d="M387.491 256.589C388.937 255.459 390.156 254.065 391.083 252.482C391.263 252.152 391.507 251.862 391.801 251.628C392.094 251.394 392.432 251.221 392.793 251.119C393.155 251.018 393.533 250.99 393.906 251.037C394.278 251.084 394.638 251.206 394.963 251.394C395.067 250.659 395.122 249.918 395.127 249.176C395.127 245.398 401.079 245.337 401.017 249.176C401.148 252.151 400.352 255.092 398.739 257.595C396.959 259.85 394.791 261.769 392.335 263.261C391.902 263.505 391.416 263.638 390.919 263.648C390.423 263.658 389.931 263.545 389.488 263.32C389.046 263.094 388.666 262.763 388.382 262.355C388.098 261.948 387.919 261.476 387.861 260.982L387.594 260.777C387.312 260.509 387.085 260.188 386.927 259.832C386.769 259.477 386.683 259.093 386.673 258.704C386.664 258.315 386.731 257.928 386.871 257.565C387.012 257.202 387.223 256.87 387.491 256.589Z" fill="#FCBF81"/>
<path d="M396.543 258.17C398.437 257.004 399.902 255.255 400.716 253.185C401.53 251.115 401.651 248.836 401.059 246.692C401.037 246.647 401.025 246.598 401.025 246.548C401.025 246.499 401.037 246.449 401.059 246.405L403.111 242.914C403.398 242.401 403.727 241.867 403.973 241.333C404.384 240.409 404.897 236.775 402.29 238.294C401.345 239.274 400.55 240.388 399.93 241.6C399.191 242.688 398.472 243.797 397.775 244.926C397.528 245.337 396.871 244.926 397.138 244.577C398.438 242.51 399.807 240.457 401.243 238.418C401.921 237.494 402.618 236.549 403.87 237.124C404.351 237.322 404.749 237.679 404.999 238.134C405.249 238.59 405.336 239.117 405.246 239.629C405.697 240.491 406.662 241.169 406.826 242.196C406.84 243.235 406.532 244.254 405.943 245.111L405.615 245.665C405.678 245.704 405.728 245.762 405.759 245.83C406.169 246.959 406.949 248.211 406.108 249.3C405.729 249.728 405.286 250.096 404.794 250.388L402.454 251.969C402.417 251.995 402.375 252.013 402.33 252.022C402.286 252.031 402.24 252.031 402.196 252.021C402.151 252.011 402.109 251.993 402.073 251.966C402.036 251.939 402.005 251.905 401.982 251.866C401.243 254.731 399.465 257.22 396.995 258.847C396.543 259.114 396.133 258.478 396.543 258.17ZM405.697 243.797C405.917 243.417 406.021 242.982 405.996 242.543C405.97 242.105 405.816 241.685 405.553 241.333C405.369 241.066 405.184 240.84 404.999 240.615C404.18 242.736 403.104 244.749 401.797 246.61V246.856C401.854 246.815 401.922 246.792 401.992 246.792C402.063 246.792 402.131 246.815 402.187 246.856C403.87 247.801 405.225 244.988 405.697 243.797ZM404.856 249.361C405.141 249.209 405.371 248.97 405.512 248.678C405.652 248.386 405.695 248.057 405.636 247.739C405.511 247.238 405.339 246.75 405.122 246.281C404.343 247.308 403.275 248.129 402.003 247.513C402.236 248.762 402.236 250.043 402.003 251.291C402.967 250.716 403.953 250.1 404.856 249.423V249.361Z" fill="#34323D"/>
<path d="M354.918 270.715C354.918 270.715 372.077 271.536 376.552 267.429C381.026 263.323 387.45 250.367 387.45 250.367C387.45 250.367 399.273 257.964 399.765 262.358C400.258 266.752 387.45 287.879 381.662 289.317" fill="#66C652"/>
<path d="M328.872 482.361C328.872 482.361 343.383 475.811 346.873 475.647C350.362 475.482 356.191 476.591 351.101 482.997C351.101 482.997 335.851 492.976 333.839 493.263C331.828 493.551 326.943 492.052 326.82 492.565C326.696 493.078 326.245 496.938 326.245 496.938C326.245 496.938 313.499 501.805 312.924 493.263C312.924 492.154 314.771 476.324 314.771 476.324" fill="#34323D"/>
<path d="M312.226 445.012C314.751 428.587 319.369 412.715 321.278 396.125C322.489 385.674 323.33 375.183 324.644 364.752C325.958 354.322 329.816 344.22 332.32 333.954C332.386 333.715 332.372 333.461 332.279 333.23C332.186 333 332.021 332.807 331.807 332.681C331.93 332.311 332.033 331.962 332.156 331.593C333.449 330.361 334.763 329.19 336.035 328.082L353.872 340.093C353.872 340.093 353.769 351.016 353.215 366.785C351.162 376.004 349.561 384.237 347.221 392.984C347.472 393.256 347.654 393.585 347.75 393.943C347.847 394.3 347.855 394.676 347.776 395.037C341.973 422.588 337.745 450.448 335.112 478.48C335.068 478.939 334.894 479.376 334.61 479.74C334.327 480.104 333.945 480.379 333.511 480.533L333.018 484.845C317.501 490.84 314.094 480.41 314.094 480.41C314.094 480.41 313.396 471.52 312.514 459.18C312.206 454.437 312.124 449.694 312.226 445.012Z" fill="#A11741"/>
<path d="M443.504 277.634C442.581 278.188 441.595 278.804 440.446 279.585C441.996 277.659 443.37 275.597 444.551 273.425C445.7 271.495 442.847 269.934 441.452 271.372C437.498 275.671 433.238 279.678 428.706 283.363C428.498 283.526 428.324 283.728 428.193 283.958H425.401C424.58 283.958 423.78 283.958 423.02 283.958H422.363C422.085 283.9 421.796 283.913 421.523 283.995C421.251 284.078 421.003 284.227 420.804 284.43C420.438 284.556 420.087 284.722 419.757 284.923C419.652 284.994 419.556 285.077 419.469 285.169C418.566 285.272 417.643 285.334 416.74 285.457C416.435 285.514 416.147 285.639 415.897 285.823C415.648 286.007 415.443 286.246 415.299 286.521C415.155 286.795 415.075 287.099 415.065 287.409C415.055 287.719 415.115 288.027 415.241 288.311L414.851 288.085C412.799 286.812 411.157 290.138 413.209 291.473C417.528 294.141 422.501 295.562 427.577 295.579C427.806 295.752 428.076 295.862 428.36 295.898C428.645 295.934 428.934 295.895 429.198 295.785L430.06 295.456C434.386 295.242 438.651 294.355 442.704 292.828C443.781 292.406 444.916 292.15 446.07 292.068C445.392 287.14 444.407 282.398 443.504 277.634Z" fill="#FCBF81"/>
<path d="M360.624 506.219L369.245 509.299C369.498 510.088 369.953 510.797 370.565 511.355C371.177 511.914 371.925 512.302 372.734 512.481C373.038 512.851 373.471 513.093 373.945 513.159C377.449 513.411 380.963 512.841 384.207 511.496C388.312 510.202 404.445 504.043 399.971 515.602C397.036 517.655 393.813 519.442 390.734 521.29C389.051 522.316 387.348 523.343 385.603 524.308C384.68 524.934 383.661 525.406 382.586 525.704C380.267 526.053 374.643 524.308 374.499 524.903C374.355 525.499 373.842 529.934 373.842 529.934C373.842 529.934 359.167 535.539 358.531 525.704C358.407 524.431 360.624 506.219 360.624 506.219Z" fill="#34323D"/>
<path d="M348.494 418.013C346.688 389.021 345.703 359.845 339.586 331.346C339.319 323.934 334.516 328.677 334.845 325.741C337.452 301.883 372.18 330.279 372.18 330.279C373.596 331.428 373.76 338.738 374.048 340.401C375.621 349.558 376.99 358.75 378.153 367.976C383.9 414.543 381.786 460.884 379.425 507.594C372.057 515.13 367.213 517.388 355.329 512.522C352.948 481.95 350.69 451.357 348.74 420.764L348.494 418.013Z" fill="#A11741"/>
<path d="M367.069 273.877C366.741 272.357 362.841 271.351 361.692 270.735C359.003 269.277 360.583 266.629 357.936 265.15C354.108 262.924 350.122 260.982 346.01 259.34H345.908C339.319 259.34 328.277 258.97 327.6 267.779C326.573 281.35 327.764 294.84 328.811 308.35C329.242 313.771 329.714 319.15 330.186 324.447C330.35 326.377 330.617 342.044 331.766 342.516C344.841 347.936 361.568 346.027 374.376 340.955C373.68 318.44 371.237 296.013 367.069 273.877Z" fill="#66C652"/>
<path d="M355.329 287.572C355.722 292.082 357.489 296.364 360.393 299.838C363.296 303.311 367.196 305.81 371.564 306.995C371.564 307.898 371.831 313.401 371.934 314.305C361.486 311.8 353.789 298.679 352.702 287.613C352.537 285.888 355.083 285.908 355.329 287.572Z" fill="#34323D"/>
<path d="M348.925 231.909C349.787 232.135 357.135 248.951 354.22 259.155C351.306 269.36 334.024 258.868 329.59 251.086C325.157 243.304 332.505 227.659 348.925 231.909Z" fill="#FCBF81"/>
<path d="M348.699 234.25C348.69 235.812 348.228 237.339 347.368 238.644C346.508 239.949 345.288 240.976 343.855 241.6C338.991 243.386 334.968 244.598 335.235 246.856C335.502 249.115 344.019 246.548 344.04 251.681C344.042 255.151 343.572 258.605 342.644 261.948C342.111 264.473 327.538 256.753 322.756 243.571C317.973 230.39 329.98 226.92 330.555 226.817C331.13 226.714 332.218 223.142 338.108 221.869C343.999 220.596 345.662 222.875 345.662 222.875C346.999 222.067 348.564 221.72 350.117 221.887C351.67 222.053 353.126 222.725 354.262 223.799C359.701 228.11 358.367 235.995 352.209 239.198L348.699 234.25Z" fill="#34323D"/>
<path d="M355.288 263.672C355.288 263.672 385.275 280.858 396.071 280.878C403.87 280.878 419.305 278.353 427.248 276.936C434.678 283.239 435.171 294.265 430.553 302.683C417.458 304.736 378.686 310.403 366.515 304.367C351.778 297.057 335.604 287.284 335.604 287.284C335.604 287.284 320.991 272.932 355.288 263.672Z" fill="#66C652"/>
<path d="M440.446 279.585C440.446 279.585 444.941 275.889 446.09 276.648C447.24 277.408 449.99 283.67 449.621 287.387C449.251 291.103 447.342 294.245 438.127 294.142" fill="#FCBF81"/>
<path d="M537.365 362.083L500.071 341.243C493.154 337.383 499.353 326.726 506.229 330.607L543.523 351.447C550.439 355.307 544.241 365.963 537.365 362.083Z" fill="#FFEED9"/>
<path d="M542.866 380.726L464.542 336.993C461.956 335.535 464.275 331.552 466.882 333.009L545.206 376.743C547.792 378.201 545.472 382.184 542.866 380.726Z" fill="#FFEED9"/>
<defs>
<linearGradient id="paint0_linear_93:394" x1="588.062" y1="461.5" x2="524.52" y2="412.47" gradientUnits="userSpaceOnUse">
<stop stop-color="#DD6F31"/>
<stop offset="1" stop-color="#603813"/>
</linearGradient>
<linearGradient id="paint1_linear_93:394" x1="-27924.5" y1="25811.6" x2="-31399.3" y2="20046.9" gradientUnits="userSpaceOnUse">
<stop stop-color="#DD6F31"/>
<stop offset="1" stop-color="#603813"/>
</linearGradient>
<linearGradient id="paint2_linear_93:394" x1="-41017" y1="18486" x2="-44195" y2="13458.4" gradientUnits="userSpaceOnUse">
<stop stop-color="#DD6F31"/>
<stop offset="1" stop-color="#603813"/>
</linearGradient>
</defs>
</svg>
