<svg width="269" height="203" viewBox="0 0 269 203" fill="none" xmlns="http://www.w3.org/2000/svg">
<path d="M88.6287 45.6353C88.6287 45.6353 89.5568 53.5775 90.3033 55.4C91.0497 57.2224 93.5514 65.1579 93.5514 65.1579C93.5514 65.1579 95.3537 67.7 94.661 68.0362C93.9684 68.3725 92.8789 66.0792 92.8789 66.0792L89.5164 65.1714C89.5164 65.1714 86.5171 57.2157 85.8177 55.4739C85.1183 53.7322 84.0894 46.5767 84.0894 46.5767" fill="#FFC8A9"/>
<path d="M130.653 193.975L9.79172 122.542C5.94502 120.384 2.64304 116.84 6.39559 114.506L127.694 44.566C129.517 43.4362 132.281 42.6964 134.13 43.7724L261.004 117.438C264.851 119.671 265.543 125.912 261.677 128.151L146.605 193.861C144.186 195.267 141.442 196.017 138.644 196.037C135.847 196.057 133.092 195.346 130.653 193.975Z" fill="#1AA4B2"/>
<path style="mix-blend-mode:multiply" opacity="0.63" d="M77.156 125.528L52.4551 141.722L125.031 188.205L154.567 169.94C150.237 167.129 81.5004 128.272 77.156 125.528Z" fill="url(#paint0_linear)"/>
<path style="mix-blend-mode:multiply" opacity="0.63" d="M229.995 119.22L215.025 127.963L227.978 135.522L242.901 127.512C238.63 124.735 234.333 121.937 229.995 119.22Z" fill="url(#paint1_linear)"/>
<path d="M163.216 69.8722C163.438 69.4014 159.511 75.1378 158.569 75.4875C156.874 76.113 150.788 79.6503 147.87 79.6301C148.085 80.6322 150.344 81.6476 150.56 82.6497C152.248 83.3222 159.026 80.4708 161.716 79.341C164.043 78.3591 167.688 73.4095 167.688 73.4095L163.216 69.8722Z" fill="#F2C3BD"/>
<path d="M236.047 111.923C232.611 111.628 228.993 110.578 226.458 108.238V118.42C226.458 121.224 227.571 123.913 229.554 125.895C231.536 127.878 234.225 128.992 237.029 128.992C239.833 128.992 242.522 127.878 244.505 125.895C246.487 123.913 247.601 121.224 247.601 118.42V108.097C243.969 109.536 239.874 112.26 236.047 111.923Z" fill="#A11741"/>
<path d="M237.002 113.773C242.841 113.773 247.574 111.265 247.574 108.171C247.574 105.077 242.841 102.569 237.002 102.569C231.164 102.569 226.431 105.077 226.431 108.171C226.431 111.265 231.164 113.773 237.002 113.773Z" fill="#5ED18D"/>
<path d="M237.002 109.126C237.002 109.126 229.813 108.07 227.91 96.4426C227.917 96.4426 234.03 99.8253 237.002 109.126Z" fill="#5ED18D"/>
<path d="M238.065 107.647C238.065 107.647 229.82 92.8515 238.065 82.9187C240.581 90.9694 240.581 99.5959 238.065 107.647Z" fill="#5ED18D"/>
<path d="M237.002 98.3457C237.002 98.3457 229.813 97.2899 227.91 85.6624C227.917 85.6624 234.03 89.045 237.002 98.3457Z" fill="#5ED18D"/>
<path d="M237.877 103.08C237.877 103.08 236.048 96.0459 246.068 89.7983C246.068 89.7983 245.315 96.7587 237.877 103.08Z" fill="#5ED18D"/>
<path d="M237.002 113.773C242.841 113.773 247.574 111.265 247.574 108.171C247.574 105.077 242.841 102.569 237.002 102.569C231.164 102.569 226.431 105.077 226.431 108.171C226.431 111.265 231.164 113.773 237.002 113.773Z" fill="#146666"/>
<path d="M237.002 109.126C237.002 109.126 229.813 108.07 227.91 96.4426C227.917 96.4426 234.03 99.8253 237.002 109.126Z" fill="#5ED18D"/>
<path d="M238.065 107.647C238.065 107.647 229.82 92.8515 238.065 82.9187C240.581 90.9694 240.581 99.5959 238.065 107.647Z" fill="#5ED18D"/>
<path d="M237.002 98.3457C237.002 98.3457 229.813 97.2899 227.91 85.6624C227.917 85.6624 234.03 89.045 237.002 98.3457Z" fill="#5ED18D"/>
<path d="M237.877 103.08C237.877 103.08 236.048 96.0459 246.068 89.7983C246.068 89.7983 245.315 96.7587 237.877 103.08Z" fill="#5ED18D"/>
<path d="M172.201 136.046C171.609 136.836 170.964 137.584 170.27 138.286C168.825 139.245 167.315 140.104 165.751 140.855C165.153 141.097 164.319 141.393 164.319 142.347C164.319 143.302 165.576 144.197 167.365 144.083C169.154 143.968 172.382 143.007 173.162 142.173C173.942 141.339 174.299 141.278 174.299 141.278C174.299 141.278 177.406 141.951 178.334 141.218C179.006 140.666 178.509 137.653 178.233 136.315C177.26 136.674 176.225 136.835 175.19 136.789C174.154 136.742 173.138 136.49 172.201 136.046Z" fill="#F3A05E"/>
<path d="M192.402 144.486C192.438 145.595 192.325 146.703 192.066 147.781C191.676 148.898 189.329 153.424 189.719 154.036C190.081 154.511 190.581 154.862 191.15 155.041C191.72 155.221 192.331 155.219 192.9 155.038C194.352 154.533 196.585 152.973 196.975 151.742C197.365 150.512 197.533 147.667 197.816 146.773C197.966 145.882 197.966 144.973 197.816 144.083L192.402 144.486Z" fill="#F3A05E"/>
<path d="M176.108 95.3196C176.108 95.7567 178.125 105.918 179.544 109.166C180.963 112.414 185.61 122.892 185.61 122.892C185.61 122.892 190.99 141.823 190.99 144.224C190.99 144.224 194.662 146.766 198.334 144.224C198.334 144.224 197.487 137.021 197.487 134.762C197.487 132.502 194.124 124.163 193.532 121.762C192.941 119.361 189.094 94.7479 187.924 92.5018C186.754 90.2556 175.92 90.0875 176.108 95.3196Z" fill="#335A6B"/>
<path d="M169.369 90.0873V102.239C169.369 108.171 171.629 114.956 171.488 117.357C171.346 119.758 171.488 136.429 171.488 136.429C172.538 137.047 173.735 137.373 174.954 137.373C176.173 137.373 177.37 137.047 178.421 136.429C178.421 136.429 179.531 124.701 179.672 122.583C179.813 120.464 179.672 107.323 179.672 104.923C179.672 102.522 178.589 93.0396 176.094 91.0019C173.599 88.9643 169.369 90.0873 169.369 90.0873Z" fill="#335A6B"/>
<path d="M173.808 60.8405C173.808 60.8405 170.519 60.78 169.443 61.5601C168.367 62.3402 162.207 69.509 162.207 69.509C162.207 69.509 163.882 73.275 166.329 74.5931H167.163C167.163 74.5931 167.836 89.9598 167.997 90.7331C167.997 90.7331 167.506 90.6861 167.869 91.641C168.233 92.596 170.499 92.986 170.499 92.986C170.499 92.986 181.81 95.1851 186.599 93.0331L187.944 92.4346C187.944 92.4346 188.724 90.639 188.542 90.101C188.009 89.1813 187.409 88.3024 186.747 87.4715C186.747 87.4715 190.425 76.7115 190.425 72.4008C190.399 69.6821 189.339 67.0755 187.459 65.1109C185.664 63.4364 179.867 60.8069 179.867 60.8069L173.808 60.8405Z" fill="#A11741"/>
<path d="M174.433 60.8203L174.527 63.0463C174.527 63.0463 174.87 65.2521 178.192 64.8015C178.192 64.8015 180.761 64.0483 180.64 62.468C180.64 62.0443 180.304 57.8613 180.304 57.8613" fill="#F2C3BD"/>
<path d="M173.371 53.9407C173.117 53.9313 172.868 53.8713 172.637 53.7643C172.407 53.6573 172.2 53.5054 172.029 53.3175C171.858 53.1297 171.726 52.9096 171.641 52.6702C171.557 52.4307 171.52 52.1768 171.535 51.9232C171.575 50.0873 172.685 49.1727 173.64 49.1727C174.595 49.1727 174.406 47.2964 177.426 47.6057C180.445 47.9151 180.903 48.9507 180.903 48.9507C180.903 48.9507 183.465 49.2937 183.889 51.6407C184.312 53.9878 182.934 56.3482 182.476 56.5365C182.019 56.7248 182.362 58.0295 181.407 58.9441C180.788 59.5021 179.987 59.8154 179.154 59.8251" fill="#4D4030"/>
<path d="M172.792 53.2614C172.871 54.0215 172.871 54.7877 172.792 55.5479C172.644 56.3078 171.676 60.1948 174.944 62.5553C174.944 62.5553 178.213 63.0395 179.847 59.1928C179.847 59.1928 180.412 54.2836 179.645 53.6514C178.878 53.0193 178.71 54.5996 177.318 54.2836C175.926 53.9675 174.063 52.7637 172.792 53.2614Z" fill="#F2C3BD"/>
<path d="M180.109 55.5748C179.613 55.9319 179.27 56.4625 179.147 57.061C179.064 57.0659 178.984 57.0966 178.918 57.149C178.853 57.2014 178.805 57.2729 178.782 57.3534C178.76 57.434 178.762 57.5197 178.79 57.5987C178.818 57.6776 178.87 57.7459 178.939 57.794C179.389 58.1034 180.089 57.794 180.492 57.525C180.735 57.3838 180.934 57.1786 181.068 56.932C181.202 56.6853 181.266 56.4066 181.252 56.1262C181.235 56.0015 181.188 55.8829 181.114 55.781C181.04 55.6791 180.942 55.5972 180.829 55.5425C180.716 55.4878 180.591 55.4622 180.465 55.4678C180.339 55.4734 180.217 55.5102 180.109 55.5748Z" fill="#F2C3BD"/>
<path d="M180.055 55.5479C180.055 55.5479 179.578 57.9285 179.215 58.184C178.852 58.4396 178.105 59.3677 177.466 59.2063C177.355 59.17 177.25 59.1154 177.157 59.0448C176.535 58.5083 175.788 58.1361 174.985 57.9621C174.023 57.8814 173.149 58.1975 172.907 57.9218C172.724 57.6189 172.603 57.283 172.55 56.9332C172.55 56.9332 172.497 59.6232 172.813 60.5244C172.957 61.1252 173.274 61.6708 173.724 62.0938C174.175 62.5168 174.739 62.7988 175.348 62.905C176.056 63.0371 176.788 62.962 177.454 62.6889C178.121 62.4157 178.695 61.9561 179.107 61.365C180.23 59.677 180.23 56.1396 180.23 56.1396L180.055 55.5479Z" fill="#4D4030"/>
<path style="mix-blend-mode:multiply" opacity="0.63" d="M72.3341 109.052L46.8867 121.742L59.4087 130.216L81.4263 117.566C77.1223 114.788 76.665 111.769 72.3341 109.052Z" fill="url(#paint2_linear)"/>
<path d="M79.5031 79.5897C79.5031 79.5897 79.9335 90.0672 80.1756 93.2818C80.4177 96.4963 80.2899 111.406 80.2899 111.406C79.3442 111.797 78.3118 111.932 77.2973 111.796C75.4816 111.601 73.7263 96.7451 73.7465 94.7276C73.7667 92.7101 70.9691 81.7551 70.9556 77.2897C70.9422 72.8243 73.148 67.5317 76.5508 68.1168C79.9537 68.7019 79.5031 79.5897 79.5031 79.5897Z" fill="#EFB497"/>
<path d="M71.5609 83.9946C71.5609 83.9946 71.0767 94.4722 71.0296 97.6935C70.9825 100.915 69.8191 114.936 69.8191 114.936C68.5347 115.326 67.1823 115.438 65.8513 115.266C65.8513 115.266 64.4391 101.056 64.5736 98.2516C64.6677 96.2341 62.8654 85.4069 63.2286 80.9617C63.5917 76.5164 66.2683 71.4323 69.6039 72.3133C72.9395 73.1943 71.5609 83.9946 71.5609 83.9946Z" fill="#FFC8A9"/>
<path d="M82.9327 116.57C81.433 114.735 80.5386 110.518 80.5386 110.518C80.5386 110.518 80.5991 110.437 80.4242 110.229C80.2717 110.556 80.0236 110.829 79.7128 111.013C79.4019 111.197 79.0427 111.282 78.6825 111.258C77.1088 111.137 77.1155 109.159 75.8849 108.749C75.8176 108.877 75.7571 109.018 75.6831 109.18C75.0846 110.525 75.5553 118.218 75.5553 118.218L77.667 119.254L77.4652 116.792C77.4652 116.792 78.0234 118.097 78.5883 119.482C79.1532 120.868 81.0833 121.533 83.1142 122.428C85.1452 123.322 86.2145 122.63 86.6919 121.083C87.1694 119.536 84.4323 118.4 82.9327 116.57Z" fill="#473E39"/>
<path d="M80.2159 90.6794C80.7202 75.9651 81.0565 61.5601 81.0565 61.5601C81.0565 61.5601 68.5951 55.3933 65.1586 58.4263C63.8165 62.471 63.0469 66.6835 62.8721 70.9415C62.6636 74.5865 62.5089 83.3491 62.4888 92.7978C68.4471 95.8307 75.3739 95.434 80.2159 90.6794Z" fill="#847066"/>
<path d="M81.9575 54.3574C82.4963 52.0967 83.2183 49.8836 84.1163 47.74C85.6092 43.8732 86.6717 40.0466 86.4229 35.9646C86.3663 35.5386 86.1942 35.1362 85.9253 34.8011C83.7867 32.5348 79.1061 33.0594 79.1061 33.0594C78.4614 33.0114 77.814 33.0114 77.1693 33.0594C77.1716 33.1502 77.1397 33.2386 77.0799 33.3071C77.0201 33.3756 76.9369 33.4192 76.8465 33.4292C71.4665 34.0345 69.7651 39.8314 69.0522 44.4044C68.568 47.5114 68.4672 50.7192 67.3441 53.6917C66.7237 55.2503 65.9887 56.7609 65.145 58.2109C66.6918 59.3541 73.6858 64.0078 80.8277 60.7664C81.2245 58.6547 81.507 56.4893 81.9575 54.3574Z" fill="#A2C609"/>
<path d="M85.5692 34.4785C85.5692 34.4785 89.8665 37.7536 89.1537 46.7785C89.1537 46.7785 85.0649 47.794 83.6392 47.7873" fill="#A2C609"/>
<path d="M71.339 50.0803L69.4493 41.822L68.9449 43.8395C68.9501 43.8752 68.9501 43.9114 68.9449 43.9471C68.6624 46.1731 67.7277 50.3628 67.6403 51.0151L67.2031 54.6937L71.1036 51.8019L71.339 50.0803Z" fill="#89A000"/>
<path d="M85.4883 30.2887V30.3291C85.3148 30.4171 85.1719 30.5554 85.0781 30.7258C84.345 32.017 83.6524 33.3351 82.9799 34.6532C82.4367 34.5556 81.9181 34.3522 81.4533 34.0547C80.6533 33.5764 79.9853 32.9061 79.5098 32.1045L80.3706 27.9148L85.4883 30.2887Z" fill="#F9B495"/>
<path d="M89.8934 24.7071C90.0077 24.9761 86.2821 33.8329 84.3049 33.0528C82.3278 32.2727 79.5234 28.769 80.5456 25.1913C81.5678 21.6136 88.313 20.9075 89.8934 24.7071Z" fill="#FFC8A9"/>
<path d="M86.652 20.3223C74.9437 17.2154 70.0815 40.4973 70.0815 40.4973C71.0298 35.541 75.8314 33.6311 75.8314 33.6311L75.9121 41.0891C77.6741 39.9795 80.3237 40.1274 81.5678 38.6277L81.6889 29.8382C81.6889 29.8382 80.2901 27.323 81.588 27.1482C82.8859 26.9733 83.1146 28.4932 83.1146 28.4932L84.2578 25.6216L89.9472 27.9148C89.9472 27.9148 93.8074 22.2187 86.652 20.3223Z" fill="#8E4228"/>
<path d="M72.4083 119.657C70.9086 117.821 70.0142 113.605 70.0142 113.605C70.0142 113.605 70.0747 113.524 69.8998 113.315C69.7524 113.649 69.5066 113.93 69.1953 114.119C68.884 114.309 68.5221 114.4 68.1581 114.378C66.5844 114.257 66.5911 112.28 65.3605 111.87C65.2932 111.997 65.2327 112.139 65.1587 112.3C64.5602 113.645 65.0309 121.338 65.0309 121.338L67.1426 122.374L66.9408 119.913C66.9408 119.913 67.499 121.217 68.0639 122.603C68.6288 123.988 70.5589 124.654 72.5898 125.548C74.6208 126.443 75.6901 125.75 76.1675 124.203C76.645 122.657 73.9079 121.493 72.4083 119.657Z" fill="#473E39"/>
<path d="M146.625 156.302L162.954 147.815V127.916L146.625 137.418V156.302Z" fill="#A11741"/>
<path d="M127.5 125.535L146.457 136.503L146.256 136.853L162.617 127.337L143.458 116.254L127.5 125.535Z" fill="#A11741"/>
<path d="M143.458 115.474L159.705 106.026L142.711 96.2073L126.484 105.649L143.458 115.474Z" fill="#A11741"/>
<path d="M163.283 126.927L179.558 117.512C179.463 117.445 179.369 117.377 179.268 117.317L160.405 106.422L144.157 115.878L163.283 126.927Z" fill="#A11741"/>
<path d="M123.821 85.3061L111.796 78.3659C110.788 77.7839 109.645 77.4775 108.481 77.4775C107.317 77.4775 106.173 77.7839 105.165 78.3659L92.2266 85.8374L107.6 94.7346L123.821 85.3061Z" fill="#A11741"/>
<path d="M109.187 115.717L108.461 116.133V134.58L126.531 145.031V125.75L109.187 115.717Z" fill="#A11741"/>
<path d="M125.146 105.656L107.62 95.5144L91.6553 104.795L109.181 114.936L125.146 105.656Z" fill="#A11741"/>
<path d="M145.987 137.008L127.204 126.14V145.421L145.953 156.268V137.028L145.987 137.008Z" fill="#A11741"/>
<path d="M126.834 125.152L142.792 115.864L125.811 106.039L109.853 115.326L126.834 125.152Z" fill="#A11741"/>
<path d="M108.515 115.326L91.1846 105.299V124.58L107.789 134.19V115.75L108.515 115.326Z" fill="#A11741"/>
<path d="M90.5187 104.909L75.8381 96.4158L76.1743 95.8307L90.9693 104.405L106.928 95.1246L91.5409 86.2207L76.7325 94.7816C75.8115 95.3116 75.1155 96.1594 74.775 97.166C74.4346 98.1726 74.473 99.2688 74.8831 100.249V103.181C74.8753 103.333 74.8753 103.486 74.8831 103.638V115.152L90.5187 124.197V104.909Z" fill="#A11741"/>
<path d="M125.811 105.266L142.039 95.8239L124.493 85.696L108.286 95.1245L125.811 105.266Z" fill="#A11741"/>
<path d="M127.204 146.201V160.929H126.531V145.811L108.461 135.354V150.68L143.115 171.453C143.991 171.971 144.952 172.329 145.953 172.509V157.042L127.204 146.201Z" fill="#A11741"/>
<path d="M162.947 148.575L146.605 157.055V172.61C148.436 172.81 150.282 172.416 151.871 171.487L163.566 164.587H162.947V148.575Z" fill="#A11741"/>
<path d="M163.619 164.587L177.224 156.578C178.238 155.98 179.086 155.139 179.692 154.13C180.298 153.121 180.643 151.977 180.694 150.801L181.205 139.093L163.619 148.225V164.587Z" fill="#A11741"/>
<path d="M181.629 126.826L181.454 121.191C181.464 120.587 181.35 119.988 181.119 119.43C180.887 118.872 180.544 118.368 180.109 117.949L163.619 127.526V147.465L181.239 138.313L181.622 126.826" fill="#A11741"/>
<path d="M91.1845 125.36V140.29H91.124L107.789 150.276V134.963L91.1845 125.36Z" fill="#A11741"/>
<path d="M74.8828 115.925V127.357C74.8833 128.333 75.1362 129.291 75.6171 130.14C76.0979 130.988 76.7902 131.698 77.6266 132.199L90.5184 139.926V124.97L74.8828 115.925Z" fill="#A11741"/>
<g style="mix-blend-mode:multiply">
<path d="M146.625 156.302L162.954 147.815V127.916L146.625 137.418V156.302Z" fill="#A11741"/>
</g>
<path d="M127.5 125.535L146.457 136.503L146.256 136.853L162.617 127.337L143.458 116.254L127.5 125.535Z" fill="#A11741"/>
<path d="M143.458 115.474L159.705 106.026L142.711 96.2073L126.484 105.649L143.458 115.474Z" fill="#A11741"/>
<g style="mix-blend-mode:multiply">
<path d="M163.283 126.927L179.558 117.512C179.463 117.445 179.369 117.377 179.268 117.317L160.405 106.422L144.157 115.878L163.283 126.927Z" fill="#A11741"/>
</g>
<path d="M123.821 85.3061L111.796 78.3659C110.788 77.7839 109.645 77.4775 108.481 77.4775C107.317 77.4775 106.173 77.7839 105.165 78.3659L92.2266 85.8374L107.6 94.7346L123.821 85.3061Z" fill="#A11741"/>
<path d="M109.187 115.717L108.461 116.133V134.58L126.531 145.031V125.75L109.187 115.717Z" fill="#A11741"/>
<path d="M125.146 105.656L107.62 95.5144L91.6553 104.795L109.181 114.936L125.146 105.656Z" fill="#A11741"/>
<g style="mix-blend-mode:multiply">
<path d="M145.987 137.008L127.204 126.14V145.421L145.953 156.268V137.028L145.987 137.008Z" fill="#A11741"/>
</g>
<g style="mix-blend-mode:multiply">
<path d="M126.834 125.152L142.792 115.864L125.811 106.039L109.853 115.326L126.834 125.152Z" fill="#A11741"/>
</g>
<g style="mix-blend-mode:multiply">
<path d="M108.515 115.326L91.1846 105.299V124.58L107.789 134.19V115.75L108.515 115.326Z" fill="#A11741"/>
</g>
<g style="mix-blend-mode:multiply">
<path d="M91.561 86.2207L76.7323 94.7816C76.3683 94.9971 76.0375 95.2644 75.7505 95.5752C75.8816 95.6732 76.0186 95.763 76.1607 95.8442L90.9557 104.419L106.928 95.1246L91.561 86.2207Z" fill="#A11741"/>
</g>
<g style="mix-blend-mode:multiply">
<path d="M125.811 105.266L142.039 95.8239L124.493 85.696L108.286 95.1245L125.811 105.266Z" fill="#A11741"/>
</g>
<path d="M127.203 146.201V160.929H127.103V161.863L143.101 171.453C143.977 171.971 144.938 172.329 145.939 172.509V157.042L127.203 146.201Z" fill="#A11741"/>
<g style="mix-blend-mode:multiply">
<path d="M126.43 159.685C126.429 159.644 126.436 159.603 126.451 159.565C126.466 159.527 126.489 159.492 126.517 159.463V145.811L108.447 135.354V150.68L126.43 161.44V159.685Z" fill="#A11741"/>
</g>
<path d="M162.947 148.575L146.605 157.055V172.61C148.436 172.81 150.282 172.416 151.871 171.487L163.566 164.587H162.947V148.575Z" fill="#A11741"/>
<g style="mix-blend-mode:multiply">
<path d="M163.619 164.587L177.224 156.578C178.238 155.98 179.086 155.139 179.692 154.13C180.298 153.121 180.643 151.977 180.694 150.801L181.205 139.093L163.619 148.225V164.587Z" fill="#A11741"/>
</g>
<path d="M181.629 126.826L181.454 121.191C181.464 120.587 181.35 119.988 181.119 119.43C180.887 118.872 180.544 118.368 180.109 117.949L163.619 127.526V147.465L181.239 138.313L181.622 126.826" fill="#A11741"/>
<path d="M91.1845 125.36V140.29H91.124L107.789 150.276V134.963L91.1845 125.36Z" fill="#A11741"/>
<g style="mix-blend-mode:multiply">
<path d="M74.8828 115.925V127.357C74.8833 128.333 75.1362 129.291 75.6171 130.14C76.0979 130.988 76.7902 131.698 77.6266 132.199L90.5184 139.926V124.97L74.8828 115.925Z" fill="#A11741"/>
</g>
<path d="M126.531 160.929H127.203V146.201L126.531 145.811V160.929Z" fill="#FFEED9"/>
<path d="M127.499 125.535L143.458 116.254L142.792 115.864L126.833 125.151L127.499 125.535Z" fill="#FFEED9"/>
<path d="M126.531 125.75V145.031L127.203 145.421V126.14L126.531 125.75Z" fill="#FFEED9"/>
<path d="M144.131 115.864L160.378 106.409L159.706 106.026L143.458 115.474L144.131 115.864Z" fill="#FFEED9"/>
<path d="M126.484 105.649L142.711 96.2073L142.039 95.824L125.812 105.266L126.484 105.649Z" fill="#FFEED9"/>
<path d="M107.789 134.963V150.276L108.461 150.68V135.353L107.789 134.963Z" fill="#FFEED9"/>
<path d="M109.187 115.716L108.515 115.326L107.789 115.75V134.19L108.461 134.58V116.133L109.187 115.716Z" fill="#FFEED9"/>
<path d="M109.853 115.326L125.812 106.039L125.146 105.656L109.181 114.936L109.853 115.326Z" fill="#FFEED9"/>
<path d="M90.5117 140.29H91.1237L90.5117 139.92V140.29Z" fill="#FFEED9"/>
<path d="M107.62 95.5146L106.948 95.1245L90.9893 104.412L91.655 104.795L107.62 95.5146Z" fill="#FFEED9"/>
<path d="M108.286 95.1244L124.494 85.696L123.821 85.3059L107.614 94.7344L108.286 95.1244Z" fill="#FFEED9"/>
<path d="M91.1842 125.36L90.5117 124.97V139.92L91.1237 140.29H91.1842V125.36Z" fill="#FFEED9"/>
<path d="M91.1842 105.299L90.5117 104.909V124.19L91.1842 124.58V105.299Z" fill="#FFEED9"/>
<path d="M109.181 114.936L91.6553 104.795L91.1846 105.071V105.299L108.515 115.326L109.181 114.936Z" fill="#FFEED9"/>
<path d="M127.204 126.14L145.987 137.008L146.121 136.934L146.256 136.853L146.457 136.503L127.5 125.535L127.204 125.71V126.14Z" fill="#FFEED9"/>
<path d="M126.834 125.152L109.853 115.326L109.188 115.716L126.531 125.75V125.32L126.834 125.152Z" fill="#FFEED9"/>
<path d="M90.9892 104.412L76.1673 95.8374L75.8311 96.4158L90.5117 104.909V104.681L90.9892 104.412Z" fill="#FFEED9"/>
<path d="M126.531 125.32V125.75L127.203 126.14V125.71L127.499 125.535L126.833 125.152L126.531 125.32Z" fill="#FFEED9"/>
<path d="M109.18 114.936L108.515 115.326L109.187 115.716L109.853 115.326L109.18 114.936Z" fill="#FFEED9"/>
<path d="M91.1842 105.071L91.655 104.795L90.9892 104.412L90.5117 104.681V104.909L91.1842 105.299V105.071Z" fill="#FFEED9"/>
<path d="M145.933 172.657H146.605C146.376 172.657 146.155 172.597 145.933 172.556V172.657Z" fill="#FFEED9"/>
<path d="M146.282 157.237L146.121 157.142L145.953 157.048V172.516C146.175 172.556 146.396 172.597 146.625 172.617V157.055L146.282 157.237Z" fill="#FFEED9"/>
<path d="M146.121 137.088L145.986 137.008L145.953 137.028V156.268L146.296 156.47L146.625 156.302V137.418L162.953 127.916V127.532L162.617 127.337L146.255 136.853L146.121 137.088Z" fill="#FFEED9"/>
<path d="M163.619 127.142V127.532L180.089 117.949C179.923 117.79 179.746 117.644 179.558 117.512L163.283 126.927L163.619 127.142Z" fill="#FFEED9"/>
<path d="M145.986 137.008L146.121 137.088L146.255 136.853L146.121 136.934L145.986 137.008Z" fill="#FFEED9"/>
<path d="M163.626 164.614V164.58L163.565 164.614H163.626Z" fill="#FFEED9"/>
<path d="M107.614 94.7345L92.2335 85.8306L91.561 86.2206L106.948 95.1245L107.614 94.7345Z" fill="#FFEED9"/>
<path d="M162.954 148.575V164.614H163.566L163.626 164.58V148.225L162.954 148.575Z" fill="#FFEED9"/>
<path d="M142.792 115.864L143.458 115.474L126.484 105.649L125.812 106.039L142.792 115.864Z" fill="#FFEED9"/>
<path d="M162.954 147.815L163.626 147.465V127.526L162.954 127.916V147.815Z" fill="#FFEED9"/>
<path d="M125.145 105.656L125.811 105.266L108.286 95.1245L107.62 95.5146L125.145 105.656Z" fill="#FFEED9"/>
<path d="M162.618 127.337L163.283 126.947L144.131 115.864L143.458 116.254L162.618 127.337Z" fill="#FFEED9"/>
<path d="M143.458 116.254L144.13 115.864L143.458 115.474L142.792 115.864L143.458 116.254Z" fill="#FFEED9"/>
<path d="M125.811 106.039L126.484 105.649L125.811 105.266L125.146 105.656L125.811 106.039Z" fill="#FFEED9"/>
<path d="M108.286 95.1244L107.614 94.7344L106.948 95.1244L107.62 95.5145L108.286 95.1244Z" fill="#FFEED9"/>
<path d="M163.283 126.947L162.617 127.337L162.953 127.532V127.916L163.626 127.526V127.142L163.283 126.947Z" fill="#FFEED9"/>
<path d="M90.5117 124.19L74.8828 115.145V115.925L90.5117 124.97V124.19Z" fill="#FFEED9"/>
<path d="M146.625 156.302V157.055L162.954 148.575V147.815L146.625 156.302Z" fill="#FFEED9"/>
<path d="M163.626 148.225L181.205 139.086L181.239 138.312L163.626 147.465V148.225Z" fill="#FFEED9"/>
<path d="M91.1846 124.58V125.36L107.789 134.963V134.19L91.1846 124.58Z" fill="#FFEED9"/>
<path d="M127.204 145.421V146.201L145.953 157.048V156.268L127.204 145.421Z" fill="#FFEED9"/>
<path d="M108.461 134.58V135.353L126.531 145.811V145.031L108.461 134.58Z" fill="#FFEED9"/>
<path d="M126.531 145.031V145.811L127.203 146.201V145.421L126.531 145.031Z" fill="#FFEED9"/>
<path d="M107.789 134.19V134.963L108.461 135.353V134.58L107.789 134.19Z" fill="#FFEED9"/>
<path d="M90.5117 124.19V124.97L91.1842 125.36V124.58L90.5117 124.19Z" fill="#FFEED9"/>
<path d="M146.296 156.47L145.953 156.268V157.048L146.121 157.142L146.282 157.236L146.625 157.055V156.302L146.296 156.47Z" fill="#FFEED9"/>
<path d="M162.954 148.575L163.626 148.225V147.465L162.954 147.815V148.575Z" fill="#FFEED9"/>
<path d="M135.61 86.6375V102.361L147.876 109.375L161.716 101.197V85.4741" fill="#A11741"/>
<path d="M135.61 86.6374L149.84 78.5405L161.716 85.474L147.876 93.6516L135.61 86.6374Z" fill="#A11741"/>
<path opacity="0.21" d="M135.61 86.6374L149.84 78.5405L161.716 85.474L147.876 93.6516L135.61 86.6374Z" fill="white"/>
<g style="mix-blend-mode:multiply">
<path d="M147.876 93.6517V109.375L161.716 101.197V85.4741L147.876 93.6517Z" fill="#A11741"/>
</g>
<path d="M181.118 76.7046C181.118 76.7046 179.524 79.8318 178.596 80.6858C177.668 81.5399 167.708 86.0188 166.787 86.3752C165.866 86.7316 165.718 87.0477 165.22 86.9468C164.722 86.846 160.385 86.8729 160.17 87.3033C160.048 87.6006 160.048 87.934 160.17 88.2313C160.17 88.2313 158.825 89.0114 159.1 89.7982C159.376 90.585 160.096 92.5757 161.306 92.5757C162.517 92.5757 165.22 90.2959 165.435 89.731C165.435 89.731 176.525 88.8029 181.118 86.2474C185.711 83.6919 186.424 80.1949 186.424 80.1949C185.987 79.1516 185.248 78.2622 184.303 77.6405C183.358 77.0188 182.249 76.693 181.118 76.7046Z" fill="#F2C3BD"/>
<path d="M79.1802 57.545V73.2681L91.4399 80.2822L105.287 72.1046V56.3816" fill="#A11741"/>
<path d="M79.1802 57.5451L93.4103 49.4482L105.287 56.3817L91.4399 64.566L79.1802 57.5451Z" fill="#A11741"/>
<path opacity="0.21" d="M79.1802 57.5451L93.4103 49.4482L105.287 56.3817L91.4399 64.566L79.1802 57.5451Z" fill="white"/>
<g style="mix-blend-mode:multiply">
<path d="M91.4399 64.5659V80.2822L105.287 72.1046V56.3816L91.4399 64.5659Z" fill="#A11741"/>
</g>
<path d="M74.7754 45.9849C74.7754 45.9849 74.8426 51.2506 75.7101 52.9991C76.5777 54.7476 80.8077 63.6246 81.0094 63.7591C81.2112 63.8936 84.9368 65.8506 84.4459 66.5433C83.955 67.2359 81.7559 66.0725 81.7559 66.0725C81.7559 66.0725 84.4459 70.242 83.3632 70.9885C82.2805 71.735 77.6402 67.626 77.6133 66.402C77.5864 65.1781 77.4721 63.3691 77.4721 63.3691C77.4721 63.3691 70.6933 54.2298 70.1687 52.683C69.6442 51.1363 69.2676 45.1712 69.2676 45.1712C69.2676 45.1712 72.314 43.537 74.7754 45.9849Z" fill="#FFC8A9"/>
<path d="M75.132 41.1094L75.6162 48.5069C74.9437 48.3858 69.2342 48.9574 69.1199 48.7893C69.0056 48.6212 69.4494 41.8222 69.4494 41.8222" fill="#A2C609"/>
<defs>
<linearGradient id="paint0_linear" x1="96.5845" y1="165.999" x2="109.678" y2="146.631" gradientUnits="userSpaceOnUse">
<stop stop-color="white" stop-opacity="0"/>
<stop offset="0.99" stop-color="#754C24"/>
</linearGradient>
<linearGradient id="paint1_linear" x1="9512.78" y1="3386.19" x2="9644.05" y2="3023.56" gradientUnits="userSpaceOnUse">
<stop stop-color="white" stop-opacity="0"/>
<stop offset="0.99" stop-color="#754C24"/>
</linearGradient>
<linearGradient id="paint2_linear" x1="3061.5" y1="4047.59" x2="3431.48" y2="3384.73" gradientUnits="userSpaceOnUse">
<stop stop-color="white" stop-opacity="0"/>
<stop offset="0.99" stop-color="#754C24"/>
</linearGradient>
</defs>
</svg>
