<svg width="826" height="619" viewBox="0 0 826 619" fill="none" xmlns="http://www.w3.org/2000/svg">
<path d="M138.677 365.602L459.009 550.91C465.66 554.745 473.203 556.764 480.88 556.764C488.558 556.764 496.101 554.745 502.752 550.91L727.861 421.601C730.896 419.855 733.417 417.341 735.169 414.31C736.922 411.28 737.845 407.841 737.845 404.341C737.845 400.84 736.922 397.401 735.169 394.371C733.417 391.341 730.896 388.826 727.861 387.081L392.921 193.809L138.945 334.961C136.219 336.471 133.943 338.678 132.349 341.356C130.755 344.034 129.901 347.087 129.873 350.203C129.846 353.319 130.647 356.387 132.193 359.093C133.74 361.798 135.977 364.044 138.677 365.602Z" fill="#FCC054"/>
<path style="mix-blend-mode:multiply" d="M561.846 472.338L507.931 446.567L443.617 486.431C447.331 489.195 465.901 496.747 494.932 515.565C520.208 498.81 527.656 494.766 561.846 472.338Z" fill="url(#paint0_linear_155:577)"/>
<path style="mix-blend-mode:multiply" d="M656.883 406.229L603.69 371.812L523.839 418.403C527.553 421.167 551.116 436.436 580.147 455.295C605.444 438.541 632.02 423.643 656.883 406.229Z" fill="url(#paint1_linear_155:577)"/>
<path style="mix-blend-mode:multiply" d="M368.057 498.522L454.944 444.73L250.117 328.585L169.193 382.418C180.48 389.846 360.444 490.392 368.057 498.522Z" fill="url(#paint2_linear_155:577)"/>
<path d="M231.093 343.772V349.879L234.168 353.655" fill="#ADCEE1"/>
<path d="M353.717 269.471L234.58 343.297C233.489 343.972 232.593 344.92 231.979 346.046C231.366 347.173 231.056 348.44 231.081 349.723C231.106 351.006 231.465 352.26 232.122 353.362C232.779 354.464 233.711 355.375 234.828 356.007L415.597 458.266C418.119 459.693 420.972 460.431 423.869 460.406C426.767 460.38 429.607 459.593 432.103 458.122L550.683 388.402C559.308 381.325 558.647 367.995 550.683 367.438L370.967 269.182C368.334 267.666 365.34 266.892 362.302 266.943C359.264 266.994 356.297 267.868 353.717 269.471Z" fill="#88D3D8"/>
<path d="M353.717 264.395L234.58 338.221C233.489 338.896 232.593 339.844 231.979 340.97C231.366 342.097 231.056 343.364 231.081 344.647C231.106 345.93 231.465 347.184 232.122 348.286C232.779 349.388 233.711 350.299 234.828 350.931L415.597 453.19C418.119 454.617 420.972 455.355 423.869 455.33C426.767 455.304 429.607 454.517 432.103 453.046L550.683 383.326C552.075 382.519 553.231 381.36 554.034 379.966C554.837 378.572 555.26 376.991 555.26 375.382C555.26 373.773 554.837 372.192 554.034 370.798C553.231 369.404 552.075 368.245 550.683 367.438L370.946 264.106C368.316 262.594 365.325 261.822 362.292 261.873C359.258 261.924 356.295 262.795 353.717 264.395Z" fill="white"/>
<path d="M358.566 254.306C358.566 254.306 408.086 94.645 407.735 94.645C407.384 94.645 409.283 87.5471 418.052 91.55L607.879 203.3C607.879 203.3 617.081 207.035 615.286 215.68C613.491 224.326 566.921 371.916 566.921 371.916C565.949 373.319 564.554 374.376 562.94 374.933C561.326 375.489 559.577 375.517 557.946 375.011C552.169 373.216 362.92 263.281 362.92 263.281C361.185 262.624 359.768 261.328 358.958 259.659C358.149 257.99 358.008 256.075 358.566 254.306Z" fill="#053855"/>
<path d="M410.892 106.241L605.299 219.58L564.982 354.976L368.057 244.98L410.892 106.241Z" fill="#A11741"/>
<path d="M346.392 281.315L302.835 308.447C302.067 308.931 301.437 309.605 301.007 310.404C300.576 311.204 300.36 312.101 300.378 313.008C300.397 313.916 300.65 314.803 301.113 315.584C301.576 316.365 302.234 317.013 303.021 317.464L459.36 406.58C461.697 407.929 464.347 408.639 467.046 408.639C469.744 408.639 472.395 407.929 474.732 406.58C484.78 400.72 502.091 390.073 512.676 383.677C513.619 383.098 514.395 382.285 514.93 381.317C515.464 380.349 515.739 379.259 515.726 378.153C515.714 377.047 515.415 375.964 514.859 375.008C514.302 374.052 513.508 373.257 512.553 372.7C480.942 354.315 377.776 294.293 355.182 281.211C353.847 280.426 352.322 280.02 350.773 280.039C349.224 280.057 347.709 280.498 346.392 281.315Z" fill="#A11741"/>
<path d="M348.703 354.893L403.32 385.616C404.156 386.092 404.852 386.78 405.336 387.612C405.82 388.444 406.075 389.389 406.075 390.351C406.075 391.314 405.82 392.259 405.336 393.09C404.852 393.922 404.156 394.611 403.32 395.087L371.4 413.945C370.297 414.585 369.044 414.922 367.769 414.922C366.493 414.922 365.24 414.585 364.137 413.945L308.179 382.129C307.48 381.73 306.899 381.154 306.495 380.458C306.091 379.762 305.878 378.972 305.878 378.167C305.878 377.363 306.091 376.572 306.495 375.876C306.899 375.181 307.48 374.604 308.179 374.206L341.585 355.017C342.66 354.385 343.881 354.041 345.128 354.02C346.375 353.998 347.607 354.299 348.703 354.893Z" fill="#A11741"/>
<path opacity="0.1" d="M346.392 281.315L302.835 308.447C302.067 308.931 301.437 309.605 301.007 310.404C300.576 311.204 300.36 312.101 300.378 313.008C300.397 313.916 300.65 314.803 301.113 315.584C301.576 316.365 302.234 317.013 303.021 317.464L459.36 406.58C461.697 407.929 464.347 408.639 467.046 408.639C469.744 408.639 472.395 407.929 474.732 406.58C484.78 400.72 502.091 390.073 512.676 383.677C513.619 383.098 514.395 382.285 514.93 381.317C515.464 380.349 515.739 379.259 515.726 378.153C515.714 377.047 515.415 375.964 514.859 375.008C514.302 374.052 513.508 373.257 512.553 372.7C480.942 354.315 377.776 294.293 355.182 281.211C353.847 280.426 352.322 280.02 350.773 280.039C349.224 280.057 347.709 280.498 346.392 281.315Z" fill="#053855"/>
<path opacity="0.1" d="M348.703 354.893L403.32 385.616C404.156 386.092 404.852 386.78 405.336 387.612C405.82 388.444 406.075 389.389 406.075 390.351C406.075 391.314 405.82 392.259 405.336 393.09C404.852 393.922 404.156 394.611 403.32 395.087L371.4 413.945C370.297 414.585 369.044 414.922 367.769 414.922C366.493 414.922 365.24 414.585 364.137 413.945L308.179 382.129C307.48 381.73 306.899 381.154 306.495 380.458C306.091 379.762 305.878 378.972 305.878 378.167C305.878 377.363 306.091 376.572 306.495 375.876C306.899 375.181 307.48 374.604 308.179 374.206L341.585 355.017C342.66 354.385 343.881 354.041 345.128 354.02C346.375 353.998 347.607 354.299 348.703 354.893Z" fill="#053855"/>
<path d="M630.348 421.766L676.361 394.468C677.393 393.859 678.254 392.995 678.859 391.96C679.465 390.925 679.795 389.752 679.82 388.553C679.845 387.354 679.563 386.169 679.001 385.109C678.439 384.05 677.615 383.152 676.608 382.501L638.581 357.741C636.651 356.461 634.387 355.779 632.071 355.779C629.756 355.779 627.491 356.461 625.561 357.741L580.374 388.154C579.393 388.816 578.595 389.714 578.053 390.765C577.512 391.817 577.244 392.988 577.275 394.171C577.305 395.354 577.634 396.51 578.23 397.532C578.826 398.554 579.67 399.409 580.684 400.018L616.648 421.601C618.703 422.864 621.063 423.546 623.475 423.575C625.888 423.604 628.263 422.979 630.348 421.766Z" fill="#B24800"/>
<path d="M630.348 417.618L676.361 390.32C677.393 389.711 678.254 388.848 678.859 387.813C679.465 386.778 679.795 385.605 679.82 384.406C679.845 383.207 679.563 382.021 679.001 380.962C678.439 379.903 677.615 379.005 676.608 378.353L638.581 353.593C636.651 352.314 634.387 351.631 632.071 351.631C629.756 351.631 627.491 352.314 625.561 353.593L580.374 384.007C579.393 384.668 578.595 385.566 578.053 386.618C577.512 387.67 577.244 388.841 577.275 390.024C577.305 391.206 577.634 392.362 578.23 393.384C578.826 394.406 579.67 395.261 580.684 395.871L616.648 417.453C618.703 418.716 621.063 419.399 623.475 419.428C625.888 419.457 628.263 418.831 630.348 417.618Z" fill="#DF5D00"/>
<path d="M622.693 308.262L598.264 385.534C598.264 385.534 592.301 405.135 628.945 403.154C665.59 401.174 660.762 382.975 660.762 382.975L636.311 308.262" fill="#FF8522"/>
<path d="M613.635 336.88C613.635 336.88 618.484 341.894 629.647 341.894C643.595 341.894 645.08 335.023 645.08 335.023L650.198 350.642C650.198 350.642 646.525 359.453 629.564 359.164C614.296 358.916 608.312 353.428 608.312 353.428" fill="white"/>
<path d="M604.557 366.325C611.188 372.742 620.09 376.273 629.317 376.146C647.453 375.94 654.262 363.044 654.262 363.044L659.648 379.551C659.648 379.551 651.869 391.621 629.502 393.23C608.415 394.737 599.357 382.914 599.357 382.914" fill="white"/>
<g style="mix-blend-mode:multiply" opacity="0.15">
<path d="M627.955 308.819H622.714L598.367 386.091C598.367 386.091 592.816 404.372 625.417 403.836C626.057 372.164 627.645 340.45 627.955 308.819Z" fill="#FF8522"/>
</g>
<path d="M629.647 312.801C633.487 312.801 636.6 311.018 636.6 308.819C636.6 306.619 633.487 304.836 629.647 304.836C625.807 304.836 622.693 306.619 622.693 308.819C622.693 311.018 625.807 312.801 629.647 312.801Z" fill="#FF9F57"/>
<path d="M446.196 328.586L451.87 325.119V304.981L308.345 218.569L301.597 221.334" fill="#FFBA93"/>
<path d="M355.595 326.75V335.395L305.807 364.282L290.765 355.285L289.63 344.762" fill="#CA5A00"/>
<path d="M339.377 316.041L289.63 344.763L304.796 355.451L355.595 326.75L339.377 316.041Z" fill="#FF8522"/>
<path d="M459.607 388.876V397.501L409.819 426.388L394.798 417.392L393.663 406.889" fill="#CA5A00"/>
<path d="M443.41 378.168L393.663 406.89L408.829 417.578L459.607 388.877L443.41 378.168Z" fill="#FF8522"/>
<path d="M326.007 254.161V337.066C326.007 337.066 323.613 341.44 315.071 337.066V249.663" fill="#FFBA93"/>
<path d="M433.548 315.69V398.595C433.548 398.595 431.154 402.969 422.612 398.595V311.192" fill="#FFBA93"/>
<path d="M446.196 306.755V328.586L301.597 244.484V221.333L446.196 306.755Z" fill="#FF8522"/>
<path d="M551.57 477.579V463.941L561.846 458.906V472.339L551.57 477.579Z" fill="#494443"/>
<path d="M561.846 458.906L513.584 432.681L503.742 438.561L551.57 463.94L561.846 458.906Z" fill="#666666"/>
<path d="M503.742 438.562V453.459L551.57 477.579V463.941" fill="#494443"/>
<path d="M537.416 465.88C537.175 465.188 536.834 464.534 536.405 463.94C535.177 462.489 533.746 461.224 532.154 460.185C530.627 459.298 529.018 458.514 527.512 457.585C526.625 457.028 525.758 456.43 524.871 455.893C523.983 455.357 522.807 454.903 521.776 454.449C519.341 453.83 516.308 456.141 514.162 457.379L505.228 462.434L491.775 470.048L475.825 479.065L459.442 488.35L444.669 496.727L433.548 503.02L428.1 506.094C428.03 506.144 427.953 506.185 427.873 506.218C426.852 506.479 425.946 507.074 425.3 507.907C424.654 508.74 424.303 509.765 424.304 510.819V511.376C424.319 512.228 424.563 513.06 425.009 513.786C425.456 514.512 426.088 515.105 426.842 515.503L439.222 522.126C440.074 522.578 441.042 522.76 442 522.65C442.958 522.539 443.86 522.141 444.586 521.507L530.627 472.111L531.762 471.451C533.31 469.883 535.889 469.553 537.416 466.52C537.601 466.313 537.457 466.128 537.416 465.88Z" fill="#A11741"/>
<path opacity="0.5" d="M445.205 521.425L536.9 468.789C537.239 468.573 537.507 468.263 537.672 467.896C537.837 467.53 537.891 467.123 537.828 466.726C537.601 465.768 537.188 464.863 536.611 464.064C535.746 463.004 534.748 462.061 533.64 461.258L443.617 514.43C444.758 515.469 445.49 516.881 445.68 518.413C445.836 519.326 445.653 520.266 445.164 521.054C445.205 521.177 445.226 521.301 445.205 521.425Z" fill="black"/>
<path d="M483.068 194.057L429.957 240.172C428.756 241.218 427.832 242.545 427.266 244.034C426.701 245.524 426.512 247.129 426.716 248.709C426.92 250.289 427.511 251.794 428.436 253.091C429.362 254.388 430.593 255.436 432.021 256.142L493.137 286.535C494.689 287.306 496.419 287.646 498.148 287.519C499.876 287.392 501.538 286.804 502.962 285.815C504.385 284.826 505.516 283.473 506.238 281.898C506.96 280.322 507.245 278.582 507.064 276.858L499.038 200.35C498.853 198.59 498.188 196.914 497.117 195.505C496.046 194.096 494.608 193.008 492.962 192.359C491.315 191.71 489.522 191.525 487.777 191.824C486.033 192.124 484.404 192.896 483.068 194.057Z" fill="white"/>
<path d="M480.447 211.719L473.391 239.78C472.091 244.938 480.055 247.125 481.355 241.967L488.412 213.906C489.712 208.768 481.747 206.56 480.447 211.719Z" fill="#FF8522"/>
<path d="M468.129 259.113V259.98C468.129 265.283 476.382 265.303 476.382 259.98V259.113C476.382 253.79 468.129 253.79 468.129 259.113Z" fill="#FF8522"/>
<defs>
<linearGradient id="paint0_linear_155:577" x1="539.789" y1="445.597" x2="489.608" y2="491.341" gradientUnits="userSpaceOnUse">
<stop stop-color="#F7931E"/>
<stop offset="1" stop-color="white"/>
</linearGradient>
<linearGradient id="paint1_linear_155:577" x1="39620.1" y1="16385.4" x2="38257.6" y2="18631.1" gradientUnits="userSpaceOnUse">
<stop stop-color="#F7931E"/>
<stop offset="1" stop-color="white"/>
</linearGradient>
<linearGradient id="paint2_linear_155:577" x1="47866.8" y1="30563.6" x2="44768.9" y2="38041.2" gradientUnits="userSpaceOnUse">
<stop stop-color="#F7931E"/>
<stop offset="1" stop-color="white"/>
</linearGradient>
</defs>
</svg>
