<svg width="269" height="203" viewBox="0 0 269 203" fill="none" xmlns="http://www.w3.org/2000/svg">
<path d="M30.027 103.608L112.684 55.4766C113.278 55.1333 113.952 54.9525 114.638 54.9525C115.323 54.9525 115.997 55.1333 116.591 55.4766L240.203 126.306C240.8 126.649 241.296 127.143 241.641 127.739C241.985 128.335 242.167 129.011 242.167 129.7C242.167 130.389 241.985 131.065 241.641 131.661C241.296 132.257 240.8 132.751 240.203 133.094L161.171 178.787C159.229 179.91 157.025 180.501 154.782 180.501C152.54 180.501 150.336 179.91 148.394 178.787L30.0337 110.382C29.4399 110.039 28.9467 109.545 28.6035 108.951C28.2603 108.357 28.0793 107.683 28.0786 106.997C28.0779 106.31 28.2576 105.636 28.5996 105.041C28.9416 104.446 29.4339 103.952 30.027 103.608Z" fill="#1AA4B2"/>
<path d="M79.2474 82.6866L30.6323 110.664L67.8149 132.158L135.139 94.5645" fill="#A11741"/>
<path d="M105.979 109.903L67.8149 132.158L114.123 158.917L167.083 123.404" fill="#F78546"/>
<path d="M190.068 119.903V154.136L149.335 179.05L142.61 175.367L114.123 158.917L148.421 135.349" fill="#5F2052"/>
<path style="mix-blend-mode:multiply" opacity="0.63" d="M86.147 88.4842L121.568 109.284L142.099 96.7933L113.101 79.8451" fill="url(#paint0_linear)"/>
<path style="mix-blend-mode:multiply" opacity="0.63" d="M111.137 115.095L146.558 135.895L167.082 123.404L138.091 106.456" fill="url(#paint1_linear)"/>
<path d="M118.431 83.116C131.83 79.0346 138.099 60.6071 132.433 41.957C126.767 23.3068 111.311 11.4965 97.9111 15.5779C84.5115 19.6593 78.2424 38.0868 83.9087 56.737C89.575 75.3871 105.031 87.1974 118.431 83.116Z" fill="#A11741"/>
<path d="M124.5 90.915C124.5 90.915 123.828 80.0942 123.572 77.448C123.343 75.0306 122.536 64.3985 115.899 61.0384C107.506 56.7963 97.8287 51.2816 88.8844 53.8471C81.6416 55.9277 79.1668 81.0369 79.2475 82.7136C79.3955 85.6965 101.87 101.608 124.5 90.915Z" fill="#A11741"/>
<path d="M92.8051 39.5048C92.8051 39.5048 91.0297 38.0503 89.994 34.6768C88.9584 31.3034 90.6665 26.4148 94.3316 25.9637C97.9968 25.5126 99.1131 27.4316 99.1131 27.4316C99.1131 27.4316 112.711 25.021 114.809 35.7003C115.193 38.69 116.827 49.5377 107.99 51.9146C99.1535 54.2915 102.328 41.7268 102.328 41.7268" fill="#4B1B13"/>
<path d="M92.4419 37.1481C92.4419 37.1481 92.4755 44.1778 92.4419 46.7904C92.4016 49.5444 93.565 56.9782 98.0842 56.7425C102.603 56.5069 107.237 51.2413 107.237 50.009C107.237 50.009 111.803 47.1608 109.254 44.9724C106.706 42.784 106.47 46.4874 106.47 46.4874C106.47 46.4874 105.071 44.4674 104.977 38.9796C100.71 39.5118 96.3791 38.879 92.4419 37.1481Z" fill="#FFAC73"/>
<path d="M107.028 57.3215C104.722 59.4493 100.976 59.8466 97.5056 59.3416C97.2452 59.3235 96.999 59.2157 96.809 59.0365C96.619 58.8573 96.4968 58.6177 96.4633 58.3585C96.4095 57.2946 96.3422 56.2307 96.248 55.1668L108.171 49.3289L107.25 56.9377C107.25 56.9377 107.176 57.0926 107.028 57.3215Z" fill="#FFAC73"/>
<path d="M98.8574 59.4897C98.3934 59.456 97.9293 59.4089 97.472 59.3416C97.2221 59.3255 96.9853 59.2236 96.8015 59.0531C96.6178 58.8826 96.4983 58.654 96.4633 58.4056C96.4633 57.8535 96.4095 57.3013 96.3691 56.7424C98.891 56.7424 103.383 56.1499 105.784 51.4634C105.475 53.3083 104.665 55.0327 103.444 56.4481C102.222 57.8636 100.636 58.9158 98.8574 59.4897Z" fill="#E5894A"/>
<path d="M108.172 54.8773C107.21 55.5507 106.215 56.1297 105.213 56.7156C103.808 57.5876 102.319 58.3141 100.767 58.8837C99.4763 59.3214 97.2234 59.9611 96.4568 58.3383C96.3878 58.0473 96.3718 57.7462 96.4097 57.4495C96.4296 57.0877 96.4161 56.7248 96.3693 56.3654C95.7573 56.1389 95.2213 55.7446 94.8226 55.2275C94.7921 55.188 94.7713 55.1418 94.7621 55.0928C94.7621 55.0928 91.6282 64.0685 92.1326 64.4658C92.637 64.8631 96.3828 62.6949 96.3828 62.6949C96.3828 62.6949 97.9968 66.0011 98.6357 66.331C99.2745 66.6609 107.519 59.4022 108.622 57.335L108.172 54.8773Z" fill="#D4DEE8"/>
<path d="M93.1948 64.0955C93.0065 64.1696 92.5896 66.0752 93.1948 67.8865C93.1948 67.8865 94.7349 68.5598 95.024 68.4723C95.3132 68.3848 97.8351 65.523 97.714 65.3614C97.593 65.1998 96.1673 62.567 96.1673 62.567L93.1948 64.0955Z" fill="#F47A63"/>
<path d="M93.1949 67.8865C93.1949 67.8865 87.6804 89.3865 88.057 89.5683C88.4336 89.7501 93.2151 92.2213 94.9098 92.3358L95.0241 68.4723" fill="#F47A63"/>
<path d="M93.9009 47.8139C95.2083 47.8139 96.2681 46.3729 96.2681 44.5953C96.2681 42.8177 95.2083 41.3767 93.9009 41.3767C92.5935 41.3767 91.5337 42.8177 91.5337 44.5953C91.5337 46.3729 92.5935 47.8139 93.9009 47.8139Z" stroke="#42210B" stroke-width="0.76125" stroke-miterlimit="10"/>
<path d="M100.552 49.3424C102 49.3424 103.175 47.9014 103.175 46.1238C103.175 44.3462 102 42.9052 100.552 42.9052C99.1035 42.9052 97.9292 44.3462 97.9292 46.1238C97.9292 47.9014 99.1035 49.3424 100.552 49.3424Z" stroke="#42210B" stroke-width="0.76125" stroke-miterlimit="10"/>
<path d="M96.2686 45.3696L97.9296 45.6053" stroke="#42210B" stroke-width="0.76125" stroke-miterlimit="10"/>
<path d="M103.175 46.1238L106.887 45.1946" stroke="#42210B" stroke-width="0.76125" stroke-miterlimit="10"/>
<path d="M143.607 110.432C157.007 106.351 163.276 87.9231 157.609 69.273C151.943 50.6229 136.487 38.8126 123.087 42.8939C109.688 46.9753 103.419 65.4029 109.085 84.053C114.751 102.703 130.207 114.513 143.607 110.432Z" fill="#F78546"/>
<path d="M149.927 117.896C149.927 117.896 149.254 107.392 149.026 104.786C148.804 102.436 148.024 92.1136 141.574 88.8479C133.424 84.727 124.022 79.3738 115.347 81.8652C108.313 83.8853 105.932 108.274 105.986 109.904C106.12 112.826 127.95 128.273 149.927 117.896Z" fill="#2B415D"/>
<path d="M135.925 86.0131C135.925 86.0131 137.439 95.1572 128.831 95.8776C122.812 96.3827 124.123 91.4941 124.123 91.4941C124.123 91.4941 121.178 93.8845 118.071 92.0395C114.964 90.1946 120.088 82.9022 122.408 82.4174C124.728 81.9326 130.33 82.0672 135.925 86.0131Z" fill="#A11741"/>
<path d="M137.802 69.8123C141.557 69.8123 144.601 66.7644 144.601 63.0047C144.601 59.245 141.557 56.1971 137.802 56.1971C134.047 56.1971 131.003 59.245 131.003 63.0047C131.003 66.7644 134.047 69.8123 137.802 69.8123Z" fill="#4B1B13"/>
<path d="M118.44 68.6877C117.361 67.3288 116.739 65.662 116.665 63.9271C116.566 63.0915 116.605 62.2454 116.779 61.4222C117.041 60.5658 117.621 59.8427 118.4 59.4022C118.981 59.021 119.512 58.5686 119.98 58.0555C119.98 58.0555 137.755 54.6012 139.792 64.9641C140.169 67.8662 139.947 76.6265 131.998 80.2962C123.928 84.0199 127.674 70.8155 127.674 70.8155" fill="#4B1B13"/>
<path d="M122.738 83.4341L133.343 78.2426L132.449 85.6494C132.449 85.6494 132.375 85.7908 132.233 86.013C130.31 87.7907 127.351 88.3159 124.412 88.1273C124.098 88.1037 123.801 87.97 123.575 87.7497C123.349 87.5293 123.207 87.2364 123.175 86.922C123.067 85.7369 122.94 84.5788 122.738 83.4341Z" fill="#FFAC73"/>
<path d="M118.097 66.7148C118.097 66.7148 117.472 63.2471 121.372 62.6747C122.415 62.5131 123.39 62.5064 124.062 63.4827C124.843 64.6813 124.95 66.1088 126.08 67.1256C126.639 67.6136 127.323 67.9354 128.055 68.0543C128.787 68.1733 129.538 68.0849 130.223 67.7989C130.223 68.9503 130.081 69.819 128.676 70.1893C127.27 70.5596 119.194 68.9773 118.097 66.7148Z" fill="#FFAC73"/>
<path d="M132.139 63.4288C127.903 61.9205 123.874 61.0317 119.362 61.6377C119.166 61.6479 118.982 61.7322 118.845 61.8734C118.709 62.0147 118.632 62.2024 118.629 62.3986C118.299 60.6008 117.862 56.0556 121.521 54.6753C126.12 52.9448 133.794 55.1332 135.919 59.281C136.978 61.3232 137.486 63.6074 137.392 65.9067C135.905 64.7149 133.995 64.0887 132.139 63.4288Z" fill="#4B1B13"/>
<path d="M123.021 85.3397L123.189 86.8951C123.189 86.8951 130.25 86.6931 131.259 80.9495L123.021 85.3397Z" fill="#E28E54"/>
<path d="M118.071 66.3983C118.071 66.3983 118.104 73.2261 118.071 75.7579C118.037 78.4513 120.707 85.4272 123.551 85.4204C127.977 85.4204 132.442 80.074 132.442 78.9024C132.442 78.9024 136.88 76.1349 134.372 74.0072C131.864 71.8794 131.682 75.4818 131.682 75.4818C131.682 75.4818 130.337 73.5021 130.229 68.1894C126.089 68.6996 121.889 68.0807 118.071 66.3983Z" fill="#FFAC73"/>
<path d="M111.77 115.209C111.36 114.958 110.965 114.683 110.586 114.388C110.763 109.067 111.475 103.777 112.711 98.5979C112.926 97.6956 114.318 98.0794 114.103 98.9817C112.823 104.341 112.118 109.822 111.998 115.331L111.77 115.209Z" fill="#17283A"/>
<path d="M138.831 121.175C138.626 121.179 138.421 121.197 138.219 121.229L137.688 103.008C137.688 102.817 137.763 102.634 137.898 102.499C138.033 102.364 138.216 102.288 138.407 102.288C138.598 102.288 138.781 102.364 138.916 102.499C139.051 102.634 139.127 102.817 139.127 103.008L139.651 121.115C139.376 121.112 139.102 121.133 138.831 121.175Z" fill="#17283A"/>
<path d="M133.572 80.5319C131.976 78.998 130.891 77.0089 130.465 74.8354C129.92 71.435 134.46 72.9702 135.173 74.4381C135.886 75.906 135.67 79.7441 133.572 80.5319Z" fill="#4B1B13"/>
<path d="M173.974 147.457C187.374 143.376 193.643 124.949 187.977 106.298C182.31 87.6483 166.854 75.838 153.455 79.9193C140.055 84.0007 133.786 102.428 139.452 121.078C145.118 139.729 160.574 151.539 173.974 147.457Z" fill="#5F2052"/>
<path style="mix-blend-mode:multiply" opacity="0.63" d="M135.744 153.887L171.165 174.686L191.696 162.196L162.705 145.248" fill="url(#paint2_linear)"/>
<path d="M176.316 157.651C176.316 157.651 175.643 146.83 175.388 144.184C175.159 141.766 174.352 131.134 167.715 127.774C159.322 123.532 149.645 118.017 140.7 120.583C133.458 122.663 130.983 147.773 131.063 149.449C131.211 152.432 153.686 168.337 176.316 157.651Z" fill="#2B415D"/>
<path d="M159.147 129.04C159.147 129.612 158.475 130.474 158.226 130.952C156.074 135.06 154.191 139.396 152.126 143.591C150.062 147.786 149.746 159.206 149.503 159.96C149.503 160.034 141.265 156.964 141.198 157.011C141.131 157.058 140.526 151.052 140.526 150.688C140.431 144.116 139.947 140.763 141.151 135.706C142.005 132.117 143.565 129.686 144.392 126.098C144.783 124.387 145.065 122.334 145.912 120.778C146.861 119.041 159.147 125.195 159.147 129.04Z" fill="#A11741"/>
<path d="M162.846 161.24C162.624 161.24 162.402 161.24 162.173 161.273C162.236 156.753 162.247 152.23 162.207 147.705C162.207 147.508 162.285 147.319 162.425 147.179C162.564 147.04 162.753 146.961 162.95 146.961C163.147 146.961 163.336 147.04 163.476 147.179C163.615 147.319 163.693 147.508 163.693 147.705C163.734 152.194 163.722 156.683 163.66 161.172L162.846 161.24Z" fill="#17283A"/>
<path d="M138.353 155.57C138.304 155.541 138.252 155.516 138.198 155.496L137.795 155.274L137.324 155.011L136.934 154.796C136.934 149.409 137.093 144.04 137.412 138.689C137.465 137.74 138.952 137.733 138.898 138.689C138.588 144.22 138.427 149.752 138.414 155.287C138.412 155.385 138.392 155.481 138.353 155.57Z" fill="#17283A"/>
<path d="M145.932 120.785C145.932 120.785 144.325 131.781 145.26 132.905L149.019 129.956L151.259 134.669L160.613 126.535L145.932 120.785Z" fill="#2B415D"/>
<path d="M144.258 103.884C144.258 103.884 144.291 110.913 144.258 113.526C144.217 116.28 145.381 123.714 149.9 123.478C154.419 123.242 159.053 117.977 159.053 116.745C159.053 116.745 163.619 113.896 161.07 111.708C158.522 109.52 158.286 113.223 158.286 113.223C158.286 113.223 156.887 111.203 156.793 105.715C152.526 106.247 148.195 105.615 144.258 103.884Z" fill="#FFAC73"/>
<path d="M158.845 124.057C156.538 126.185 152.792 126.582 149.322 126.077C149.062 126.059 148.815 125.951 148.625 125.772C148.435 125.593 148.313 125.353 148.28 125.094C148.226 124.03 148.159 122.966 148.064 121.903L159.988 116.065L159.067 123.673C159.067 123.673 158.986 123.828 158.845 124.057Z" fill="#FFAC73"/>
<path d="M150.64 126.225C150.176 126.192 149.712 126.145 149.254 126.077C149.004 126.059 148.767 125.955 148.584 125.782C148.402 125.609 148.284 125.378 148.252 125.128C148.252 124.576 148.199 124.024 148.158 123.465C150.68 123.465 155.172 122.872 157.573 118.186C157.266 120.034 156.456 121.762 155.233 123.18C154.01 124.598 152.421 125.652 150.64 126.225Z" fill="#E5894A"/>
<path d="M174.372 123.478C170.156 118.812 168.118 109.533 168.118 109.533H168.064C166.874 99.3318 159.604 96.2412 153.269 95.8843C146.934 95.5274 142.099 97.9043 141.756 102.214C141.413 106.523 144.285 108.274 144.285 108.274C144.285 108.274 155.045 111.398 155.757 110.065C156.47 108.732 156.605 102.577 157.237 110.644C157.445 113.338 157.392 115.984 157.371 118.65C157.363 121.929 157.633 125.202 158.178 128.434C158.568 130.831 158.925 133.511 161.258 134.817C163.127 135.811 165.217 136.317 167.333 136.288C169.449 136.258 171.523 135.695 173.363 134.649C174.6 140.627 175.483 146.673 176.006 152.755C176.006 152.755 183.404 152.291 184.265 141.234C185.126 130.178 178.596 128.144 174.372 123.478Z" fill="#4B1B13"/>
<path d="M161.351 72.0293C166.86 71.0607 170.377 64.8654 169.207 58.1919C168.036 51.5183 162.622 46.8936 157.112 47.8623C151.603 48.8309 148.086 55.0262 149.256 61.6997C150.427 68.3733 155.842 72.998 161.351 72.0293Z" fill="#A11741"/>
<path d="M152.106 61.3348L156.242 66.2166C156.432 66.4041 156.688 66.5092 156.954 66.5092C157.221 66.5092 157.477 66.4041 157.667 66.2166L166.342 56.453C167.203 55.4834 165.784 54.0491 164.917 55.0255L156.242 64.7891H157.667L153.531 59.9073C152.691 58.9175 151.272 60.3517 152.106 61.3348Z" fill="#F2F2F2"/>
<path d="M190.857 117.441C196.103 116.092 198.99 109.679 197.307 103.116C195.624 96.5534 190.008 92.3263 184.763 93.6747C179.518 95.0231 176.63 101.436 178.313 107.999C179.996 114.562 185.612 118.789 190.857 117.441Z" fill="#5CB21A"/>
<path d="M186.686 99.2376V110.617C186.686 110.885 186.792 111.142 186.981 111.331C187.171 111.521 187.427 111.627 187.695 111.627C187.962 111.627 188.219 111.521 188.408 111.331C188.597 111.142 188.704 110.885 188.704 110.617V99.2376C188.704 98.9697 188.597 98.7128 188.408 98.5234C188.219 98.334 187.962 98.2275 187.695 98.2275C187.427 98.2275 187.171 98.334 186.981 98.5234C186.792 98.7128 186.686 98.9697 186.686 99.2376Z" fill="#F2F2F2"/>
<path d="M182.698 103.419L191.663 108.57C191.893 108.694 192.162 108.723 192.413 108.652C192.665 108.581 192.879 108.415 193.01 108.189C193.142 107.963 193.181 107.694 193.119 107.44C193.057 107.186 192.899 106.966 192.678 106.826L183.693 101.675C183.463 101.552 183.194 101.522 182.943 101.594C182.691 101.665 182.477 101.831 182.346 102.057C182.214 102.283 182.175 102.551 182.237 102.805C182.299 103.059 182.457 103.279 182.678 103.419H182.698Z" fill="#F2F2F2"/>
<path d="M127.498 36.3909C133.008 35.4222 136.525 29.227 135.354 22.5534C134.184 15.8799 128.769 11.2552 123.26 12.2239C117.751 13.1925 114.234 19.3878 115.404 26.0613C116.574 32.7349 121.989 37.3596 127.498 36.3909Z" fill="#F78546"/>
<path d="M125.569 29.1509C127.795 28.8413 129.303 26.4613 128.939 23.835C128.575 21.2087 126.475 19.3307 124.249 19.6403C122.023 19.9499 120.515 22.3299 120.879 24.9562C121.244 27.5825 123.343 29.4605 125.569 29.1509Z" fill="white"/>
<defs>
<linearGradient id="paint0_linear" x1="128.743" y1="105.278" x2="107.658" y2="87.0898" gradientUnits="userSpaceOnUse">
<stop stop-color="white" stop-opacity="0"/>
<stop offset="0.99" stop-color="#808080"/>
</linearGradient>
<linearGradient id="paint1_linear" x1="159395" y1="5850.86" x2="160223" y2="4491.5" gradientUnits="userSpaceOnUse">
<stop stop-color="white" stop-opacity="0"/>
<stop offset="0.99" stop-color="#808080"/>
</linearGradient>
<linearGradient id="paint2_linear" x1="157391" y1="7585.62" x2="158219" y2="6226.23" gradientUnits="userSpaceOnUse">
<stop stop-color="white" stop-opacity="0"/>
<stop offset="0.99" stop-color="#808080"/>
</linearGradient>
</defs>
</svg>
