<svg width="22" height="22" viewBox="0 0 22 22" fill="none" xmlns="http://www.w3.org/2000/svg">
<path d="M11 2.75C9.36831 2.75 7.77325 3.23385 6.41655 4.14038C5.05984 5.0469 4.00242 6.33537 3.378 7.84286C2.75357 9.35035 2.5902 11.0092 2.90853 12.6095C3.22685 14.2098 4.01259 15.6798 5.16637 16.8336C6.32016 17.9874 7.79017 18.7732 9.39051 19.0915C10.9909 19.4098 12.6497 19.2464 14.1571 18.622C15.6646 17.9976 16.9531 16.9402 17.8596 15.5835C18.7661 14.2267 19.25 12.6317 19.25 11C19.25 10.5783 19.2133 10.1567 19.1583 9.75333C18.7003 10.3956 18.0951 10.9188 17.3934 11.2793C16.6917 11.6397 15.9139 11.8268 15.125 11.825C14.0756 11.825 13.0533 11.4917 12.2056 10.8732C11.3579 10.2546 10.7285 9.38283 10.4083 8.38347C10.0881 7.38412 10.0936 6.30889 10.424 5.31287C10.7544 4.31684 11.3927 3.45151 12.2467 2.84167C11.8433 2.78667 11.4217 2.75 11 2.75Z" fill="#FBFBFB"/>
</svg>
