<svg width="32" height="32" viewBox="0 0 32 32" fill="none" xmlns="http://www.w3.org/2000/svg">
<path d="M20.1333 25.8266L21.4667 28.1466C20.1867 28.7333 18.7867 29.1199 17.3333 29.2666V26.5733C18.32 26.4533 19.2533 26.1999 20.1333 25.8266ZM5.42667 17.3333H2.73334C2.88 18.7999 3.26667 20.1866 3.85334 21.4666L6.17334 20.1333C5.8 19.2533 5.54667 18.3199 5.42667 17.3333ZM20.1333 6.17328L21.4667 3.85328C20.1867 3.26661 18.8 2.87994 17.3333 2.73328V5.42661C18.32 5.54661 19.2533 5.79994 20.1333 6.17328ZM26.5733 14.6666H29.2667C29.12 13.1999 28.7333 11.8133 28.1467 10.5333L25.8267 11.8666C26.2 12.7466 26.4533 13.6799 26.5733 14.6666ZM11.8667 25.8266L10.5333 28.1466C11.8133 28.7333 13.2133 29.1199 14.6667 29.2666V26.5733C13.68 26.4533 12.7467 26.1999 11.8667 25.8266ZM14.6667 5.42661V2.73328C13.2 2.87994 11.8133 3.26661 10.5333 3.85328L11.8667 6.17328C12.7467 5.79994 13.68 5.54661 14.6667 5.42661ZM24.48 9.55994L26.8 8.21328C25.96 7.05328 24.9333 6.02661 23.7733 5.18661L22.4267 7.50661C23.2133 8.10661 23.8933 8.78661 24.48 9.55994ZM6.17334 11.8666L3.85334 10.5333C3.26667 11.8133 2.88 13.1999 2.73334 14.6666H5.42667C5.54667 13.6799 5.8 12.7466 6.17334 11.8666ZM26.5733 17.3333C26.4533 18.3199 26.2 19.2533 25.8267 20.1333L28.1467 21.4666C28.7333 20.1866 29.12 18.7866 29.2667 17.3333H26.5733ZM22.44 24.4799L23.7867 26.7999C24.9467 25.9599 25.9733 24.9333 26.8133 23.7733L24.4933 22.4266C23.8933 23.2133 23.2133 23.8933 22.44 24.4799ZM9.56 7.51994L8.22667 5.18661C7.05334 6.03994 6.04 7.05328 5.2 8.22661L7.52 9.57328C8.09963 8.79593 8.78645 8.10462 9.56 7.51994ZM7.52 22.4399L5.2 23.7733C6.04 24.9333 7.06667 25.9599 8.22667 26.7999L9.57334 24.4799C8.79599 23.9003 8.10468 23.2135 7.52 22.4399ZM16 9.33328C15.2667 9.33328 14.6667 9.93328 14.6667 10.6666V15.4533C14.6667 16.1599 14.9467 16.8399 15.4533 17.3333L19.4533 21.3333C19.7026 21.5826 20.0408 21.7226 20.3933 21.7226C20.7459 21.7226 21.084 21.5826 21.3333 21.3333C21.5826 21.084 21.7227 20.7458 21.7227 20.3933C21.7227 20.0407 21.5826 19.7026 21.3333 19.4533L17.3333 15.4533V10.6666C17.3333 9.93328 16.7333 9.33328 16 9.33328Z" fill="#111111"/>
<path d="M15.1 19.3701L16.1 21.1101C15.14 21.5501 14.09 21.8401 13 21.9501V19.93C13.74 19.84 14.44 19.6501 15.1 19.3701V19.3701ZM4.06999 13H2.04999C2.15999 14.1 2.44999 15.14 2.88999 16.1L4.62999 15.1C4.34999 14.44 4.15999 13.74 4.06999 13V13ZM15.1 4.63005L16.1 2.89005C15.14 2.45005 14.1 2.16005 13 2.05005V4.07005C13.74 4.16005 14.44 4.35005 15.1 4.63005V4.63005ZM19.93 11H21.95C21.84 9.90005 21.55 8.86005 21.11 7.90005L19.37 8.90005C19.65 9.56005 19.84 10.26 19.93 11ZM8.89999 19.3701L7.89999 21.1101C8.85999 21.5501 9.90999 21.8401 11 21.9501V19.93C10.26 19.84 9.55999 19.6501 8.89999 19.3701ZM11 4.07005V2.05005C9.89999 2.16005 8.85999 2.45005 7.89999 2.89005L8.89999 4.63005C9.55999 4.35005 10.26 4.16005 11 4.07005ZM18.36 7.17005L20.1 6.16005C19.47 5.29005 18.7 4.52005 17.83 3.89005L16.82 5.63005C17.41 6.08005 17.92 6.59005 18.36 7.17005V7.17005ZM4.62999 8.90005L2.88999 7.90005C2.44999 8.86005 2.15999 9.90005 2.04999 11H4.06999C4.15999 10.26 4.34999 9.56005 4.62999 8.90005V8.90005ZM19.93 13C19.84 13.74 19.65 14.44 19.37 15.1L21.11 16.1C21.55 15.14 21.84 14.09 21.95 13H19.93V13ZM16.83 18.3601L17.84 20.1C18.71 19.47 19.48 18.7 20.11 17.83L18.37 16.82C17.92 17.41 17.41 17.9201 16.83 18.3601V18.3601ZM7.16999 5.64005L6.16999 3.89005C5.28999 4.53005 4.52999 5.29005 3.89999 6.17005L5.63999 7.18005C6.0747 6.59704 6.58982 6.07855 7.16999 5.64005V5.64005ZM5.63999 16.83L3.89999 17.83C4.52999 18.7 5.29999 19.47 6.16999 20.1L7.17999 18.3601C6.59698 17.9253 6.07849 17.4102 5.63999 16.83V16.83ZM12 7.00005C11.45 7.00005 11 7.45005 11 8.00005V11.59C11 12.12 11.21 12.63 11.59 13L14.59 16C14.777 16.187 15.0306 16.2921 15.295 16.2921C15.5594 16.2921 15.813 16.187 16 16C16.187 15.8131 16.292 15.5595 16.292 15.295C16.292 15.0306 16.187 14.777 16 14.59L13 11.59V8.00005C13 7.45005 12.55 7.00005 12 7.00005Z" fill="#F2F1EE"/>
</svg>
