<svg width="64" height="64" viewBox="0 0 64 64" fill="none" xmlns="http://www.w3.org/2000/svg">
<path d="M58.6402 21.3333C58.6402 19.4133 57.6535 17.7333 56.1335 16.8L34.6935 4.24C33.0402 3.25333 30.9602 3.25333 29.3068 4.24L7.86683 16.8C6.34683 17.7333 5.3335 19.4133 5.3335 21.3333V48C5.3335 50.9333 7.7335 53.3333 10.6668 53.3333H53.3335C56.2668 53.3333 58.6668 50.9333 58.6668 48L58.6402 21.3333ZM29.1735 32.9067L9.9735 20.9067L29.3068 9.57333C30.9602 8.58667 33.0402 8.58667 34.6935 9.57333L54.0268 20.9067L34.8268 32.9067C33.0935 33.9733 30.9068 33.9733 29.1735 32.9067Z" fill="#F2F1EE"/>
</svg>
