<svg width="24" height="24" viewBox="0 0 24 24" fill="none" xmlns="http://www.w3.org/2000/svg">
<path d="M13.1202 16.0001C13.8102 16.0001 14.2702 15.3101 14.0202 14.6801L9.77016 3.87011C9.67051 3.61435 9.49596 3.39464 9.26935 3.23973C9.04275 3.08483 8.77465 3.00195 8.50016 3.00195C8.22567 3.00195 7.95758 3.08483 7.73098 3.23973C7.50437 3.39464 7.32982 3.61435 7.23016 3.87011L2.98016 14.6801C2.73016 15.3101 3.20016 16.0001 3.88016 16.0001C4.28016 16.0001 4.64016 15.7501 4.79016 15.3701L5.67016 13.0001H11.3102L12.2102 15.3801C12.3602 15.7501 12.7202 16.0001 13.1202 16.0001V16.0001ZM6.43016 11.0001L8.50016 5.48011L10.5702 11.0001H6.43016V11.0001ZM20.8902 12.2901L13.5002 19.6801L10.5302 16.7101C10.4376 16.6175 10.3277 16.5441 10.2067 16.494C10.0857 16.4439 9.95609 16.4181 9.82516 16.4181C9.69423 16.4181 9.56458 16.4439 9.44362 16.494C9.32266 16.5441 9.21275 16.6175 9.12016 16.7101C9.02758 16.8027 8.95414 16.9126 8.90404 17.0336C8.85393 17.1545 8.82814 17.2842 8.82814 17.4151C8.82814 17.546 8.85393 17.6757 8.90404 17.7967C8.95414 17.9176 9.02758 18.0275 9.12016 18.1201L12.8002 21.8001C13.1902 22.1901 13.8202 22.1901 14.2102 21.8001L22.2902 13.7101C22.3829 13.6176 22.4564 13.5077 22.5066 13.3867C22.5568 13.2658 22.5826 13.1361 22.5826 13.0051C22.5826 12.8741 22.5568 12.7445 22.5066 12.6235C22.4564 12.5025 22.3829 12.3926 22.2902 12.3001C22.1054 12.1139 21.8545 12.0083 21.5922 12.0064C21.3299 12.0045 21.0775 12.1065 20.8902 12.2901V12.2901Z" fill="#0F0E0E"/>
</svg>
