<svg width="24" height="24" viewBox="0 0 24 24" fill="none" xmlns="http://www.w3.org/2000/svg">
<path d="M8.11967 9.28995L11.9997 13.1699L15.8797 9.28995C15.9723 9.19736 16.0822 9.12392 16.2031 9.07382C16.3241 9.02371 16.4537 8.99792 16.5847 8.99792C16.7156 8.99792 16.8452 9.02371 16.9662 9.07382C17.0872 9.12392 17.1971 9.19736 17.2897 9.28995C17.3823 9.38253 17.4557 9.49244 17.5058 9.6134C17.5559 9.73437 17.5817 9.86401 17.5817 9.99495C17.5817 10.1259 17.5559 10.2555 17.5058 10.3765C17.4557 10.4975 17.3823 10.6074 17.2897 10.6999L12.6997 15.2899C12.6072 15.3826 12.4973 15.4562 12.3763 15.5064C12.2553 15.5566 12.1256 15.5824 11.9947 15.5824C11.8637 15.5824 11.734 15.5566 11.613 15.5064C11.4921 15.4562 11.3822 15.3826 11.2897 15.2899L6.69967 10.6999C6.60697 10.6074 6.53342 10.4975 6.48324 10.3766C6.43306 10.2556 6.40723 10.1259 6.40723 9.99495C6.40723 9.86398 6.43306 9.73429 6.48324 9.61332C6.53342 9.49235 6.60697 9.38246 6.69967 9.28995C7.08967 8.90995 7.72967 8.89995 8.11967 9.28995Z" fill="#F2F1EE"/>
</svg>
