<svg width="24" height="24" viewBox="0 0 24 24" fill="none" xmlns="http://www.w3.org/2000/svg">
<path d="M13 10H3C2.45 10 2 10.45 2 11C2 11.55 2.45 12 3 12H13C13.55 12 14 11.55 14 11C14 10.45 13.55 10 13 10ZM13 6H3C2.45 6 2 6.45 2 7C2 7.55 2.45 8 3 8H13C13.55 8 14 7.55 14 7C14 6.45 13.55 6 13 6ZM3 16H9C9.55 16 10 15.55 10 15C10 14.45 9.55 14 9 14H3C2.45 14 2 14.45 2 15C2 15.55 2.45 16 3 16ZM22.21 12.21L22.3 12.3C22.69 12.69 22.69 13.32 22.3 13.71L16.72 19.3C16.6275 19.3927 16.5176 19.4663 16.3966 19.5164C16.2757 19.5666 16.146 19.5924 16.015 19.5924C15.884 19.5924 15.7543 19.5666 15.6334 19.5164C15.5124 19.4663 15.4025 19.3927 15.31 19.3L12.22 16.21C12.1273 16.1175 12.0537 16.0076 12.0036 15.8866C11.9534 15.7657 11.9276 15.636 11.9276 15.505C11.9276 15.374 11.9534 15.2443 12.0036 15.1234C12.0537 15.0024 12.1273 14.8925 12.22 14.8L12.31 14.71C12.4025 14.6173 12.5124 14.5437 12.6334 14.4936C12.7543 14.4434 12.884 14.4176 13.015 14.4176C13.146 14.4176 13.2757 14.4434 13.3966 14.4936C13.5176 14.5437 13.6275 14.6173 13.72 14.71L16.02 17.01L20.8 12.22C21.18 11.82 21.82 11.82 22.21 12.21Z" fill="#0F0E0E"/>
</svg>
