<svg width="24" height="24" viewBox="0 0 24 24" fill="none" xmlns="http://www.w3.org/2000/svg">
<path d="M6.98475 3C6.41925 3 5.9295 3.27525 5.48475 3.65625C5.03925 4.03725 4.629 4.5495 4.266 5.2035C3.5385 6.513 3 8.34975 3 10.641C3 11.8155 3.27225 13.026 3.8205 13.992C3.9405 14.2035 4.137 14.3438 4.28925 14.5312C3.882 15.0293 3.21075 15.9608 3.21075 15.9608L4.29 17.04C4.29 17.04 5.034 16.0147 5.50875 15.4462C5.81025 15.5752 6.0945 15.7507 6.44625 15.7507C7.7325 15.7507 9.07425 15.1882 10.3133 14.4847C10.7115 14.79 11.16 15.0007 11.6258 15.0007C13.167 15.0007 14.3385 14.0955 15.165 13.29C15.405 13.0552 15.5662 12.8827 15.7507 12.6803C15.7477 12.8857 15.7417 13.0732 15.798 13.3132C15.8415 13.4948 15.8917 13.7205 16.0792 13.923C16.2667 14.1247 16.6035 14.2507 16.8757 14.2507C17.4232 14.2507 17.7397 13.9987 18.0712 13.7587C18.402 13.5187 18.7162 13.2315 19.0553 12.9615C19.737 12.4222 20.4645 12 21 12V10.5C19.8105 10.5 18.882 11.2035 18.1403 11.7892C17.7893 12.0667 17.4727 12.3105 17.2267 12.492V12.3983C17.235 12.126 17.2762 11.8208 17.2267 11.4847C17.1972 11.2804 17.1165 11.0869 16.992 10.9222C16.8368 10.7025 16.488 10.5 16.1955 10.5C15.7732 10.5 15.618 10.6815 15.4688 10.8045C15.3188 10.9275 15.2078 11.0535 15.0705 11.2028C14.7952 11.502 14.4668 11.8628 14.109 12.2108C13.479 12.8258 12.738 13.2922 11.9295 13.4062C12.4657 12.9757 13.005 12.5475 13.383 12.0705C13.881 11.4435 14.25 10.8045 14.25 10.0545C14.25 9.633 14.1975 9.0555 13.875 8.508C13.5525 7.9605 12.8588 7.5 12 7.5C11.0775 7.5 10.236 7.95375 9.72675 8.67225C9.21675 9.39 9 10.3095 9 11.3903C9 12.126 9.16725 12.735 9.39825 13.2653C8.35575 13.8142 7.275 14.25 6.4455 14.25C7.71375 12.3488 9 9.759 9 6.609C9 5.9565 9.006 5.1855 8.78925 4.47675C8.6805 4.122 8.508 3.762 8.2035 3.46875C7.8975 3.17625 7.4475 3 6.984 3H6.98475ZM6.98475 4.5C7.11975 4.5 7.125 4.52625 7.17225 4.5705C7.21875 4.614 7.27425 4.72275 7.33575 4.9215C7.45575 5.3175 7.5 5.985 7.5 6.609C7.5 9.26625 6.363 11.5927 5.22675 13.3365C5.2005 13.2915 5.15925 13.2893 5.133 13.242C4.743 12.5595 4.5 11.5665 4.5 10.641C4.5 8.58075 4.992 6.984 5.5785 5.9295C5.871 5.40225 6.1725 5.016 6.4455 4.78125C6.71775 4.5465 6.9495 4.5 6.98475 4.5ZM12 9C12.4163 9 12.4777 9.09975 12.5858 9.28125C12.6945 9.46275 12.75 9.7995 12.75 10.0545C12.75 10.242 12.5925 10.6785 12.2108 11.1562C11.88 11.5725 11.376 12.003 10.8285 12.4222C10.6965 12.12 10.5 11.9002 10.5 11.391C10.5 10.521 10.6845 9.885 10.9455 9.516C11.2057 9.14625 11.499 9 12 9ZM3 19.5V21H21V19.5H3Z" fill="#0F0E0E"/>
</svg>
